<svg width="35" height="35" viewBox="0 0 35 35" fill="none" xmlns="http://www.w3.org/2000/svg">
<path d="M34.6719 17.5995C34.6719 26.9876 27.0794 34.5995 17.631 34.5995C8.26702 34.5995 0.843296 26.9876 0.674575 17.9379C0.505854 8.29607 8.26702 0.599548 17.7154 0.599548C27.0794 0.599548 34.6719 8.21149 34.6719 17.5995ZM19.3183 28.5946C19.3183 24.9578 19.3183 21.2364 19.3183 17.5995C20.3306 17.5995 21.3429 17.5995 22.3552 17.5995C22.4396 16.3309 22.6083 15.1468 22.6927 13.8782C21.5116 13.8782 20.4149 13.8782 19.3183 13.8782V13.7936C19.3183 12.9478 19.3183 12.102 19.3183 11.2563C19.3183 10.7488 19.5713 10.5796 20.0775 10.5796C20.4993 10.5796 20.9211 10.5796 21.3429 10.5796C21.7647 10.5796 22.2709 10.5796 22.6927 10.5796C22.6927 9.31099 22.6927 8.04234 22.6927 6.6891C21.2585 6.6891 19.8244 6.6891 18.3903 6.85826C17.5467 6.94283 16.7874 7.19656 16.1969 7.70403C15.4377 8.29607 15.1002 9.14184 15.0159 10.1568C14.9315 11.0025 14.9315 11.9329 14.9315 12.7787C14.9315 13.117 14.9315 13.5398 14.9315 13.8782C14.1723 13.8782 13.413 13.8782 12.6538 13.8782C12.6538 15.1468 12.6538 16.3309 12.6538 17.5995C13.413 17.5995 14.1723 17.5995 14.9315 17.5995C14.9315 21.2364 14.9315 24.8732 14.9315 28.51C16.3656 28.5946 17.7998 28.5946 19.3183 28.5946Z" fill="#136284"/>
</svg>
