<svg width="34" height="34" viewBox="0 0 34 34" fill="none" xmlns="http://www.w3.org/2000/svg">
<path d="M17 0C26.384 0 34 7.616 34 17C34 26.384 26.384 34 17 34C7.616 34 0 26.384 0 17C0 7.616 7.616 0 17 0ZM6.528 17C6.596 17.748 6.596 18.428 6.596 19.176C6.596 20.332 6.596 21.556 6.8 22.712C7.208 24.888 8.432 26.384 10.608 27.064C11.492 27.336 12.376 27.472 13.26 27.472C15.572 27.472 17.816 27.472 20.128 27.472C21.012 27.472 21.896 27.404 22.712 27.268C25.024 26.86 26.52 25.568 27.2 23.324C27.472 22.508 27.54 21.624 27.54 20.74C27.54 18.904 27.54 17 27.54 15.164C27.54 13.872 27.54 12.58 27.336 11.356C26.996 9.248 25.84 7.82 23.868 7.004C22.916 6.664 21.964 6.528 20.944 6.528C18.972 6.528 17 6.46 15.028 6.528C13.94 6.528 12.852 6.596 11.832 6.732C10.812 6.8 9.86 7.208 9.044 7.82C7.684 8.84 7.004 10.336 6.868 11.968C6.528 13.668 6.528 15.3 6.528 17Z" fill="#136284"/>
<path d="M25.636 16.9996C25.636 18.4276 25.568 19.8556 25.5 21.2836C25.5 21.8956 25.364 22.5076 25.16 23.0516C24.684 24.4116 23.664 25.1596 22.236 25.3636C21.216 25.4996 20.196 25.4996 19.176 25.4996C17.34 25.4996 15.504 25.4996 13.668 25.4996C12.988 25.4996 12.308 25.4316 11.628 25.2956C9.928 24.9556 8.84 23.9356 8.636 22.1676C8.5 21.2156 8.5 20.1956 8.5 19.1756C8.5 16.9316 8.5 14.7556 8.568 12.5116C8.568 11.9676 8.704 11.3556 8.908 10.8116C9.384 9.45165 10.404 8.70365 11.832 8.49965C12.716 8.36365 13.532 8.36365 14.416 8.36365C16.728 8.36365 19.108 8.36365 21.42 8.43165C22.032 8.43165 22.576 8.56765 23.12 8.77165C24.48 9.24765 25.228 10.2676 25.432 11.6956C25.568 12.7156 25.568 13.7356 25.568 14.6876C25.568 15.5036 25.568 16.2516 25.636 16.9996C25.568 16.9996 25.568 16.9996 25.636 16.9996ZM22.372 17.0676C22.44 14.1436 20.06 11.6956 17.068 11.6276C14.076 11.5596 11.628 13.9396 11.628 16.9316C11.56 19.9236 13.94 22.3036 16.932 22.3716C19.856 22.4396 22.304 20.0596 22.372 17.0676ZM22.576 12.6476C23.256 12.6476 23.868 12.1036 23.868 11.4236C23.868 10.7436 23.324 10.1316 22.644 10.1316C21.964 10.1316 21.42 10.6756 21.42 11.3556C21.352 12.1036 21.896 12.6476 22.576 12.6476Z" fill="#136284"/>
<path d="M17.0003 13.5341C18.9043 13.5341 20.4683 15.0981 20.4683 17.0021C20.4683 18.9061 18.9043 20.4701 17.0003 20.4701C15.0963 20.4701 13.4643 18.9061 13.5323 17.0021C13.5323 15.0981 15.0963 13.5341 17.0003 13.5341Z" fill="#136284"/>
</svg>
