<svg width="34" height="34" viewBox="0 0 34 34" fill="none" xmlns="http://www.w3.org/2000/svg">
<g clip-path="url(#clip0_1430_568)">
<path d="M18.186 31.6279C9.33021 31.6279 2.37207 24.5116 2.37207 15.6558C2.45114 6.95814 9.48835 0 18.2651 0C27.1209 0 34.079 7.11628 34 15.9721C34 24.6698 26.8837 31.6279 18.186 31.6279ZM19.7674 13.2837C19.5302 12.0977 18.8186 11.8605 16.1302 12.414C16.1302 15.6558 16.1302 18.9767 16.1302 22.2977C17.3953 22.2977 18.5814 22.2977 20.0046 22.2977C20.0046 20.6372 20.0046 19.0558 20.0046 17.4744C20.0046 16.4465 20.0046 15.2605 21.4279 15.1814C22.9302 15.1814 22.7721 16.3674 22.8511 17.3953C22.8511 19.0558 22.8511 20.6372 22.8511 22.2186C24.2744 22.2186 25.4604 22.2186 26.7256 22.2186C26.7256 19.7674 26.8837 17.3953 26.6465 15.0233C26.4093 12.7302 25.1442 11.7814 22.8511 12.0186C21.8232 12.2558 20.8744 12.8093 19.7674 13.2837ZM13.5209 12.1767C12.5721 12.1767 11.7814 12.2558 10.9907 12.1767C9.96277 12.0977 9.64649 12.493 9.64649 13.5209C9.72556 16.0512 9.64649 18.6605 9.64649 21.1907C9.64649 21.586 9.80463 21.9023 9.80463 22.2186C11.1488 22.2186 12.2558 22.2186 13.5209 22.2186C13.5209 18.8977 13.5209 15.6558 13.5209 12.1767ZM11.7023 10.6744C12.7302 10.5953 13.5209 10.1209 13.5209 8.93488C13.5209 7.74884 12.8093 7.19535 11.7023 7.11628C10.5953 7.03721 9.56742 7.90698 9.64649 8.85581C9.72556 10.0419 10.4372 10.5953 11.7023 10.6744Z" fill="#136284"/>
</g>
<defs>
<clipPath id="clip0_1430_568">
<rect width="34" height="34" fill="white"/>
</clipPath>
</defs>
</svg>
