<svg width="34" height="34" viewBox="0 0 34 34" fill="none" xmlns="http://www.w3.org/2000/svg">
<path d="M15.912 0C16.592 0 17.34 0 18.02 0C18.156 0 18.224 0.0678643 18.36 0.0678643C19.244 0.203593 20.196 0.271457 21.08 0.542914C24.684 1.42515 27.676 3.32535 30.056 6.17565C31.96 8.48303 33.184 11.1297 33.728 14.0479C33.864 14.6587 33.932 15.3373 34 15.9481C34 16.6267 34 17.3733 34 18.0519C34 18.1876 33.932 18.2555 33.932 18.3912C33.864 19.002 33.796 19.5449 33.728 20.1557C32.912 24.2954 30.872 27.6886 27.54 30.3353C25.296 32.0998 22.78 33.2535 19.924 33.7285C19.312 33.8643 18.7 33.9321 18.088 34C17.408 34 16.66 34 15.98 34C15.844 34 15.776 33.9321 15.64 33.9321C14.824 33.7964 14.008 33.7285 13.192 33.525C9.724 32.7106 6.8 31.014 4.42 28.3673C2.244 25.992 0.816 23.1417 0.272 19.9521C0.136 19.3413 0.068 18.6627 0 18.0519C0 17.3733 0 16.6267 0 15.9481C0 15.8124 0.068 15.7445 0.068 15.6088C0.136 14.998 0.204 14.4551 0.272 13.8443C1.088 9.70459 3.128 6.31138 6.46 3.66467C8.704 1.9002 11.22 0.746507 14.076 0.271457C14.688 0.135729 15.3 0.0678643 15.912 0ZM7.956 23.006C8.024 23.0739 8.024 23.0739 8.024 23.0739C8.092 23.1417 8.16 23.1417 8.228 23.2096C9.588 24.024 11.016 24.5669 12.512 24.7026C15.096 24.9741 17.544 24.4311 19.652 22.8024C22.644 20.5629 24.072 17.4411 24.208 13.7764C24.208 13.2335 24.344 12.8263 24.82 12.5549C25.024 12.4192 25.16 12.2834 25.296 12.0798C25.432 11.9441 25.568 11.7405 25.704 11.6048C25.84 11.4691 25.908 11.2655 26.044 11.1297C25.364 11.3333 24.752 11.4691 24.072 11.6727C25.092 10.5868 25.364 10.1796 25.5 9.63673C24.82 9.84032 24.14 10.1118 23.46 10.3832C23.256 10.4511 23.12 10.3832 22.984 10.2475C21.284 8.5509 18.496 8.89022 17.204 10.994C16.66 11.8762 16.592 12.8942 16.728 13.98C13.532 13.7086 11.016 12.2156 8.976 9.70459C8.636 10.3832 8.432 11.0619 8.5 11.7405C8.5 13.0978 9.044 14.1158 10.064 14.998L9.996 15.0659C9.452 14.9301 8.976 14.7265 8.432 14.5908C8.568 16.5589 9.452 17.8483 11.356 18.5948C10.88 18.5948 10.336 18.5948 9.792 18.5948C10.404 20.2236 11.492 21.1737 13.26 21.3772C11.764 22.6667 9.996 23.2096 7.956 23.006Z" fill="#136284"/>
</svg>
