<svg width="35" height="35" viewBox="0 0 35 35" fill="none" xmlns="http://www.w3.org/2000/svg">
<path d="M18.5484 34.7016C17.7313 34.7016 16.9823 34.7016 16.1652 34.7016C15.7567 34.6336 15.4162 34.6336 15.0077 34.5656C11.6712 34.0896 8.74324 32.7976 6.22385 30.5536C1.66171 26.4736 -0.244861 21.3736 0.504147 15.3216C0.912697 12.0576 2.27453 9.13355 4.38537 6.68555C7.04095 3.62555 10.3774 1.72155 14.3268 0.973553C14.8715 0.905553 15.4843 0.769553 16.029 0.701553C16.8461 0.701553 17.6632 0.701553 18.4803 0.701553C19.0251 0.769553 19.5698 0.837553 20.1145 0.905553C23.2468 1.44955 26.0385 2.74155 28.4217 4.78155C31.4859 7.43355 33.3243 10.6976 34.0733 14.7096C34.2095 15.3216 34.2776 15.9336 34.3457 16.4776C34.3457 17.2936 34.3457 18.0416 34.3457 18.8576C34.2776 19.4016 34.2095 19.9456 34.1414 20.4896C33.4605 24.2976 31.7582 27.5616 28.8984 30.1456C26.4471 32.3896 23.5872 33.8176 20.3188 34.4296C19.7741 34.5656 19.1613 34.6336 18.5484 34.7016ZM16.8461 10.2216C14.7353 10.3576 12.2159 10.4256 9.69652 10.6296C8.33469 10.6976 7.38141 11.5816 7.17713 12.9416C6.97286 14.1656 6.90476 15.3896 6.83667 16.6136C6.70049 18.5176 6.83667 20.4896 7.10904 22.3936C7.31331 23.5496 7.85805 24.3656 9.01561 24.7056C9.49225 24.8416 9.96889 24.9096 10.4455 24.9096C12.0116 24.9776 13.6458 25.1136 15.2119 25.1136C18.4803 25.1816 21.8168 25.1816 25.0852 24.8416C26.5152 24.7056 27.4004 23.9576 27.6727 22.5296C27.877 21.2376 27.9451 19.9456 28.0132 18.5856C28.0813 16.7496 28.0132 14.9136 27.7408 13.1456C27.5365 11.7856 26.7194 10.9016 25.4938 10.6976C24.9491 10.6296 24.4043 10.4936 23.8596 10.4936C21.6126 10.3576 19.4336 10.2896 16.8461 10.2216Z" fill="#136284"/>
<path d="M15.2812 14.5032C17.1197 15.5912 18.9582 16.6112 20.7967 17.6992C18.9582 18.7872 17.1197 19.8072 15.2812 20.8952C15.2812 18.7192 15.2812 16.6792 15.2812 14.5032Z" fill="#136284"/>
</svg>
