<?xml version="1.0" encoding="utf-8"?>
<!-- Generator: Adobe Illustrator 24.1.0, SVG Export Plug-In . SVG Version: 6.00 Build 0)  -->
<svg version="1.1" id="Capa_1" xmlns="http://www.w3.org/2000/svg" xmlns:xlink="http://www.w3.org/1999/xlink" x="0px" y="0px"
	 viewBox="0 0 25 25" style="enable-background:new 0 0 25 25;" xml:space="preserve">
<style type="text/css">
	.st0{fill:#A6D3E7;}
</style>
<g>
	<path class="st0" d="M12.5,25C5.6,25,0.1,19.5,0,12.6C0,5.7,5.6,0,12.5,0C19.3,0,25,5.6,25,12.5C25,19.4,19.4,25,12.5,25z
		 M12.5,2.3C6.9,2.3,2.3,6.9,2.3,12.5c0,5.6,4.6,10.3,10.2,10.2c5.6,0,10.2-4.6,10.2-10.2C22.7,6.9,18.1,2.3,12.5,2.3z"/>
	<path class="st0" d="M12.5,14.1c-0.1,0.1-0.1,0.2-0.2,0.3c-1,1-2,2-3,3c-0.7,0.6-1.7,0.4-1.9-0.5c-0.1-0.4,0-0.8,0.3-1.2
		c1-1,2-2,2.9-2.9c0.1-0.1,0.1-0.1,0.2-0.2c-0.1-0.1-0.2-0.2-0.2-0.2c-1-1-2-2-3-3C7.1,8.7,7.3,7.6,8.2,7.4c0.4-0.1,0.8,0,1.2,0.3
		c1,1,2,2,3,3c0.1,0.1,0.1,0.1,0.3,0.2c0-0.1,0.1-0.2,0.1-0.3c1-1,2-2,3-3c0.3-0.3,0.7-0.4,1.2-0.3c0.4,0.1,0.7,0.4,0.8,0.9
		c0.1,0.4-0.1,0.8-0.4,1.1c-1,1-1.9,1.9-2.9,2.9c-0.1,0.1-0.1,0.1-0.2,0.2c0.1,0.1,0.1,0.2,0.2,0.2c1,1,2,2,3,3
		c0.6,0.7,0.4,1.7-0.5,1.9c-0.4,0.1-0.8,0-1.2-0.3c-1-1-2-2-2.9-2.9C12.7,14.3,12.6,14.2,12.5,14.1z"/>
</g>
</svg>
