<svg width="607" height="416" viewBox="0 0 607 416" fill="none" xmlns="http://www.w3.org/2000/svg">
<g clip-path="url(#clip0_1973_506)">
<path d="M134.3 208.5C127.8 211.8 119.7 208.5 113.4 206.3C110.5 205.3 107.5 204.2 104.4 204.6C102.2 204.9 100.2 206 98.7 207.6C94.8 211.9 93.7 218.3 91.9 223.6C90.8 226.8 89.6 230.1 87.6 232.8C86 234.9 84.1 236.8 82.3 238.6C80.5 240.5 78.4 242.3 76 243.4C73.2 244.6 70.2 244.5 67.4 243.4C63.3 241.8 59.9 238.4 56.8 235.4C53 231.8 49.4 228.1 45.6 224.6C42.8 222.1 39.6 219 35.9 218C33.1 217.2 30.6 218.7 30.3 221.7C29.8 225.8 31.8 230.2 33.6 233.8C35.9 238.5 38.9 243 42.6 246.6C46.7 250.6 51.7 253 57.5 252.6C60.1 252.4 62.7 252 65.3 252.2C67.9 252.5 70.4 253.5 72.5 255.1C76.5 258.2 79 262.9 80.5 267.6C81.8 271.6 82.8 276.2 82.1 280.5C81.6 283.9 79.7 288.5 76.1 289.6C74.1 290.2 71.9 289.7 70 288.9C66.9 287.6 64.1 285.5 61.6 283.3C56.3 278.7 51.4 273.4 47.1 267.8C42.9 262.4 39.3 256.6 36.1 250.6C32.7 244.3 30.1 237.6 26.2 231.6C22.9 226.5 18.9 221.4 13.9 217.9C10.7 215.7 6.50001 214.1 3.30001 217.1C0.100007 220.1 -0.0999926 225.1 0.500007 229.2C1.60001 236.1 5.10001 242.6 9.30001 248C16.9 257.9 28.2 264.2 34.8 274.9C38.7 281.1 40.7 288.2 44.3 294.6C47.8 300.8 52.8 306.2 58.6 310.3C62.3 312.9 66.5 314.9 71 313.4C74.5 312.2 77.5 310.1 81.4 311.2C87.1 312.9 91.4 318.1 95 322.5C98.6 327 101.9 331.9 105.9 336.1C109.2 339.4 113.5 342.5 118.4 341.4C121.5 340.7 124 338.6 127.3 338.9C131 339.2 134.5 341.1 137.7 342.8C142.3 345.2 146.7 348.2 151.3 350.7C154.7 352.5 159.3 355.2 163.3 354.4C167.2 353.6 167.6 349.1 167.3 345.9C166.8 340.7 165 335.7 163.3 330.9C161.7 326.1 159.7 321.1 159.3 316C159.1 313.8 159.5 312.1 160.2 310.1C161.2 307.2 162.2 304.3 162.9 301.4C164.2 296.1 165.3 289.9 163 284.7C162.7 284 161.6 284.6 161.9 285.3C164.3 290.9 162.6 297.9 161 303.5C160.2 306.2 159.2 308.7 158.4 311.4C157.8 313.1 157.9 315 158.1 316.8C158.7 321.8 160.6 326.7 162.2 331.5C163.8 336.3 165.7 341.3 166.1 346.4C166.2 348.2 166.2 350.5 165 352C164 353.3 162.3 353.4 160.7 353.2C156 352.5 151.5 349.5 147.4 347.1C142.5 344.2 137.8 341.1 132.5 339C129.6 337.9 126.6 337.1 123.6 338.1C120.7 339 118.1 340.8 114.9 340.3C110.1 339.5 106.4 335.1 103.4 331.5C99.7 327 96.4 322.1 92.4 317.7C89 314 84.5 309.9 79.3 309.5C75.7 309.3 72.9 311.5 69.6 312.4C64.5 313.7 59.5 309.7 55.9 306.6C50.1 301.6 45.8 295.6 42.7 288.7C39.8 282.4 37.4 276 33.2 270.4C29.6 265.7 25.1 261.8 20.7 257.9C15.9 253.7 11.4 249.2 7.90001 243.8C4.40001 238.3 1.20001 231.8 1.50001 225.1C1.60001 221.5 3.40001 216.3 7.90001 216.6C10.1 216.8 12.2 218.1 14 219.4C16.4 221.2 18.6 223.4 20.5 225.7C25 231.1 28.2 237.1 31.2 243.3C34.2 249.5 37.5 255.6 41.3 261.4C45 266.9 49.1 272.2 53.6 277C58.1 281.7 63 286.9 69 289.6C72.4 291.2 76.4 291.7 79.4 289C82.1 286.6 83.4 282.4 83.6 278.9C83.9 274.6 82.9 270.2 81.5 266.1C79.9 261.7 77.5 257.3 73.8 254.3C69.8 251 65.1 250.5 60.1 251C57.4 251.3 54.8 251.4 52.1 250.7C49.1 249.9 46.4 248.1 44.2 246C40.5 242.5 37.5 238.1 35.2 233.5C34.1 231.3 33.1 229 32.4 226.7C31.9 225 31.5 223 31.8 221.3C33.4 213.4 46.8 227.1 48.7 228.9C52.3 232.4 55.9 236.1 59.7 239.4C63 242.3 66.7 245 71.3 245.3C76.5 245.6 80.6 242.2 84 238.6C85.7 236.8 87.6 235 89 233C90.9 230.4 92.1 227.4 93.1 224.4C94.2 221.1 95.1 217.8 96.3 214.5C97.2 212.1 98.3 209.7 100.1 207.9C104.9 203.1 111.6 206.6 116.9 208.4C122.7 210.3 129.4 212.2 135.1 209.3C135.6 209.2 135 208.2 134.3 208.5Z" fill="#EF9C4C"/>
<path d="M98.9 4.80033C102.8 2.60033 107.1 1.30033 111.6 1.30033C115.6 1.30033 119.5 2.40033 123.1 4.20033C130.8 8.10033 136.8 14.9003 141.6 22.0003C146.1 28.7003 149.9 36.2003 152.2 44.0003C155.5 54.9003 157.9 66.4003 165.6 75.3003C169.1 79.3003 173.4 82.3003 178.5 83.8003C183.7 85.3003 189.3 85.5003 194.7 86.0003C195.5 86.1003 195.5 84.8003 194.7 84.7003C189.7 84.2003 184.6 84.0003 179.8 82.8003C175.1 81.6003 170.9 79.1003 167.6 75.6003C159.3 66.7003 156.9 54.7003 153.4 43.5003C151 35.7003 147.3 28.2003 142.7 21.5003C138 14.5003 132.1 7.90033 124.6 3.80033C120.7 1.70033 116.5 0.300331 112 0.200331C107.1 0.100331 102.4 1.50033 98.2 3.90033C97.6 4.10033 98.2 5.10033 98.9 4.80033Z" fill="#EE9B4B"/>
<path d="M375.5 369.201C374.9 368.501 374.7 367.6 374.1 366.9C372.4 365.2 369.1 366.9 369.9 369.3C373.7 379.7 378.5 390 385.6 398.5C386.9 400 389.2 399 389.8 397.4C395.7 379.6 403.1 362.201 412.1 345.701C421.3 328.801 432.1 312.7 444.8 298.4C451.8 290.5 459.4 283.201 467.7 276.701C468.8 275.901 468.6 274.001 467.7 273.201C466.7 272.201 465.2 272.401 464.2 273.201C449.1 285.101 436.2 299.7 425.1 315.4C413.8 331.4 404.3 348.6 396.3 366.5C392 376.2 388.2 386.101 384.9 396.101C386.3 395.701 387.7 395.4 389.1 395C382.6 387.1 378.2 377.5 374.7 368C373.3 368.8 371.9 369.6 370.5 370.4C370.7 370.6 370.8 371 371 371.3C371.3 371.8 371.6 372.201 372 372.701C372.8 373.801 374.7 373.601 375.5 372.701C376.5 371.701 376.3 370.301 375.5 369.201Z" fill="#1A6383"/>
<path d="M463.3 233.401C465.6 235.901 468.7 237.501 472 236.101C475.2 234.701 477.4 231.601 479.1 228.601C480.8 225.601 482.2 222.201 483 218.801C483.9 214.601 483.1 210.301 482.6 206.101C481.9 200.701 480.4 193.901 483 188.801C482.7 188.901 482.4 188.901 482.1 189.001C489 191.901 495.7 195.501 502.9 197.601C510.1 199.701 517.6 199.901 525 198.601C528.4 198.001 531.6 196.901 534.6 195.301C537.7 193.601 540.1 191.301 542.6 188.701C545.1 186.101 547.8 183.301 551.4 182.701C555.1 182.001 558.8 183.901 561.2 186.601C563.7 189.401 565 192.901 564.1 196.601C563.4 199.601 562.2 202.501 562.1 205.701C562 211.001 564.9 215.201 569.1 218.201C573.5 221.401 578.7 223.201 583.7 225.201C588.1 227.001 591.9 229.501 595.2 233.001C601.5 239.901 605.6 249.601 605.5 258.901C605.5 263.001 604.5 267.201 602.1 270.701C599.5 274.301 595.5 276.401 591.2 277.101C584.2 278.301 577.5 276.101 572 272.001C569.1 269.901 566.6 267.301 564.2 264.601C561.8 261.901 559.4 259.101 557.5 256.101C553.4 249.901 551.3 242.801 548 236.201C545 230.301 540.8 224.401 534.2 222.301C531.4 221.401 528.3 221.501 526 223.401C524.4 224.801 523.5 226.701 522.5 228.501C521.7 230.101 520.8 232.001 518.9 232.501C516.4 233.201 513.2 231.601 511.4 229.901C509.3 228.001 507.6 225.601 505.6 223.601C503.9 221.901 501.8 220.301 499.3 220.401C494.3 220.601 494.1 225.801 493.8 229.601C493.6 231.301 493.5 233.801 491.9 234.801C492.2 234.801 492.4 234.901 492.7 234.901C492.2 234.301 491.6 233.701 491.2 233.001C490.8 232.301 489.7 233.001 490.1 233.601C490.6 234.401 491.2 235.101 491.8 235.701C492 235.901 492.3 235.901 492.6 235.801C496.1 233.601 494.8 227.901 495.8 224.501C496.5 222.201 498.6 221.001 501 221.701C503.7 222.501 505.6 225.101 507.4 227.101C509.2 229.101 511 231.401 513.5 232.601C515.6 233.501 518.1 234.401 520.3 233.301C524.1 231.401 524.2 226.101 527.6 223.801C530.7 221.801 534.7 223.301 537.5 225.101C540.6 227.101 543 229.801 544.9 232.901C548.8 239.201 550.9 246.401 554.4 253.001C556.1 256.201 558.2 259.101 560.5 261.901C562.8 264.701 565.2 267.501 567.8 269.901C572.7 274.401 578.5 277.901 585.2 278.601C590.2 279.101 595.8 278.101 599.9 275.001C603.1 272.601 605.2 269.101 606.2 265.201C608.5 256.301 605.7 246.401 601.2 238.801C598.8 234.701 595.7 231.001 591.9 228.101C587.9 225.101 583 223.601 578.4 221.601C573.6 219.501 568.2 216.901 565.3 212.301C563.9 209.901 563.4 207.101 563.7 204.301C564.1 201.101 565.6 198.201 565.9 194.901C566.5 188.401 560.3 181.801 553.9 181.301C546.3 180.801 542.5 188.401 537.2 192.301C531 196.801 523.2 198.301 515.6 198.201C507.9 198.201 500.7 195.701 493.7 192.701C490.1 191.101 486.6 189.501 483 187.901C482.7 187.801 482.3 187.801 482.1 188.101C480 192.201 480.4 197.001 480.9 201.401C481.4 206.201 482.5 211.001 482.3 215.901C482.2 219.001 481 222.101 479.8 224.901C478.4 228.001 476.6 231.301 473.9 233.501C472.7 234.501 471.2 235.401 469.5 235.401C467.4 235.401 465.7 234.001 464.4 232.501C463.6 231.901 462.8 232.801 463.3 233.401Z" fill="#EE9B4B"/>
<path d="M386 141.8C389.4 134.1 393.7 127.6 400.5 122.3C407.5 116.8 416.3 114.7 419 105C422.8 91.1003 399.1 76.9003 387.4 78.4003C387.4 79.8003 386.8 82.0003 387.1 83.5003C386.9 73.5003 372 80.0003 377.7 86.0003C376.8 86.2003 376.8 85.8003 375.8 86.2003C374.5 91.0003 379.4 93.3003 376.6 97.6003C374.4 100.9 368.4 98.2003 367.4 103.8C368.3 104.1 369.3 104.9 370.2 105.2C363.7 115.4 354.7 125.8 370.8 131.3C364.3 140.9 380.9 141.7 384 143.1" fill="#1A6383"/>
<path d="M388.2 143.101C391.5 135.801 395.9 129.001 402.3 124.101C407.8 120.001 414.4 117.501 418.5 111.801C420.4 109.101 421.7 105.701 421.8 102.301C421.9 99.4009 421 96.5009 419.6 94.0009C416.6 88.5009 411.4 84.2009 406 81.1009C400.6 78.0009 393.7 75.2009 387.3 76.0009C385.9 76.2009 384.9 77.0009 384.8 78.5009C384.7 80.5009 384.2 82.3009 384.6 84.2009C385.1 87.0009 389.6 86.3009 389.5 83.5009C389.4 80.8009 388.4 78.0009 385.9 76.7009C383.9 75.6009 381.4 75.6009 379.3 76.4009C377.2 77.2009 375.3 78.6009 374.4 80.6009C373.2 83.2009 374 85.8009 375.8 87.8009C376.4 86.4009 377 85.0009 377.6 83.5009C375.7 83.7009 373.8 83.6009 373.2 85.9009C372.8 87.4009 372.9 89.0009 373.4 90.5009C373.8 91.8009 374.3 92.6009 374.7 93.8009C374.8 94.0009 374.9 94.3009 374.9 94.5009C375 94.8009 375 94.8009 374.9 94.6009C374.9 94.7009 374.9 94.9009 374.9 95.0009C374.9 95.2009 374.9 95.2009 374.9 95.0009C374.9 95.2009 374.8 95.4009 374.8 95.5009C374.7 95.8009 374.7 95.8009 374.5 96.0009C374.1 96.8009 374.7 95.8009 374.3 96.3009C373.9 96.7009 374.5 96.1009 374.1 96.5009C374 96.6009 373.8 96.6009 373.7 96.7009C373.9 96.6009 374 96.6009 373.8 96.7009C373.6 96.8009 373.3 96.9009 373 96.9009C372 97.2009 371 97.3009 370 97.6009C367.3 98.4009 365.3 100.301 364.7 103.101C364.4 104.501 365.1 105.701 366.4 106.201C367.4 106.601 368.2 107.201 369.2 107.601C368.7 106.401 368.2 105.201 367.7 103.901C364.6 108.801 360.2 114.001 359.2 119.901C358.7 122.601 359 125.501 360.7 127.801C362.9 130.901 366.4 132.501 369.9 133.701C369.4 132.501 368.9 131.301 368.4 130.001C367 132.201 366 134.901 366.9 137.501C367.7 139.701 369.6 141.201 371.7 142.201C373.8 143.201 376 143.801 378.2 144.301C379.1 144.501 380 144.701 381 144.901C381.4 145.001 381.8 145.101 382.2 145.201C382.5 145.301 383.5 145.701 382.5 145.301C383.7 145.901 385.2 145.701 385.9 144.401C386.5 143.301 386.2 141.501 385 141.001C381.9 139.601 378.2 139.401 375 138.201C374.8 138.101 374.6 138.101 374.4 138.001C375 138.201 374.1 137.901 374.1 137.801C373.7 137.601 373.3 137.401 373 137.201C372.8 137.101 372.6 137.001 372.5 136.801C373 137.201 372.5 136.801 372.4 136.701C372.2 136.501 372.1 136.401 371.9 136.201C372.3 136.601 372 136.301 371.9 136.201C371.8 136.001 371.6 135.401 371.8 136.101C371.7 135.901 371.7 135.801 371.7 135.601C371.6 135.201 371.6 136.101 371.7 135.501C371.7 135.301 371.7 135.101 371.7 134.901C371.6 135.701 372.1 133.901 371.9 134.301C372.1 133.701 372.5 133.201 372.8 132.601C373.7 131.201 372.7 129.401 371.3 128.901C369.7 128.401 368.2 127.701 366.9 126.801C366.1 126.301 365.3 125.501 364.9 124.901C364.7 124.601 364.6 124.401 364.4 124.101C364.6 124.601 364.3 123.901 364.3 123.901C364.2 123.701 364.2 123.401 364.1 123.201C364 122.601 364.1 123.401 364.1 122.901C364.1 121.601 364.1 121.401 364.4 120.201C365 118.001 366.2 116.001 367.5 113.801C369 111.401 370.6 109.001 372.2 106.601C373.2 105.101 372.1 103.501 370.7 102.901C369.7 102.501 368.9 101.901 367.9 101.501C368.5 102.501 369.1 103.601 369.6 104.601C369.7 104.001 369.8 103.801 370.1 103.301C369.9 103.601 370.3 103.101 370.3 103.101C370.6 102.801 370.2 103.101 370.4 103.001C370.5 103.001 371 102.701 370.8 102.801C370.5 102.901 371.1 102.701 371.1 102.701C371.5 102.601 372 102.501 372.5 102.401C374.5 102.001 376.5 101.501 377.9 100.001C379.7 98.0009 380.2 95.2009 379.4 92.7009C378.8 90.8009 377.6 89.2009 378.1 87.2009C377.5 87.8009 376.9 88.4009 376.4 88.9009C376.9 88.7009 376.9 88.8009 377.6 88.7009C379.7 88.5009 380.9 86.1009 379.4 84.4009C379.3 84.3009 379 83.9009 379.2 84.2009C379.1 84.0009 379 83.9009 378.9 83.7009C378.6 83.2009 379 84.1009 378.9 83.6009C378.9 83.4009 378.8 83.3009 378.8 83.1009C378.9 83.4009 378.8 83.5009 378.8 83.1009C378.8 82.6009 378.7 83.5009 378.8 83.2009C378.9 83.1009 378.9 82.9009 378.9 82.7009C379 82.4009 378.6 83.2009 378.9 82.8009C379 82.7009 379.1 82.5009 379.1 82.4009C379.4 81.9009 378.7 82.8009 379.1 82.4009C379.3 82.2009 379.6 81.9009 379.8 81.7009C379.3 82.1009 380.1 81.6009 380.2 81.4009C380.4 81.3009 380.5 81.2009 380.7 81.2009C380.9 81.1009 380.2 81.3009 380.8 81.2009C381.1 81.1009 381.4 81.0009 381.8 80.9009C382 80.9009 382.5 80.8009 381.8 80.9009C382 80.9009 382.1 80.9009 382.3 80.9009C382.5 80.9009 382.6 80.9009 382.8 80.9009C383.3 80.9009 382.3 80.8009 382.8 80.9009C382.9 80.9009 383.1 81.0009 383.2 81.0009C383.7 81.1009 383.1 80.9009 383.2 81.0009C383.3 81.1009 383.4 81.1009 383.6 81.2009C384 81.4009 383.3 80.9009 383.6 81.2009C383.7 81.3009 383.8 81.4009 384 81.6009C383.6 81.1009 384 81.6009 384 81.7009C384 81.8009 384.3 82.4009 384.1 81.8009C384.2 82.0009 384.2 82.2009 384.3 82.4009C384.3 82.5009 384.4 83.1009 384.4 82.8009C384.4 82.6009 384.4 83.4009 384.4 83.5009C386 83.3009 387.7 83.1009 389.3 82.8009C389.1 81.4009 389.6 79.8009 389.7 78.4009C388.9 79.2009 388 80.1009 387.2 80.9009C392.1 80.3009 397.1 82.1009 401.5 84.3009C406.5 86.8009 411.4 90.5009 414.4 95.0009C415.1 96.1009 415.7 97.2009 416 98.1009C416.2 98.7009 416.4 99.2009 416.5 99.8009C416.6 100.101 416.6 100.401 416.7 100.701C416.6 100.301 416.7 101.101 416.7 101.301C416.8 102.801 416.7 103.401 416.3 104.701C415.9 106.201 415.2 107.601 414.3 108.901C410.8 113.901 404.4 116.101 399.7 119.701C392.5 125.101 387.5 132.401 383.8 140.501C383.2 141.701 383.4 143.201 384.7 143.901C385.9 144.601 387.6 144.301 388.2 143.101Z" fill="#1A6383"/>
<path d="M359.5 113.599C360.3 114.499 361 115.599 361.8 116.499C362.7 117.499 363.8 118.299 365.1 118.799C366.3 119.199 367.6 119.199 368.8 118.999C369.9 118.799 371.1 118.499 372 117.699C373.2 116.599 371.4 114.799 370.2 115.899C370 116.099 370.4 115.799 370.1 115.999C370 115.999 369.9 116.099 369.9 116.099C369.8 116.099 369.8 116.199 369.7 116.199C369.8 116.199 369.8 116.199 369.7 116.199C369.6 116.199 369.5 116.299 369.4 116.299C369.2 116.399 368.9 116.399 368.7 116.499C368.4 116.599 368.3 116.599 368.1 116.599C367.6 116.599 367.1 116.699 366.6 116.599C366.6 116.599 366.2 116.599 366.4 116.599C366.5 116.599 366.2 116.599 366.2 116.499C366 116.499 365.8 116.399 365.6 116.299C363.6 115.499 362.6 113.399 361.3 111.799C360.9 111.299 360 111.299 359.5 111.799C359 112.399 359.1 113.099 359.5 113.599Z" fill="white"/>
<path d="M365 107.9C367.9 104.4 374 106.7 376.5 109.6C378.2 111.6 379.2 114.2 379.9 116.8C380.3 118.4 381 120.2 382.8 120.4C386.1 120.9 387.1 116.7 387.5 114.2C387.7 112.7 387.8 111.1 387.8 109.5C387.8 107.1 387.2 104.9 386.7 102.6C386.4 101 386.2 99.2997 386.7 97.6997C387.2 96.2997 388.2 94.8997 389.2 93.7997C391.6 91.3997 395.3 90.8997 398.4 89.9997C399.2 89.7997 398.8 88.5997 398.1 88.7997C395.4 89.5997 392.3 90.0997 389.9 91.5997C388 92.7997 386.4 94.8997 385.6 96.9997C384.6 99.4997 385.3 102.2 385.8 104.7C386.3 106.8 386.5 108.7 386.4 110.8C386.4 112.7 386.2 120 382.7 119C381.7 118.7 381.4 117.5 381.1 116.6C380.8 115.6 380.6 114.6 380.2 113.6C379.3 111.3 378.1 109 376.1 107.4C372.9 104.9 367.1 103.3 364.1 106.9C363.6 107.6 364.5 108.5 365 107.9Z" fill="white"/>
<path d="M372.4 89.0988C373.2 89.0988 373.2 87.7988 372.4 87.7988C371.6 87.8988 371.6 89.0988 372.4 89.0988Z" fill="white"/>
<path d="M372.7 83.3995C374.3 85.5995 377.5 84.8995 379.6 83.8995C381.3 83.0995 385.2 80.8995 383.7 78.3995C383.1 77.4995 381.9 77.5995 381.1 78.1995C380.3 78.7995 380.1 79.8995 380.2 80.8995C380.6 83.4995 382.4 85.6995 384.7 86.7995C386.6 87.6995 388.7 88.0995 390.8 88.3995C391.9 88.5995 392.9 88.6995 394 88.5995C395.2 88.4995 396.3 88.0995 397.5 87.8995C398.3 87.6995 398 86.4995 397.2 86.6995C395.4 87.0995 393.8 87.4995 391.9 87.2995C390.3 87.0995 388.6 86.8995 387 86.3995C384.5 85.5995 382.6 84.1995 381.7 81.5995C381.5 81.0995 381.4 80.5995 381.5 80.0995C381.5 79.7995 382.1 78.5995 382.7 79.0995C383 79.3995 382.6 80.2995 382.5 80.4995C382.1 81.1995 381.2 81.6995 380.6 82.0995C379 83.0995 375.4 84.7995 373.9 82.8995C373.3 82.1995 372.2 82.7995 372.7 83.3995Z" fill="white"/>
<path d="M392.7 110.699C392.9 110.299 393.1 109.799 393.6 109.899C394.2 109.999 394.7 110.599 395 110.999C395.7 112.099 395.6 113.599 395.2 114.799C394.7 115.999 393.8 117.099 392.8 117.899C392 118.499 391 119.199 390.1 119.599C389.7 119.799 389.2 119.899 388.8 119.999C388.6 119.999 388.4 119.999 388.2 119.999C388.2 120.099 388.2 119.899 388.2 119.899C388.3 119.099 387 119.099 386.9 119.899C386.8 121.399 388.5 121.399 389.5 121.099C390.8 120.799 392 120.099 393 119.199C394.4 118.199 395.6 116.799 396.2 115.199C396.8 113.599 396.7 111.499 395.6 110.099C395.1 109.399 394.3 108.799 393.4 108.699C392.5 108.699 391.8 109.299 391.4 110.199C391.3 110.799 392.4 111.399 392.7 110.699Z" fill="white"/>
<path d="M389.4 117C390 117 390.6 116.9 391.2 116.6C391.7 116.3 392.1 115.8 392.2 115.2C392.3 114.8 392.3 114.4 392.2 114C392.2 113.9 392 113.7 391.9 113.6C391.8 113.5 391.6 113.5 391.4 113.5C391.1 113.6 390.9 113.9 391 114.3V114.4C391 114.3 391 114.3 391 114.2C391 114.4 391 114.6 391 114.8C391 114.7 391 114.7 391 114.6C391 114.7 391 114.8 390.9 114.9C390.9 114.9 390.8 115.1 390.9 115C391 114.9 390.9 115 390.9 115C390.9 115 390.9 115.1 390.8 115.1C390.8 115.1 390.8 115.1 390.8 115.2C390.9 115 390.9 115.1 390.8 115.1C390.7 115.2 390.7 115.2 390.6 115.3C390.5 115.4 390.7 115.3 390.7 115.3C390.7 115.3 390.7 115.3 390.6 115.3L390.5 115.4C390.5 115.4 390.4 115.4 390.4 115.5C390.4 115.5 390.4 115.5 390.3 115.5C390.2 115.5 390.5 115.4 390.4 115.5C390.2 115.6 390 115.6 389.8 115.6C389.9 115.6 389.9 115.6 390 115.6C389.8 115.6 389.6 115.6 389.4 115.6C389.1 115.6 388.8 115.9 388.8 116.2C388.8 116.7 389.1 117 389.4 117Z" fill="white"/>
<path d="M316.9 197L349.9 223L362 257.1L287.9 312L273.9 392C273.9 392 259.9 402 246.9 388L247.9 305C247.9 305 238.6 257.3 299.2 229.8L227.6 228.5L165.3 260.9C165.3 260.9 146.4 252.1 154.3 239.1L205.6 206.1C205.6 206.1 217.2 195.7 263.2 192.2L288.8 189.9" fill="#1A6383"/>
<path d="M155.8 240.4C155.7 240.4 155.5 240.5 155.4 240.5C156 240.3 155.8 240.5 155.6 240.5C155.3 240.5 155.1 240.5 154.8 240.5C154.5 240.5 154.2 240.5 154 240.5C153.8 240.5 153.6 240.5 153.5 240.4C153.9 240.4 153.8 240.4 153.4 240.4C152 240.1 150.7 239.8 149.3 239.3C146.4 238.3 143.6 237 140.7 235.9C136 234.1 128.8 231.5 125.4 236.9C123.5 239.9 123.8 243.8 124.2 247.1C124.8 251.9 126.3 256.4 129.5 260.2C131 261.9 132.8 263.4 134.6 264.6C136.4 265.8 138.4 266.6 140.1 267.8C143.3 270.1 146.4 273.6 150 275.7C152 276.9 154.3 277.7 156.6 277.1C159.2 276.5 161 274.3 162.1 272C163.2 269.6 163.6 267.5 165.1 265.4C167 262.8 169.3 260.8 170.4 257.7C170.9 256.4 169.9 255 168.7 254.6C167.3 254.2 166.1 255.1 165.6 256.3C164.8 258.3 163 260 161.7 261.6C160.2 263.5 159.3 265.5 158.4 267.8C157.9 269.2 157.2 271.1 156.2 271.8C155.5 272.3 155.4 272.2 154.7 272.2C155.2 272.2 154.4 272.1 154.2 272.1C153.7 272 153.7 272 153.1 271.6C149.7 269.8 147.1 266.8 144.1 264.4C141.1 262 137.3 260.7 134.5 258.1C131.7 255.4 130.2 252 129.4 248.2C129 246.3 128.8 244.4 128.9 242.5C128.9 242.1 128.9 241.8 129 241.4C128.9 242 129.1 241.1 129.1 240.9C129.2 240.6 129.2 240.4 129.3 240.1C129.3 240.1 129.5 239.5 129.4 239.9C129.2 240.3 129.5 239.8 129.5 239.7C129.6 239.5 129.7 239.3 129.9 239.1C129.4 239.8 130 239.1 130.1 239C130.3 238.7 129.6 239.2 130.1 239C130.2 239 130.3 238.9 130.4 238.8C130.8 238.5 130.1 238.9 130.3 238.8C130.5 238.8 130.7 238.7 130.9 238.6C131.5 238.4 130.4 238.6 131.1 238.6C131.6 238.6 132.2 238.6 132.7 238.6C133.1 238.6 132.3 238.5 132.9 238.6C133.2 238.7 133.5 238.7 133.8 238.8C134.4 238.9 135.1 239.1 135.7 239.3C137 239.7 138.3 240.2 139.5 240.7C142.5 241.9 145.4 243.2 148.5 244.2C151.2 245.1 154.2 245.8 157.1 245.1C160.2 244.5 158.9 239.7 155.8 240.4Z" fill="#1A6383"/>
<path d="M247.4 385.799C243.3 389.499 240.7 394.999 240.6 400.599C240.5 406.399 243.7 411.799 249.1 414.099C258.8 418.399 273.7 415.499 275.1 403.199C275.5 399.999 274.8 396.499 274 393.399C273.1 390.099 271.7 386.399 269.1 383.999C266.7 381.899 263.2 385.399 265.6 387.499C267.3 388.999 268.2 391.299 268.9 393.499C269.7 395.899 270.2 398.299 270.3 400.699C270.4 402.899 270.1 404.699 268.9 406.399C268.5 406.999 267.9 407.699 267.1 408.299C267.4 407.999 266.8 408.499 266.8 408.499C266.7 408.599 266.5 408.699 266.4 408.799C265.9 409.099 265.3 409.399 264.8 409.699C263.3 410.399 261 410.799 259.2 410.899C256.9 410.999 255.2 410.799 253 410.099C251.1 409.499 249.2 408.499 247.8 406.699C246.8 405.399 246.1 403.399 245.9 401.799C245.5 397.099 247.6 392.399 251.2 389.199C253.3 387.099 249.8 383.599 247.4 385.799Z" fill="#1A6383"/>
<path d="M280.2 194.1C281.7 199.9 289.8 202.4 295.1 202.3Z" fill="white"/>
<path d="M277.8 194.8C279.7 201.9 288.5 205 295.1 204.8C296.4 204.8 297.7 203.7 297.6 202.3C297.5 201 296.5 199.8 295.1 199.8C294.4 199.8 293.8 199.8 293.1 199.7C292.9 199.7 292.8 199.7 292.6 199.7C292.4 199.7 291.9 199.7 292.6 199.7C292.3 199.7 291.9 199.6 291.5 199.5C290.8 199.4 290 199.2 289.3 199C288.9 198.9 288.6 198.8 288.2 198.6C288 198.5 287.8 198.5 287.7 198.4C288.3 198.6 287.7 198.4 287.6 198.4C286.9 198.1 286.3 197.7 285.6 197.3C285.4 197.2 285.3 197.1 285.1 197C285 196.9 284.5 196.6 285 197C284.7 196.8 284.5 196.5 284.2 196.3C283.9 196.1 283.7 195.8 283.5 195.5C283.2 195.2 283.6 195.8 283.5 195.5C283.4 195.3 283.3 195.2 283.2 195.1C283 194.8 282.9 194.5 282.7 194.2C282.6 194 282.8 194.7 282.7 194.1C282.6 193.9 282.6 193.7 282.5 193.5C282.2 192.2 280.7 191.3 279.4 191.8C278.2 192.1 277.4 193.4 277.8 194.8Z" fill="white"/>
<path d="M283.4 187.4C282.9 187.2 282.4 187 281.8 186.7C282.4 187 282.4 187 281.9 186.7C279.6 185.5 276.4 186 275.1 188.5C273.8 191 274.5 193.8 276.9 195.3C282.5 198.9 287.7 204.3 294.6 205.6C302.5 207 309.5 201.7 313.9 195.6C315.1 194 314.6 191.5 313.5 190C312.2 188.4 310.2 187.7 308.2 188.2C308 188.3 306.2 188.6 307.4 188.4C307 188.5 306.5 188.5 306.1 188.5C305.1 188.6 304 188.5 303 188.5C302 188.4 300.9 188.3 299.9 188.2C299.3 188.1 299.3 188.1 299.9 188.2C299.6 188.2 299.3 188.1 299 188.1C298.5 188 297.9 187.9 297.4 187.9C296.3 187.7 295.2 187.6 294 187.3C293.4 187.2 292.9 187.1 292.3 186.9C292 186.8 291.7 186.7 291.3 186.7C290.8 186.5 290.8 186.5 291.1 186.7C291.4 186.9 291.4 186.8 291 186.6C290.8 186.5 290.6 186.4 290.3 186.2C289.9 186 289.6 185.7 289.2 185.5C288.2 184.9 287 184.3 285.9 184C283.4 183.2 280.3 184.9 279.7 187.5C279.1 190.2 280.5 192.8 283.2 193.7C283.7 193.9 283.7 193.8 283 193.6C283.2 193.7 283.4 193.8 283.6 193.9C284 194.1 284.4 194.4 284.9 194.7C285.9 195.3 287 195.9 288.2 196.2C290.6 197 293.1 197.2 295.6 197.6C300.7 198.3 305.7 199 310.8 197.8C308.9 195.4 307 192.9 305.2 190.5C304.5 191.4 305.9 189.6 305.2 190.5C305 190.7 304.8 190.9 304.6 191.2C304.2 191.7 303.7 192.2 303.2 192.6C302.9 192.9 302.6 193.1 302.4 193.4C302.3 193.5 301.4 194.2 302 193.7C302.6 193.3 301.7 193.9 301.6 194C301.3 194.2 301 194.4 300.6 194.6C300.3 194.8 299.9 195 299.6 195.1C299.4 195.2 298.5 195.5 299.2 195.3C299.9 195.1 298.9 195.4 298.8 195.4C298.5 195.5 298.1 195.6 297.7 195.7C296.8 195.9 298.4 195.7 297.8 195.7C297.5 195.7 297.1 195.7 296.7 195.7C296.1 195.7 297.7 195.9 296.8 195.7C296.4 195.6 296.1 195.5 295.7 195.4C295.4 195.3 295.1 195.2 294.8 195.1C294.2 194.9 294.2 195 294.8 195.1C294.1 195 293.3 194.4 292.7 194C291.4 193.3 290.1 192.4 288.9 191.5C286.5 189.8 284.3 188 281.9 186.4C280.2 189.3 278.5 192.2 276.9 195C277.3 195.2 279.8 196.3 278.3 195.6C279.6 196.1 280.7 196.5 282.2 196.1C283.4 195.8 284.6 194.9 285.2 193.8C286.4 192.1 286 188.5 283.4 187.4Z" fill="white"/>
<path d="M356.6 223.799C353.9 222.899 351.1 224.399 349.7 226.799C348.9 228.199 348.5 229.799 348.1 231.299C347.3 234.799 346.2 238.399 347.4 241.899C350.1 250.099 358.2 254.099 364 259.799C365.9 261.599 369.2 261.799 371.1 259.799C372.9 257.799 373.1 254.699 371.1 252.699C368.8 250.499 366.3 248.599 363.8 246.499C362.5 245.499 361.3 244.399 360.2 243.299C359.7 242.799 359.2 242.199 358.6 241.599C357.9 240.799 359.1 242.299 358.4 241.399C358.2 241.099 358 240.799 357.8 240.399C357.6 239.999 357.4 239.699 357.2 239.299C356.6 238.199 357.4 240.199 357.1 239.099C357 238.899 357 238.299 356.8 238.099C356.9 238.799 356.9 238.999 356.9 238.599C356.9 238.399 356.9 238.299 356.9 238.099C356.9 237.899 356.9 237.799 356.9 237.599C356.9 237.199 356.9 237.399 356.8 237.999C356.9 237.899 357 236.999 357 236.899C357.1 236.399 357.3 235.899 357.4 235.399C357.6 234.399 357.8 233.399 358.1 232.499C358.2 232.199 358.3 231.899 358.4 231.599C358.7 230.599 358 232.299 358.3 231.899C358.5 231.699 358.9 231.099 358.3 231.799C357.3 232.899 355.6 233.799 354 233.199C356.5 233.999 359.6 232.299 360.2 229.699C360.8 227.199 359.3 224.699 356.6 223.799Z" fill="white"/>
<path d="M405.5 186.5C399.2 192.5 394.6 200.4 391.4 208.5C389 214.7 387.9 221.4 386.9 227.9C386.4 230.9 385.9 234 385.9 237C385.9 240.2 390.9 240.2 390.9 237C390.9 234.7 391.3 232.4 391.6 230.3C392.1 227.1 392.6 223.8 393.3 220.6C394.7 213.5 397.1 206.9 400.8 200.7C403.1 196.8 405.8 193.1 409.1 190C411.4 187.8 407.9 184.3 405.5 186.5Z" fill="#EE9B4B"/>
<path d="M370.2 165.401C371.7 173.001 373 180.701 372.1 188.401C371.3 195.001 368.4 202.101 364.2 207.001C356.8 215.501 345.5 221.301 343.2 233.201C342.5 236.601 342.4 240.301 343.4 243.701C344.3 246.801 346.2 249.401 348.7 251.401C351.3 253.501 353.9 255.401 356.2 257.901C358.8 260.701 360.8 263.901 362.5 267.301C364.9 272.401 366.2 281.001 372.9 282.301C380.3 283.801 384.4 276.001 386.7 270.201C388.6 265.201 389.3 260.101 389.9 254.901C390.5 248.901 390.9 243.001 391.2 237.001C391.2 236.001 391.3 235.001 391.3 234.001C391.4 230.801 386.4 230.801 386.3 234.001C386.1 239.201 385.8 244.301 385.4 249.401C385 254.701 384.7 259.601 383.4 264.601C382.7 267.201 381.7 269.801 380.5 272.101C379.9 273.301 379.1 274.601 378.2 275.601C377.4 276.501 376.6 277.101 375.6 277.401C374.8 277.601 373.8 277.501 373 276.901C373 276.901 372.8 276.801 372.6 276.601C372.4 276.401 372.1 276.101 372.1 276.001C371.8 275.601 371.4 274.901 371.1 274.301C369.7 271.601 368.8 268.601 367.6 265.801C366 262.301 364 259.001 361.5 256.001C359.3 253.301 356.6 251.001 353.8 248.901C351.8 247.401 349.7 245.701 348.7 243.401C347.6 240.801 347.6 237.501 348.1 234.901C349 229.601 352.1 225.501 355.9 221.801C359.7 218.101 364.1 214.801 367.6 210.801C372.2 205.601 375.3 199.001 376.7 192.201C378.1 184.801 377.5 177.401 376.3 170.001C376 168.001 375.6 166.001 375.2 164.001C374.9 162.701 373.4 161.901 372.1 162.301C370.5 162.701 369.9 164.001 370.2 165.401Z" fill="#EE9B4B"/>
<path d="M210.2 52.8987C210.4 52.1987 210.5 51.7987 211 51.0987C211.3 50.6987 210.9 51.1987 211.2 50.7987C211.3 50.6987 212 50.0987 211.6 50.3987C211.8 50.2987 212 50.0987 212.2 49.9987C212.5 49.8987 212.5 49.8987 212.2 49.9987C212.3 49.8987 212.5 49.8987 212.6 49.7987C212.9 49.6987 213.2 49.5987 213.5 49.5987C214 49.4987 213.2 49.5987 213.8 49.5987C216.2 49.4987 218.2 50.0987 220.3 51.3987C220.9 51.7987 221.1 51.8987 221.4 52.1987C222 52.6987 222.5 53.2987 223 53.8987C224.5 55.4987 225.8 57.2987 227.4 58.8987C230.2 61.7987 233.3 64.0987 235 67.7987C235.9 66.5987 236.9 65.3987 237.8 64.0987C231.8 62.9987 227.6 67.9987 224.8 72.5987C226.2 72.5987 227.7 72.5987 229.1 72.5987C226.5 67.4987 223.6 62.6987 220 58.2987C219.1 57.1987 218.2 56.0987 217.2 55.0987C216.7 54.5987 216.2 54.0987 215.7 53.5987C215.5 53.3987 215.3 53.1987 215.1 52.9987C214.9 52.8987 214.8 52.6987 214.6 52.5987C214.4 52.3987 214.4 52.3987 214.5 52.5987C214.7 52.6987 214.4 52.2987 214.5 52.6987C214.4 52.4987 214.3 52.2987 214.3 52.0987C214.1 51.4987 213.9 50.9987 213.7 50.3987C213.2 49.2987 212.4 48.2987 211.3 47.6987C211.1 49.1987 210.9 50.6987 210.7 52.2987C212.3 51.7987 213.6 51.7987 215.1 52.3987C215.5 52.5987 216.5 53.0987 217.1 53.5987C217.7 53.9987 218.5 54.6987 219.1 55.2987C221.8 57.9987 224 61.0987 226.6 63.8987C227.8 62.6987 229 61.4987 230.1 60.3987C229.4 59.6987 228.6 58.8987 227.9 58.1987C226.7 59.3987 225.5 60.5987 224.4 61.6987C225.1 62.3987 225.9 63.1987 226.6 63.8987C227.8 62.6987 229 61.4987 230.1 60.3987C226.7 56.9987 223.4 53.1987 219.3 50.6987C218.4 50.0987 217.3 49.5987 216.1 49.5987C214.3 49.6987 213.1 51.1987 213.1 52.9987C213.1 54.6987 214.4 56.2987 215.4 57.4987C216.4 58.5987 217.5 59.5987 218.7 60.6987C221.8 63.4987 223.3 67.7987 227.1 69.8987C229.1 70.9987 231.2 69.1987 230.8 67.0987C230.3 64.2987 228.2 62.3987 226.3 60.3987C224.2 58.1987 222.7 55.6987 220.4 53.6987C218.7 52.1987 215.4 53.5987 216.2 56.0987C217.3 59.1987 219.3 61.5987 221.3 64.0987C222 65.0987 222.9 65.9987 223.5 66.9987C223.8 67.4987 224.2 67.9987 224.4 68.4987C224.6 68.9987 224.6 69.0987 224.5 69.4987C223.6 72.5987 228.3 73.8987 229.3 70.7987C229.7 69.4987 230 68.1987 230.4 66.8987C230.5 66.6987 230.5 66.5987 230.6 66.3987C230.4 66.7987 230.7 66.2987 230.7 66.1987C230.8 65.9987 231.2 65.2987 231 65.6987C231.1 65.5987 231.1 65.4987 231.2 65.4987C231.3 65.3987 231.3 65.3987 231.2 65.4987C231.2 65.4987 231.3 65.4987 231 65.5987C231.3 65.4987 231 65.5987 230.9 65.5987C230.4 65.6987 231 65.6987 230.7 65.5987C231.1 63.9987 231.5 62.4987 232 60.8987C230.1 60.9987 228.8 62.2987 228.4 64.0987C228.4 64.2987 228.3 64.4987 228.3 64.7987C228.2 65.2987 228 65.2987 228.4 64.8987C229 64.1987 229.9 63.7987 230.9 63.9987C231.1 64.0987 230.9 63.8987 231.1 64.0987C230.8 63.6987 230.3 63.2987 230 62.8987C229.1 61.8987 227.4 61.9987 226.5 62.8987C225.5 63.8987 225.6 65.3987 226.5 66.3987C228 68.0987 230.6 70.0987 232.5 67.6987C233 67.0987 233.1 66.3987 233.2 65.6987C233.2 65.3987 233.3 65.1987 233.4 64.8987C233.4 65.2987 232.7 65.7987 232 65.8987C234.3 65.7987 235.6 62.3987 233.3 61.1987C230.6 59.8987 228 60.8987 226.7 63.4987C225.7 65.3987 225.4 67.3987 224.8 69.3987C226.4 69.7987 228 70.2987 229.6 70.6987C230.6 67.4987 228.2 64.4987 226.3 62.1987C224.6 59.9987 222.1 57.4987 221.2 54.6987C219.8 55.4987 218.4 56.2987 217 57.0987C219.1 58.8987 220.5 61.2987 222.4 63.2987C223.8 64.7987 225.7 66.0987 226.1 68.2987C227.3 67.3987 228.5 66.3987 229.8 65.4987C226.9 63.8987 225.7 60.2987 223.4 57.9987C222.6 57.1987 221.8 56.5987 221 55.7987C220.5 55.3987 220.1 54.8987 219.6 54.3987C219.3 54.0987 219.1 53.8987 218.9 53.5987C218.8 53.4987 218.7 53.3987 218.7 53.2987C218.5 53.0987 218.8 53.4987 218.6 53.0987C218.5 52.8987 218.3 52.6987 218.2 52.4987C218 52.1987 218.2 52.8987 218.2 52.5987C218.2 52.2987 218.2 52.8987 218.2 52.8987C218.3 52.4987 218.2 53.0987 218.2 53.0987C218 53.4987 217.7 53.9987 217.3 54.1987C216.8 54.4987 216.4 54.4987 216 54.3987C216.1 54.3987 216.3 54.4987 216.4 54.4987C216.4 54.4987 216 54.1987 216.4 54.4987C216.8 54.7987 217.2 54.9987 217.6 55.2987C217.8 55.3987 218 55.5987 218.2 55.6987C218.5 55.8987 217.9 55.4987 218.2 55.6987C218.3 55.7987 218.4 55.7987 218.5 55.8987C219 56.2987 219.5 56.6987 220 57.1987C220.9 57.9987 221.9 58.8987 222.8 59.7987C224.2 61.0987 225.5 62.4987 226.8 63.7987C229.1 66.0987 232.6 62.5987 230.3 60.2987C229.6 59.5987 228.8 58.7987 228.1 58.0987C225.8 55.7987 222.3 59.2987 224.6 61.5987C225.3 62.2987 226.1 63.0987 226.8 63.7987C229.1 66.0987 232.6 62.5987 230.3 60.2987C224.8 54.4987 219.1 44.3987 209.6 47.4987C207.6 48.0987 207.1 50.9987 209 52.0987C209.1 52.1987 209.3 52.3987 209.2 52.1987C209.2 52.1987 209.4 52.5987 209.5 52.6987C209.6 52.9987 209.7 53.1987 209.8 53.5987C210.1 54.5987 210.5 55.4987 211.2 56.2987C212.1 57.2987 213.2 58.0987 214.1 59.0987C215 60.0987 215.9 61.0987 216.8 62.0987C220.1 66.1987 222.8 70.7987 225.1 75.3987C226 77.0987 228.5 76.8987 229.4 75.3987C230.9 72.9987 233.6 68.6987 236.8 69.1987C239 69.5987 240.6 67.5987 239.6 65.4987C238.1 62.1987 235.5 59.4987 232.8 57.0987C230.1 54.5987 228.1 51.5987 225.4 49.0987C221.9 45.8987 216.1 43.6987 211.3 45.2987C208.3 46.2987 206.3 48.6987 205.4 51.7987C204.5 54.6987 209.3 55.9987 210.2 52.8987Z" fill="#1A6383"/>
<path d="M237.2 61.8004C237.1 61.7004 236.9 61.5004 237.1 61.8004C237.3 62.1004 237.1 61.8004 237 61.7004C236.9 61.6004 236.8 61.5004 236.8 61.5004C236.7 61.4004 236.4 61.1004 236.7 61.4004C237 61.7004 236.6 61.3004 236.6 61.2004C236.5 61.1004 236.5 61.0004 236.4 60.9004C236.3 60.7004 236.1 60.4004 236 60.2004C235.7 59.7004 235.5 59.1004 235.2 58.5004C235 58.1004 235.3 58.8004 235.2 58.5004C235.2 58.4004 235.1 58.3004 235.1 58.1004C235 57.8004 234.9 57.5004 234.8 57.3004C234.3 56.0004 233.7 54.7004 233.1 53.4004C233.1 53.3004 232.9 53.0004 233 53.3004C232.9 53.1004 232.8 52.9004 232.8 52.7004C232.7 52.3004 232.5 52.0004 232.4 51.6004C232.1 50.8004 231.9 49.9004 231.8 49.1004C231.6 47.8004 229.9 47.0004 228.7 47.4004C227.3 47.9004 226.7 49.1004 227 50.5004C227.3 52.4004 228 54.1004 228.7 55.8004C229 56.6004 229.4 57.3004 229.7 58.1004C229.9 58.6004 229.7 58.1004 229.7 58.1004L229.8 58.4004C229.9 58.7004 230 59.0004 230.2 59.3004C231.2 61.9004 232.4 64.9004 234.9 66.4004C236 67.1004 237.7 66.7004 238.3 65.5004C238.7 64.0004 238.4 62.5004 237.2 61.8004Z" fill="#1A6383"/>
<path d="M225.6 56.9004C228.8 56.9004 228.8 51.9004 225.6 51.9004C222.4 51.9004 222.4 56.9004 225.6 56.9004Z" fill="#1A6383"/>
<path d="M225.7 56.9004C225.8 56.9004 225.8 56.9004 225.9 56.9004C226.2 56.9004 226.6 56.8004 226.9 56.7004C227.2 56.6004 227.5 56.4004 227.7 56.2004C227.9 56.0004 228.1 55.7004 228.2 55.4004C228.4 55.1004 228.4 54.8004 228.4 54.4004C228.4 54.2004 228.3 54.0004 228.3 53.7004C228.2 53.3004 228 52.9004 227.7 52.6004C227.5 52.5004 227.4 52.3004 227.2 52.2004C226.8 52.0004 226.4 51.9004 225.9 51.9004C225.8 51.9004 225.8 51.9004 225.7 51.9004C225.4 51.9004 225 52.0004 224.7 52.1004C224.4 52.2004 224.1 52.4004 223.9 52.6004C223.7 52.8004 223.5 53.1004 223.4 53.4004C223.2 53.7004 223.2 54.0004 223.2 54.4004C223.2 54.6004 223.3 54.8004 223.3 55.1004C223.4 55.5004 223.6 55.9004 223.9 56.2004C224.1 56.3004 224.2 56.5004 224.4 56.6004C224.9 56.8004 225.3 56.9004 225.7 56.9004Z" fill="#1A6383"/>
<path d="M206.6 48.2998C210.9 51.5998 214.9 55.2998 219.1 58.6998C220.9 60.1998 222.8 61.5998 224.6 63.0998C225.9 64.1998 227.3 65.6998 229 66.2998C230.3 66.6998 231.7 65.7998 232.1 64.5998C232.5 63.1998 231.6 61.9998 230.4 61.4998C231.2 61.7998 230.5 61.4998 230.2 61.2998C230.5 61.4998 229.7 60.8998 229.5 60.7998C228.8 60.2998 228.2 59.6998 227.5 59.1998C225.6 57.5998 223.6 56.0998 221.7 54.4998C217.5 50.9998 213.5 47.2998 209.1 44.0998C208 43.2998 206.3 43.8998 205.7 44.9998C204.9 46.1998 205.5 47.4998 206.6 48.2998Z" fill="#1A6383"/>
<path d="M205.4 46.9995C209.2 50.8995 214.2 53.2995 218.4 56.6995C219.5 57.4995 220.9 57.6995 221.9 56.6995C222.8 55.7995 222.9 54.0995 221.9 53.1995C219.5 50.9995 217 48.9995 214.3 47.0995C212.3 45.6995 209.8 44.7995 208.2 42.8995C207.4 44.2995 206.6 45.6995 205.8 47.0995C207.3 47.5995 209.1 48.9995 210.7 49.9995C212.5 51.0995 214.6 52.0995 216.8 51.9995C218.5 51.9995 219.6 50.3995 219.2 48.7995C218.8 47.1995 217.6 45.9995 216.4 44.9995C215.1 43.8995 214.1 42.5995 213 41.2995C212 42.5995 211 43.8995 210 45.1995C213.8 46.8995 217.3 49.2995 220.7 51.6995C222.2 52.6995 223.4 53.9995 224.8 55.1995C226.3 56.3995 227.9 57.3995 229.1 58.7995C229.9 57.3995 230.7 55.9995 231.5 54.5995C230.2 54.3995 229.1 53.8995 227.8 53.4995C224.7 52.4995 223.4 57.2995 226.5 58.2995C227.7 58.6995 228.9 59.1995 230.2 59.3995C232.7 59.8995 234.3 57.1995 232.6 55.1995C231.3 53.6995 229.6 52.6995 228.1 51.3995C226.5 50.1995 225.1 48.6995 223.5 47.5995C220.1 45.0995 216.4 42.5995 212.5 40.8995C209.9 39.7995 207.6 42.5995 209.5 44.7995C210.5 45.8995 211.3 47.1995 212.4 48.0995C212.8 48.4995 213.3 48.7995 213.8 49.1995C214 49.3995 214.2 49.6995 214.5 49.8995C214.4 49.7995 214.4 49.5995 214.5 50.0995C215.3 48.9995 216.1 47.9995 216.9 46.8995C215.4 46.8995 213.8 45.8995 212.4 44.9995C210.7 43.8995 209.1 42.7995 207.2 42.1995C204.7 41.3995 203.2 44.5995 204.8 46.3995C206.6 48.3995 209.1 49.4995 211.3 50.9995C213.8 52.6995 216.2 54.6995 218.4 56.6995C219.6 55.4995 220.8 54.2995 221.9 53.1995C217.7 49.8995 212.7 47.3995 208.9 43.4995C206.7 41.1995 203.2 44.6995 205.4 46.9995Z" fill="#1A6383"/>
<path d="M221.6 51.4998C221.5 51.4998 221.3 51.3998 221.2 51.3998C221.4 51.4998 221.6 51.5998 221.8 51.6998C221.3 51.4998 220.9 51.1998 220.4 50.8998C220.6 50.9998 220.7 51.1998 220.9 51.2998C219.9 50.4998 219 49.5998 217.9 48.8998C216.7 48.1998 215.3 47.6998 214 47.1998C212.8 46.7998 211.2 47.6998 210.9 48.8998C210.6 50.2998 211.3 51.4998 212.6 51.9998C213.2 52.1998 213.8 52.3998 214.4 52.6998C214.2 52.5998 214 52.4998 213.8 52.3998C214.6 52.6998 215.4 53.0998 216.1 53.6998C215.9 53.5998 215.8 53.3998 215.6 53.2998C217.1 54.3998 218.4 55.7998 220.2 56.2998C221.5 56.6998 223 55.7998 223.3 54.5998C223.6 53.1998 222.9 51.8998 221.6 51.4998Z" fill="#1A6383"/>
<path d="M204.9 50.8985C209 55.6985 213.8 59.8985 218.1 64.3985C219 65.2985 220.7 65.3985 221.6 64.3985C222.5 63.3985 222.6 61.8985 221.6 60.8985C217.2 56.2985 212.5 52.0985 208.4 47.3985C207.5 46.3985 205.7 46.4985 204.9 47.3985C204 48.3985 204 49.7985 204.9 50.8985Z" fill="#1A6383"/>
<path d="M217.9 66.5988C218.4 67.1988 218.9 67.6988 219.3 68.2988C219.2 68.0988 219 67.9988 218.9 67.7988C219.7 68.7988 220.4 69.8988 221.1 71.0988C221.4 71.5988 222 72.0988 222.6 72.1988C223.2 72.3988 224 72.2988 224.5 71.8988C225.7 71.1988 226.1 69.6988 225.4 68.4988C224.3 66.4988 222.9 64.6988 221.4 62.9988C221 62.4988 220.2 62.2988 219.6 62.2988C219 62.2988 218.3 62.5988 217.8 62.9988C217.4 63.4988 217 64.0988 217.1 64.7988C217.2 65.5988 217.5 66.0988 217.9 66.5988Z" fill="#1A6383"/>
<path d="M206.6 54.9001C209.2 57.9001 211.5 61.1001 214 64.1001C215.2 65.5001 216.5 66.8001 217.7 68.3001C218.6 69.4001 219.6 70.9001 221 71.5001C222.2 72.0001 223.7 71.9001 224.4 70.6001C225 69.5001 224.8 67.7001 223.5 67.2001C223.4 67.2001 223.3 67.0001 223.2 67.0001C223 67.0001 223.5 67.3001 223.2 67.0001C223 66.8001 222.7 66.5001 222.5 66.3001C222 65.8001 221.6 65.2001 221.1 64.6001C219.9 63.2001 218.6 61.8001 217.4 60.4001C214.9 57.5001 212.7 54.3001 210.2 51.5001C209.3 50.5001 207.6 50.6001 206.7 51.5001C205.5 52.4001 205.7 53.9001 206.6 54.9001Z" fill="#1A6383"/>
<path d="M207.2 55.9985C210.5 58.7985 213 62.3985 216 65.4985C217.4 66.9985 218.9 68.2985 220.2 69.8985C221.3 71.2985 222.6 72.8985 224.5 72.8985C225.8 72.8985 227.1 71.6985 227 70.3985C226.9 68.9985 225.9 67.8985 224.5 67.8985C224.7 67.8985 224.9 67.8985 225.1 67.9985C225.3 68.0985 225.3 68.0985 225.2 67.9985C225.4 68.0985 225.5 68.2985 225.2 67.9985C224.9 67.6985 224.7 67.4985 224.5 67.1985C224.1 66.6985 223.7 66.1985 223.3 65.6985C222 64.0985 220.4 62.7985 219 61.2985C216.3 58.2985 213.9 54.9985 210.8 52.3985C209.8 51.4985 208.3 51.3985 207.3 52.3985C206.3 53.3985 206.2 55.0985 207.2 55.9985Z" fill="#1A6383"/>
<path d="M205.9 54.5997C207.5 56.5997 209.6 58.0997 211.3 59.8997C213.1 61.6997 214.6 63.6997 216.7 65.1997C217.8 65.8997 219.5 65.3997 220.1 64.2997C220.8 62.9997 220.4 61.6997 219.2 60.8997C219.1 60.7997 219 60.6997 218.9 60.6997C218.7 60.4997 219.3 60.9997 219 60.6997C218.8 60.4997 218.6 60.2997 218.4 60.0997C218 59.6997 217.6 59.1997 217.1 58.7997C216.3 57.8997 215.6 56.9997 214.7 56.1997C213 54.4997 210.9 52.9997 209.4 51.0997C208.6 50.0997 206.7 50.1997 205.9 51.0997C204.9 52.0997 205 53.4997 205.9 54.5997Z" fill="#1A6383"/>
<path d="M221.2 70.9988C221.8 71.5988 222.4 72.2988 223 72.8988C223.7 73.6988 224.5 74.2988 225.4 74.8988C225.7 75.0988 226 75.1988 226.3 75.1988C226.6 75.2988 227 75.2988 227.3 75.1988C227.9 74.9988 228.5 74.5988 228.8 74.0988C229.1 73.4988 229.3 72.7988 229.1 72.1988C229 71.9988 228.9 71.7988 228.8 71.5988C228.6 71.1988 228.3 70.8988 227.9 70.6988C227.7 70.5988 227.6 70.4988 227.4 70.2988C227.6 70.3988 227.7 70.5988 227.9 70.6988C226.7 69.7988 225.7 68.5988 224.7 67.4988C224.3 66.9988 223.6 66.7988 222.9 66.7988C222.3 66.7988 221.6 67.0988 221.1 67.4988C220.7 67.9988 220.3 68.5988 220.4 69.2988C220.5 69.8988 220.8 70.4988 221.2 70.9988Z" fill="#1A6383"/>
<path d="M218.9 69.3988C219.5 70.3988 220.2 71.1988 221.1 71.9988C221.9 72.7988 222.9 73.4988 223.9 73.9988C224.5 74.2988 225.2 74.3988 225.8 74.2988C226.4 74.0988 227 73.6988 227.3 73.1988C227.6 72.5988 227.8 71.8988 227.6 71.2988C227.4 70.6988 227 70.0988 226.5 69.7988C226 69.4988 225.5 69.1988 225 68.7988C225.2 68.8988 225.3 69.0988 225.5 69.1988C224.7 68.5988 224 67.8988 223.4 67.1988C223.5 67.3988 223.7 67.4988 223.8 67.6988C223.6 67.4988 223.5 67.2988 223.3 66.9988C223 66.4988 222.4 65.9988 221.8 65.8988C221.2 65.6988 220.4 65.7988 219.9 66.1988C219.4 66.4988 218.9 67.0988 218.8 67.6988C218.5 68.0988 218.5 68.7988 218.9 69.3988Z" fill="#1A6383"/>
<path d="M219.2 69.8992C220.5 71.8992 222.5 73.4992 224.5 74.7992C225 75.1992 225.9 75.1992 226.4 75.0992C227 74.8992 227.6 74.4992 227.9 73.9992C228.2 73.3992 228.4 72.6992 228.2 72.0992C228.1 71.8992 228 71.6992 227.9 71.4992C227.7 71.0992 227.4 70.7992 227 70.5992C226.6 70.2992 226.2 69.9992 225.8 69.6992C226 69.7992 226.1 69.9992 226.3 70.0992C225.3 69.2992 224.3 68.4992 223.5 67.3992C223.6 67.5992 223.8 67.6992 223.9 67.8992C223.8 67.6992 223.7 67.5992 223.6 67.3992C223.2 66.8992 222.7 66.3992 222.1 66.2992C221.5 66.0992 220.7 66.1992 220.2 66.5992C219.7 66.8992 219.2 67.4992 219.1 68.0992C218.8 68.5992 218.9 69.2992 219.2 69.8992Z" fill="#1A6383"/>
<path d="M220.7 71.4988C221.3 72.2988 222 73.0988 222.8 73.7988C223.3 74.2988 223.9 74.6988 224.4 75.0988C224.8 75.3988 225.2 75.6988 225.7 75.8988C226 76.0988 226.3 76.1988 226.6 76.1988C226.9 76.2988 227.3 76.2988 227.6 76.1988C228.2 75.9988 228.8 75.5988 229.1 75.0988C229.4 74.4988 229.6 73.7988 229.4 73.1988C229.2 72.5988 228.8 71.9988 228.3 71.6988C227.7 71.3988 227.2 71.0988 226.7 70.6988C226.9 70.7988 227 70.9988 227.2 71.0988C226.1 70.1988 225.1 69.0988 224.3 67.9988C223.9 67.4988 223.1 67.2988 222.5 67.2988C221.9 67.2988 221.2 67.5988 220.7 67.9988C220.3 68.4988 219.9 69.0988 220 69.7988C220 69.9988 220.1 70.1988 220.1 70.4988C220.2 70.7988 220.4 71.1988 220.7 71.4988Z" fill="#1A6383"/>
<path d="M316.7 155.1C285.8 139.9 272 133.9 265.9 131.5C262.5 130.2 259.5 127.8 257.5 124.7L227.9 80C227.9 70 241.9 68 241.9 68L282.9 111L365.6 138.1C365.6 138.1 332.9 150 325.9 179C325.9 179 318.9 203.8 298.9 206.2C288.5 207.5 278.4 201.9 273.4 192.7C271.6 189.4 270.1 185.6 270 182C269.9 179.3 277.5 176.4 279.8 175.1L316.7 155.1Z" stroke="#EE9B4B" stroke-width="4" stroke-miterlimit="10" stroke-linecap="round" stroke-linejoin="round"/>
<path d="M484.9 100.8C485.5 102.1 487 102.9 488.2 103.5C488.9 103.8 489.6 104.1 490.4 104.4C490.7 104.5 490.9 104.6 491.2 104.7C491.3 104.7 491.4 104.8 491.5 104.8C492 105 491 104.6 491.8 104.9C493.3 105.5 494.8 106.1 496.4 105.7C498.4 105.1 499.2 103.2 499.8 101.5C501.1 98.0996 501.8 94.2996 501.6 90.5996C501.6 88.9996 501.4 87.3996 500.8 85.9996C500 84.2996 498.3 83.2996 496.4 83.1996C490.9 82.6996 488.1 89.2996 487 93.6996C486.5 95.7996 486.1 98.1996 487.1 100.2C488.3 102.5 491 102.9 493.3 102.1C496.9 100.8 498.9 97.1996 499.4 93.5996C499.9 90.1996 499.9 86.0996 497.6 83.2996C496.9 82.4996 495.4 82.2996 494.6 82.8996C491.6 84.7996 490.1 88.1996 488.6 91.1996C487.7 92.8996 487 94.6996 487.3 96.5996C487.6 98.5996 489 100.5 491.1 100.4C494.5 100.3 496.5 96.1996 497.5 93.5996C498.5 90.9996 499.3 85.8996 495.7 84.7996C493.4 84.0996 491.4 85.9996 490.1 87.5996C488.6 89.4996 487.3 91.5996 486.6 93.8996C485.8 96.7996 487.2 101.1 490.9 99.9996C493.6 99.2996 495.9 96.1996 497.3 94.0996C499.1 91.3996 500.3 87.5996 499.7 84.3996C499.3 82.3996 497.7 80.8996 495.7 80.8996C493.9 80.8996 492.4 81.9996 491.4 83.2996C489.3 85.8996 487.6 88.9996 486.5 92.0996C485.4 94.9996 484.8 99.3996 487.4 101.8C491.5 105.7 497.3 99.1996 499.3 95.8996C501.1 92.7996 501.7 89.0996 501.3 85.5996C501.1 83.8996 500.6 82.2996 499.1 81.3996C498.1 80.7996 496.9 80.5996 495.8 80.7996C494.1 81.0996 492.6 82.3996 491.6 83.7996C490.2 85.4996 489.1 87.4996 488.1 89.4996C486.3 93.1996 484.6 97.1996 483.6 101.2C483.4 101.8 483.3 102.5 483.2 103.1C483 104.4 484.5 105.6 485.7 105.6C487.2 105.6 488 104.4 488.2 103.1C488.1 103.6 488.1 103.8 488.2 103.3C488.3 103.1 488.3 102.9 488.4 102.6C488.5 102.1 488.7 101.5 488.9 101C489.4 99.4996 489.9 98.0996 490.5 96.5996C490.7 96.1996 490.8 95.7996 491 95.3996C491 95.2996 491.3 94.7996 491.1 95.0996C491 95.3996 491.3 94.6996 491.3 94.5996C491.7 93.7996 492 92.9996 492.4 92.1996C493.1 90.6996 494 89.1996 494.9 87.7996C495 87.5996 495.1 87.4996 495.2 87.2996C495.5 86.8996 494.9 87.5996 495.2 87.2996C495.4 86.9996 495.6 86.7996 495.9 86.4996C496 86.3996 496.4 85.8996 496.6 85.8996C496.5 85.8996 496.1 86.1996 496.5 85.9996C496.6 85.8996 496.8 85.7996 496.9 85.7996C497.3 85.4996 496.8 85.8996 496.7 85.8996L497 85.7996C497.5 85.6996 496.4 85.7996 496.8 85.7996C497.3 85.7996 496.5 85.6996 496.6 85.6996C497.3 85.7996 496.2 85.5996 496.7 85.6996L496.9 85.7996C496.9 85.7996 496.4 85.3996 496.6 85.5996C496.7 85.6996 496.4 84.9996 496.4 85.3996C496.4 85.4996 496.5 85.6996 496.5 85.7996C496.5 85.7996 496.6 86.1996 496.5 85.8996C496.5 85.5996 496.5 85.9996 496.5 85.9996C496.5 86.1996 496.5 86.2996 496.5 86.4996C496.5 86.9996 496.5 87.4996 496.5 87.9996C496.5 89.2996 496.3 90.3996 495.9 91.6996C495.6 92.4996 495.1 93.3996 494.6 94.0996C494.5 94.1996 494.2 94.5996 494.4 94.2996C494.6 93.9996 494.2 94.4996 494.1 94.5996C493.8 94.8996 493.5 95.2996 493.2 95.5996C492.9 95.8996 492.6 96.1996 492.3 96.4996C492.1 96.6996 491.9 96.7996 491.8 96.9996C491.5 97.2996 492.1 96.7996 491.6 97.0996C491.3 97.2996 490.9 97.4996 490.6 97.6996C490.2 97.8996 491.1 97.5996 490.5 97.6996C490.4 97.6996 490.3 97.6996 490.3 97.7996C489.9 97.9996 490.7 97.7996 490.5 97.7996C490 97.7996 490.8 97.8996 490.6 97.7996C490.1 97.6996 491 97.9996 490.7 97.7996C491 97.8996 491 97.8996 491.1 98.1996C491 97.9996 490.8 97.4996 491 97.9996C490.7 96.9996 490.7 96.2996 490.9 95.1996C491.5 92.6996 492.9 90.4996 494.2 88.1996C494.4 87.7996 494.7 87.4996 494.9 87.0996C495 86.9996 495.4 86.3996 495.1 86.6996C495.3 86.3996 495.5 86.1996 495.7 85.9996C495.8 85.8996 495.9 85.7996 496 85.7996C496.2 85.5996 495.9 85.7996 495.9 85.8996C495.9 85.7996 496.3 85.8996 496 85.7996C495.6 85.7996 496.4 85.7996 495.9 85.7996C495.6 85.7996 495.5 85.6996 495.2 85.5996C495.1 85.4996 495 85.3996 495 85.2996C495.3 85.7996 494.8 85.0996 495 85.3996C495.1 85.4996 495 85.3996 495 85.2996C495 85.3996 495 85.4996 495 85.5996C495 85.8996 495 86.0996 495 86.3996C495 86.8996 495.1 86.0996 495 86.6996C495 86.8996 494.9 87.0996 494.9 87.2996C494.6 88.6996 494.3 89.6996 493.6 90.8996C493 91.8996 492.4 92.6996 491.5 93.5996C491.2 93.8996 490.9 94.1996 490.6 94.4996C490.5 94.5996 490 94.9996 490.2 94.7996C490.4 94.5996 489.9 94.9996 489.8 94.9996C489.7 95.0996 489.6 95.0996 489.5 95.1996C489.5 95.1996 490 94.9996 489.7 95.0996C489.6 95.0996 489.6 95.0996 489.5 95.1996C489.8 95.1996 490 95.0996 490.3 95.1996C490.4 95.1996 491.7 95.8996 491.4 96.1996L491.3 95.8996C491.3 95.6996 491.3 95.7996 491.3 95.9996C491.3 95.8996 491.3 95.7996 491.3 95.6996V95.3996C491.3 95.3996 491.1 96.0996 491.3 95.4996C491.4 95.1996 491.5 94.7996 491.6 94.4996C491.8 93.9996 491.4 94.7996 491.6 94.3996C491.7 94.1996 491.8 94.0996 491.8 93.8996C492 93.4996 492.2 93.0996 492.4 92.6996C492.6 92.2996 492.9 91.8996 493.1 91.5996C493.2 91.3996 493.3 91.2996 493.4 91.0996C493.5 90.9996 493.5 90.8996 493.6 90.8996C493.8 90.5996 493.3 91.2996 493.6 90.8996C493.8 90.5996 494.1 90.2996 494.3 90.0996C494.4 89.9996 494.6 89.7996 494.7 89.6996C494.8 89.5996 495.2 89.2996 494.9 89.4996C494.5 89.6996 495 89.3996 495.1 89.3996C495.5 89.2996 494.5 89.5996 494.9 89.4996C495.3 89.3996 494.5 89.4996 494.3 89.4996C494 89.4996 493.7 89.2996 493.3 88.9996C493.5 89.1996 492.9 88.3996 493.2 88.8996C493.2 88.8996 493.1 88.3996 493.1 88.8996C493.2 89.2996 493.1 88.3996 493.1 88.9996C493.1 89.2996 493.1 89.7996 493.1 89.8996C492.9 91.1996 492.4 92.4996 491.8 93.5996C491.6 93.9996 491.4 94.2996 491.1 94.6996C491.4 94.2996 491 94.8996 490.9 94.9996C490.8 95.0996 490.8 95.1996 490.7 95.1996C490.7 95.1996 490.2 95.5996 490.5 95.3996C490.7 95.1996 490.5 95.3996 490.4 95.3996C490.1 95.4996 490.4 95.4996 490.4 95.3996C490.4 95.3996 490.7 95.2996 490.4 95.3996C490.8 95.2996 491.2 95.3996 491.6 95.5996C491.8 95.6996 491.9 95.8996 492.1 96.0996C492.1 95.9996 492 95.4996 492 95.9996C492 95.7996 492 95.6996 492 95.4996C492 95.8996 492.1 95.0996 492.1 94.9996C492.2 94.7996 492.3 94.3996 492.3 94.3996C492.5 93.9996 492.8 93.2996 493.1 92.7996C493.7 91.6996 494.2 90.5996 494.9 89.4996C495.2 88.9996 495.5 88.4996 495.8 88.1996C496.2 87.7996 496.7 87.2996 496.9 87.0996C495.9 86.9996 494.9 86.7996 493.9 86.6996C493.6 86.3996 493.9 86.6996 494 86.8996C493.8 86.4996 494.1 87.0996 494.1 87.2996C494.2 87.4996 494.2 87.7996 494.3 87.9996C494.3 88.0996 494.3 88.2996 494.4 88.3996C494.4 88.0996 494.4 88.3996 494.4 88.4996C494.5 89.5996 494.5 90.6996 494.5 91.6996C494.5 91.8996 494.5 92.1996 494.4 92.3996C494.4 92.6996 494.4 92.3996 494.4 92.2996C494.4 92.3996 494.4 92.4996 494.3 92.6996C494.2 93.2996 494.1 93.8996 493.9 94.3996C493.6 95.1996 493.2 95.9996 492.6 96.4996C492.5 96.5996 492.4 96.6996 492.3 96.7996C492.6 96.5996 492.3 96.7996 492.2 96.8996C492.1 96.8996 491.6 97.1996 491.9 97.0996C491.7 97.1996 491.5 97.1996 491.3 97.2996C491 97.3996 490.5 97.3996 491.1 97.3996C491 97.3996 490.8 97.3996 490.7 97.3996C490.3 97.4996 491.2 97.4996 490.9 97.3996C490.5 97.2996 491.5 97.6996 491 97.3996C490.9 97.3996 491.5 97.7996 491.1 97.4996C491.3 97.6996 491.4 97.9996 491.3 97.5996C491.4 97.8996 491.5 98.0996 491.4 97.6996C491.4 97.5996 491.4 97.5996 491.4 97.4996C491.3 97.2996 491.5 97.3996 491.4 97.5996C491.4 97.5996 491.4 97.9996 491.4 97.6996C491.4 97.5996 491.4 97.4996 491.4 97.3996C491.4 97.0996 491.4 96.6996 491.4 96.3996C491.4 95.8996 491.4 96.5996 491.4 96.3996C491.4 96.1996 491.5 95.9996 491.5 95.6996C491.8 94.2996 492.3 92.8996 492.8 91.5996C492.8 91.4996 492.6 92.0996 492.8 91.5996C492.9 91.4996 492.9 91.3996 493 91.2996C493.1 91.0996 493.2 90.8996 493.3 90.6996C493.9 89.6996 494.2 89.0996 495 88.4996C494.8 88.6996 495.2 88.3996 495.3 88.2996C495.6 88.0996 495.3 88.1996 495.6 88.1996C496.1 88.0996 495.8 88.1996 495.7 88.1996C495.7 88.1996 496.1 88.1996 495.9 88.1996C495.9 88.1996 496.5 88.4996 496.2 88.2996C495.9 88.0996 496.3 88.4996 496.1 88.0996C496.2 88.1996 496.2 88.2996 496.3 88.4996C496.3 88.4996 496.2 88.0996 496.2 88.3996C496.3 88.5996 496.3 88.7996 496.4 89.0996C496.5 89.3996 496.4 89.0996 496.4 88.9996C496.4 89.1996 496.4 89.2996 496.4 89.4996C496.6 92.0996 496.4 94.5996 495.8 97.0996C495.5 98.4996 495 99.9996 494.4 101.1C494.2 101.5 494.4 101.1 494.4 101.1C494.4 101.3 494.1 101.2 494.4 101.1C494.6 101.1 494.7 101 494.8 101C495.1 100.9 494.7 100.9 494.9 101C495.2 101.1 494.5 100.9 494.3 100.8C494.2 100.8 493.6 100.5 493.9 100.7C492.8 100.2 491.6 99.7996 490.4 99.2996C490.4 99.2996 490 99.0996 490.2 99.1996C490.4 99.2996 490 99.0996 489.9 99.0996C489.7 98.9996 489.4 98.8996 489.2 98.6996C489.1 98.5996 489 98.5996 488.9 98.4996C488.6 98.2996 488.7 98.1996 488.8 98.4996C488.6 98.0996 489 98.8996 488.7 98.2996C488.2 97.0996 486.3 96.7996 485.3 97.3996C484.5 98.0996 484.4 99.5996 484.9 100.8Z" fill="#1A6383"/>
<path d="M488.8 98.6007C489 96.9007 488.7 95.2007 488.4 93.5007C488.3 93.1007 488.3 92.7007 488.2 92.3007C488.2 92.1007 488.1 91.9007 488.1 91.7007C488.1 91.5007 488.1 91.0007 488.1 91.6007C488.1 91.2007 488 90.9007 488 90.5007C488 90.1007 488 89.6007 488 89.2007C486.6 89.8007 485.2 90.4007 483.7 91.0007C483.8 91.1007 483.8 91.1007 483.9 91.2007C484.1 91.4007 483.5 90.7007 483.8 91.0007C483.9 91.2007 484 91.3007 484.1 91.5007C484.2 91.7007 484.2 92.0007 484 91.3007C484 91.4007 484.1 91.5007 484.1 91.6007C484.2 91.8007 484.2 92.0007 484.3 92.2007C484.4 92.6007 484.5 93.1007 484.5 93.5007C484.6 93.8007 484.4 92.9007 484.5 93.3007C484.5 93.4007 484.5 93.6007 484.5 93.7007C484.5 93.9007 484.5 94.2007 484.6 94.4007C484.8 96.5007 485 98.7007 486 100.701C486.6 101.901 488.3 102.301 489.4 101.601C490.6 100.801 491 99.4007 490.3 98.2007C490.2 98.1007 490.2 98.0007 490.1 97.9007C490.2 98.0007 490.3 98.5007 490.2 98.1007C490.1 97.9007 490.1 97.7007 490 97.5007C489.9 97.1007 489.8 96.6007 489.7 96.2007C489.6 95.8007 489.8 96.7007 489.7 96.4007C489.7 96.3007 489.7 96.2007 489.7 96.1007C489.7 95.8007 489.6 95.6007 489.6 95.3007C489.6 94.8007 489.5 94.3007 489.5 93.8007C489.3 91.5007 488.9 89.2007 487.2 87.5007C486.5 86.8007 485.4 86.6007 484.5 87.0007C483.6 87.4007 483 88.3007 483 89.3007C482.9 91.0007 483.2 92.8007 483.6 94.5007C483.7 94.9007 483.7 95.3007 483.8 95.7007C483.8 95.9007 483.9 96.1007 483.9 96.2007C483.9 96.1007 483.9 96.0007 483.9 95.9007C483.9 96.0007 483.9 96.1007 483.9 96.3007C484 97.1007 484 97.9007 483.9 98.6007C483.8 99.9007 485.1 101.201 486.4 101.101C487.8 101.101 488.7 100.001 488.8 98.6007Z" fill="#1A6383"/>
<path d="M494.9 91.2002C496.2 86.9002 499 82.9002 499.6 78.2002C499.8 76.9002 499.3 75.5002 497.9 75.1002C496.5 74.7002 495.3 75.6002 494.8 76.8002C493.8 79.7002 493.2 82.7002 492.1 85.6002C491.1 88.6002 490 91.6002 490.1 94.7002C490.2 96.0002 491.2 97.2002 492.6 97.2002C493.9 97.2002 495.2 96.1002 495.1 94.7002C495 91.9002 496.1 89.3002 497 86.6002C498 83.8002 498.6 80.9002 499.5 78.1002C497.9 77.7002 496.3 77.2002 494.7 76.8002C494 81.4002 491.3 85.3002 490 89.8002C489.6 91.1002 490.5 92.5002 491.7 92.9002C493.1 93.3002 494.5 92.5002 494.9 91.2002Z" fill="#1A6383"/>
<path d="M492.8 78.8012C491.1 81.0012 490.4 83.9012 489.7 86.6012C489.4 87.9012 489.1 89.2012 488.8 90.5012C488.6 91.2012 488.4 91.8012 488.2 92.4012C488.2 92.5012 488.1 92.7012 488 92.8012C487.9 93.1012 488.2 92.4012 488 92.9012C487.8 93.2012 487.7 93.5012 487.5 93.8012C486.8 94.9012 487.2 96.6012 488.4 97.2012C489.6 97.8012 491.1 97.5012 491.8 96.3012C493.2 93.9012 493.8 91.1012 494.4 88.4012C494.7 87.1012 495 85.8012 495.4 84.5012C495.5 84.2012 495.6 83.8012 495.8 83.5012C495.7 83.7012 495.7 83.7012 495.8 83.5012C495.9 83.3012 495.9 83.2012 496 83.0012C496.3 82.4012 496.6 81.9012 497 81.3012C497.8 80.3012 497.2 78.5012 496.1 77.9012C494.9 77.2012 493.7 77.7012 492.8 78.8012Z" fill="#1A6383"/>
<path d="M494.2 79.8004C493.9 81.0004 493.9 82.4004 494.8 83.3004C495.6 84.1004 496.8 84.4004 497.9 84.0004C499.3 83.6004 500.5 82.4004 501.6 81.3004C500.2 80.7004 498.8 80.1004 497.3 79.5004C497.8 86.9004 494 93.8004 492.6 101C492.3 102.3 493 103.7 494.3 104.1C495.5 104.4 497.1 103.7 497.4 102.4C498.9 94.8004 502.8 87.5004 502.3 79.6004C502.2 77.5004 499.6 76.2004 498 77.8004C497.6 78.2004 497.1 78.6004 496.7 79.0004C496.4 79.2004 497.2 78.7004 496.6 79.0004C496.5 79.1004 496.3 79.2004 496.2 79.3004C496 79.5004 496.7 79.2004 496.3 79.3004C497.2 79.9004 498 80.6004 498.9 81.2004C498.8 81.5004 498.8 81.5004 498.9 81.2004C499.2 79.9004 498.5 78.5004 497.2 78.1004C496 77.7004 494.5 78.5004 494.2 79.8004Z" fill="#1A6383"/>
<path d="M496.6 84.4009C496.6 85.1009 496.6 85.8009 496.6 86.6009C496.7 88.8009 499.3 89.9009 500.9 88.4009C501.5 87.9009 501.9 87.2009 502.1 86.5009C502.2 86.1009 502.4 85.5009 502.5 85.3009C501 85.1009 499.5 84.9009 497.9 84.7009C498.2 85.4009 498.1 86.1009 497.9 87.0009C497.6 88.1009 497.4 89.3009 497.2 90.4009C496.8 92.4009 496.4 94.4009 496 96.5009C495.8 97.9009 495.5 99.4009 495.2 100.801C495.1 101.201 495 101.601 494.9 102.001C494.8 102.201 494.5 103.001 494.7 102.601C494.6 102.901 494.4 103.201 494.2 103.501C494.3 103.401 494.5 103.201 494.3 103.401C494 103.801 494.7 103.101 494.3 103.401C491.5 104.901 494 109.201 496.8 107.701C498.4 106.801 499.2 104.901 499.7 103.201C500.2 101.501 500.5 99.8009 500.8 98.1009C501.2 95.9009 501.6 93.6009 502.1 91.4009C502.6 88.9009 503.8 85.9009 502.8 83.4009C502.4 82.5009 501.8 81.7009 500.7 81.6009C499.8 81.5009 498.6 81.9009 498.2 82.8009C498 83.3009 497.7 83.8009 497.6 84.4009C497.5 84.6009 497.5 84.8009 497.4 85.0009C497.3 85.4009 497.4 85.0009 497.4 85.0009C498.8 85.6009 500.2 86.2009 501.7 86.8009C501.7 86.1009 501.7 85.4009 501.7 84.6009C501.6 81.2009 496.6 81.2009 496.6 84.4009Z" fill="#1A6383"/>
<path d="M484.6 104C485.4 105.3 486.8 106.3 488.2 106.9C489.2 107.3 490.1 107.6 491.2 107.7C492.1 107.8 493.1 107.6 493.9 107.1C494.5 106.7 495 106.2 495.3 105.6C495.7 104.9 495.8 104.2 495.9 103.4C496 102.8 495.6 102 495.2 101.6C494.8 101.2 494.1 100.8 493.4 100.9C492.8 100.9 492.1 101.1 491.6 101.6C491.1 102.1 490.9 102.7 490.9 103.4V103.5C490.9 103.3 491 103.1 491 102.8C491 103 490.9 103.2 490.8 103.4C490.9 103.2 491 103 491.1 102.8C491 102.9 491 103.1 490.9 103.2C491 103 491.2 102.9 491.3 102.7C491.2 102.8 491.1 102.9 491.1 102.9C491.3 102.8 491.4 102.6 491.6 102.5C491.5 102.6 491.4 102.6 491.3 102.7C491.5 102.6 491.7 102.5 491.9 102.4C491.7 102.5 491.5 102.5 491.4 102.5C491.6 102.5 491.8 102.4 492.1 102.4C491.8 102.4 491.5 102.4 491.2 102.4C491.4 102.4 491.6 102.5 491.9 102.5C491.4 102.4 490.8 102.3 490.3 102.1C490.5 102.2 490.7 102.3 490.9 102.4C490.3 102.1 489.7 101.8 489.1 101.4C489.3 101.5 489.4 101.7 489.6 101.8C489.3 101.6 489 101.3 488.8 101C488.9 101.2 489.1 101.3 489.2 101.5C489.2 101.4 489.1 101.4 489.1 101.3C488.8 100.8 488.2 100.3 487.6 100.2C487 99.9996 486.2 100.1 485.7 100.5C484.4 101.3 483.9 102.8 484.6 104Z" fill="#1A6383"/>
<path d="M484.6 105.6C485.9 106.6 487.2 107.6 488.8 108.2C489.9 108.7 491.1 108.9 492.3 108.9C493.4 109 494.5 108.8 495.5 108.3C496.3 107.9 496.8 107.1 497 106.3C497.3 105.3 497 104.4 496.5 103.5C495.9 102.3 494.2 101.9 493.1 102.6C491.9 103.4 491.6 104.8 492.2 106C492.2 106.1 492.3 106.1 492.3 106.2C492.2 106 492.1 105.8 492 105.6C492.1 105.8 492.1 105.9 492.1 106.1C492.1 105.9 492 105.7 492 105.4C492 105.5 492 105.5 492 105.6C492 105.4 492.1 105.2 492.1 104.9C492.1 105 492.1 105 492 105.1C492.1 104.9 492.2 104.7 492.3 104.5C492.3 104.6 492.2 104.6 492.2 104.6C492.3 104.4 492.5 104.3 492.6 104.1C492.6 104.2 492.5 104.2 492.4 104.3C492.6 104.2 492.7 104 492.9 103.9C492.8 104 492.7 104 492.6 104C492.8 103.9 493 103.8 493.2 103.7C493 103.8 492.8 103.8 492.6 103.9C492.8 103.9 493 103.8 493.3 103.8C492.6 103.9 491.9 103.8 491.2 103.7C491.4 103.7 491.6 103.8 491.9 103.8C491.2 103.7 490.6 103.5 490 103.3C490.2 103.4 490.4 103.5 490.6 103.6C489.5 103.1 488.5 102.4 487.5 101.6C487 101.2 486.1 101.2 485.6 101.3C485.1 101.5 484.6 101.8 484.3 102.2C484 102.6 483.7 103.2 483.8 103.7C483.9 104.4 484.1 105.2 484.6 105.6Z" fill="#1A6383"/>
<path d="M385.9 146C385.9 146 398 147.5 405.7 155.9L438.9 161C442.5 161.7 445.9 161.3 447.9 158L483.8 105C483.8 105 486.9 109.4 495.9 109L477.4 166.6C473.4 178.7 465.6 189 455.1 195.1C455 195.2 454.8 195.2 454.7 195.3C454.7 195.3 432.4 205.8 410.1 203.7" stroke="#EE9B4B" stroke-width="4" stroke-miterlimit="10" stroke-linecap="round" stroke-linejoin="round"/>
</g>
<defs>
<clipPath id="clip0_1973_506">
<rect width="606.8" height="415.9" fill="white"/>
</clipPath>
</defs>
</svg>
