<svg width="607" height="416" viewBox="0 0 607 416" fill="none" xmlns="http://www.w3.org/2000/svg">
<g clip-path="url(#clip0_1982_375)">
<g clip-path="url(#clip1_1982_375)">
<path d="M212.9 123.7C211.8 120.3 209.5 117.5 205.6 117.6C202 117.7 198.6 119.9 195.8 122C193 124.2 190.4 126.7 188.4 129.7C186 133.3 185 138 183.8 142.1C182.4 147 180.9 153 176.7 156.4C177 156.4 177.3 156.4 177.6 156.4C172.9 151.4 168.6 146 163.6 141.4C158.5 136.7 152.6 133.4 146 131.3C142.3 130.1 138.6 129.3 134.7 129.3C130.9 129.3 127.2 130.2 123.7 131.6C120.2 133 116.3 134.9 112.4 134.2C109.2 133.6 106.7 131.4 105.3 128.5C103.8 125.6 103.2 121.8 104.4 118.7C105.4 116.2 107.5 114.4 109.1 112.3C111 109.9 112.4 107.2 112.7 104.2C113 101.3 112.2 98.4004 110.9 95.8004C108 90.1004 103.1 85.7004 98.8 81.1004C95.6 77.7004 93.4 73.6004 92 69.1004C89.4 60.3004 89.7 49.9004 93.8 41.6004C95.6 38.0004 98.2 34.6004 101.8 32.7004C105.7 30.6004 110.1 30.5004 114.3 31.7004C127.4 35.5004 132.4 49.0004 135.3 61.0004C137.3 69.3004 136.3 77.7004 136.6 86.2004C136.9 92.9004 138.3 100.4 143.7 105.1C145.7 106.9 148.4 108 151.1 107.4C153.5 106.8 155.3 105.2 157.2 103.7C159.1 102.2 161.1 101.1 163.4 102.5C166 104.1 167.4 106.6 168.3 109.4C169.7 113.5 170.7 120.2 175.8 121.2C180.1 122 182 117.2 183.7 114.2C184.5 112.7 185.6 110.9 187.4 110.7C187.1 110.6 186.9 110.4 186.6 110.3C186.9 111.1 187.1 111.9 187.3 112.8C187.4 113.6 188.6 113.3 188.5 112.5C188.4 111.6 188.1 110.8 187.8 110C187.7 109.6 187.4 109.5 187 109.6C183.2 110.2 181.9 115.6 179.9 118.2C178.5 120 176.7 120.8 174.6 119.6C172.3 118.4 171.3 115.4 170.6 113.1C169.8 110.6 169.2 108 167.9 105.7C166.7 103.5 164.3 101.2 161.8 100.8C156.8 100 154.2 106.6 149.3 106.5C146 106.4 143.3 103.6 141.6 101C139.5 97.8004 138.5 94.2004 138.1 90.4004C137.1 82.0004 138.5 73.5004 137.3 65.2004C136.8 61.8004 135.8 58.3004 134.8 55.0004C133.9 52.0004 132.8 49.0004 131.5 46.2004C128.9 40.7004 125 35.7004 119.5 32.8004C115.2 30.5004 110.1 29.3004 105.2 30.3004C101.3 31.1004 97.9 33.5004 95.4 36.6004C89.8 43.6004 88.2 53.6004 89.1 62.3004C89.6 67.0004 90.8 71.6004 93 75.8004C95.5 80.6004 99.6 84.2004 103.3 88.1004C107.5 92.6004 112.4 98.6004 111.2 105.2C110.6 108.5 108.6 111.2 106.4 113.7C104.8 115.6 103.1 117.6 102.6 120.1C101.5 125.8 104.5 132.8 110.1 135C113.3 136.3 116.8 135.6 120 134.5C123.8 133.1 127.4 131.4 131.5 130.9C139.4 129.9 147.8 132.6 154.6 136.5C160.5 139.8 165.2 144.6 169.7 149.6C172.1 152.2 174.4 154.9 176.8 157.5C177 157.8 177.4 157.7 177.7 157.5C181 154.9 182.6 150.6 183.9 146.7C185.3 142.3 186.3 137.7 188.1 133.4C189.4 130.4 191.5 127.9 193.9 125.7C196.5 123.2 199.6 120.8 203.1 119.6C204.7 119.1 206.6 118.8 208.2 119.5C210.1 120.3 211.2 122.3 211.8 124.2C211.9 124.8 213.1 124.5 212.9 123.7Z" fill="#EE9B4B"/>
<path d="M397.1 319.801C397.2 319.401 397.1 320.301 397.1 319.801C397.1 320.101 396.9 320.101 397.1 319.801C397.2 319.801 397.3 319.701 397.3 319.701C397.4 319.601 397.5 319.601 397.6 319.501C397.6 319.501 397.3 319.701 397.6 319.501C397.9 319.301 398.1 319.101 398.4 319.001C399.2 318.501 400.1 318.001 400.9 317.501C401.3 317.201 401.7 317.001 402.1 316.801C402 316.801 401.6 316.901 402.1 316.801C402.3 316.801 402.3 316.801 402.1 316.801C402 316.801 401.8 316.801 401.6 316.801C401.4 316.701 401.3 316.601 401.2 316.501C401.4 316.601 401.7 317.201 401.9 317.701C402.2 318.301 402.5 318.901 402.8 319.501C403.2 320.501 403.7 321.901 404 323.101C404.2 323.701 404.3 324.301 404.4 324.901C404.5 325.201 404.5 325.601 404.6 325.901C404.7 326.301 404.7 326.201 404.7 326.501C404.8 327.001 404.8 327.501 404.8 328.001C404.8 328.301 404.8 328.501 404.8 328.801C404.8 328.901 404.8 329.001 404.8 329.101C404.8 329.501 404.9 328.701 404.8 329.101C404.8 329.201 404.7 329.301 404.7 329.401C404.7 329.401 404.9 329.001 404.8 329.301C404.6 329.701 404.7 329.401 405 329.201C405 329.201 404.7 329.401 404.9 329.301C405.2 329.201 404.7 329.301 404.7 329.401C404.7 329.401 404.3 329.501 404.5 329.401C404.7 329.401 404.1 329.301 404.5 329.401C404.4 329.401 403.9 329.101 404.2 329.301C404.1 329.301 403.6 328.901 403.9 329.101C403.4 328.701 403 328.201 402.6 327.801C402.3 327.401 402.4 327.601 402.5 327.701C402.4 327.601 402.4 327.501 402.3 327.501C402.3 327.401 402.2 327.401 402.2 327.301C402.1 327.101 401.9 326.901 401.8 326.701C401.5 326.101 401.2 325.601 400.9 325.001C400.7 324.701 400.6 324.401 400.4 324.001C400.4 323.901 400.2 323.401 400.3 323.801C400.4 324.101 400.2 323.501 400.1 323.401C399.9 322.701 399.6 322.101 399.5 321.401C399.5 321.301 399.4 320.901 399.4 320.901C399.5 320.901 399.4 321.501 399.4 321.001C399.4 320.701 399.5 319.801 399.4 320.701C399.4 320.601 399.4 320.501 399.5 320.401C399.4 320.701 399.2 320.901 399.5 320.601C399.4 320.701 399.3 320.801 399.2 321.001C398.9 321.301 399 321.101 399.1 321.101C399.4 320.901 398.6 321.301 398.9 321.201C399 321.101 399.4 321.001 399 321.201C398.7 321.301 398.8 321.201 398.9 321.201C399 321.201 399.1 321.201 399.2 321.201C399.6 321.201 398.8 321.101 399.2 321.201C399.4 321.301 399.7 321.301 399.9 321.401C400.3 321.501 399.6 321.201 400 321.401C400.1 321.501 400.3 321.501 400.4 321.601C400.5 321.701 400.6 321.701 400.7 321.801C400.5 321.601 400.6 321.701 400.7 321.901C400.9 322.101 401.2 322.301 401.3 322.601C401.1 322.301 401.5 322.901 401.5 323.001C401.7 323.301 401.8 323.601 402 323.901C402.1 324.001 402.1 324.101 402.2 324.201C402.1 324.001 402.2 324.201 402.2 324.301C402.4 324.901 402.6 325.401 402.7 326.001C402.8 326.501 402.9 327.001 403 327.601C403 327.601 403.1 328.001 403 327.701C403 327.401 403 328.001 403 328.101C403 328.401 403.1 328.701 403.1 329.001C403.1 329.601 403.1 330.201 403.1 330.901C403.1 330.901 403 331.301 403.1 331.001C403.2 330.701 403 331.301 403 331.301C403 331.401 402.9 331.501 402.9 331.601C402.9 331.901 403.1 331.201 402.9 331.601C404 331.301 405.2 331.001 406.3 330.701C405.3 330.201 404.5 329.401 403.9 328.501C403.1 327.501 402.5 326.401 401.8 325.401C401.4 324.901 401.1 324.401 400.8 323.801C400.7 323.601 400.6 323.501 400.6 323.301C400.6 323.301 400.4 322.901 400.5 323.101C400.6 323.301 400.4 322.901 400.4 322.901C400.4 322.901 400.2 322.301 400.3 322.501C400.4 322.701 400.3 322.501 400.3 322.401C400.1 322.901 400.4 322.401 400.3 322.301C400.2 322.201 400.7 321.801 400.2 322.301C400.1 322.401 400 322.601 399.8 322.701C399.4 323.001 399 323.101 398.5 323.001C398.7 323.101 398.6 323.201 398.3 322.901C398.4 323.001 398.5 323.001 398.6 323.101C398.7 323.201 398.8 323.201 398.9 323.301C398.9 323.301 398.6 323.001 398.8 323.201C399 323.401 399.1 323.501 399.3 323.701C399.5 323.901 399.6 324.001 399.7 324.201C399.8 324.301 399.8 324.301 399.9 324.401C400.2 324.701 399.8 324.101 399.9 324.301C400 324.801 400.7 325.501 401 325.901C401.4 326.501 401.6 327.101 401.8 327.701C401.9 328.001 402 328.401 402.1 328.701C402.2 329.001 402.1 328.801 402.1 328.801C402.1 328.901 402.1 329.101 402.1 329.301C402.1 329.401 402.1 329.501 402.1 329.501C402.1 329.801 402 329.701 402.1 329.501C402.2 329.401 402.2 329.201 402.1 329.401C402 329.801 402.3 329.001 402.2 329.101C402.4 328.701 403.2 328.301 403.7 328.301C403.6 328.301 404.4 328.501 404 328.301C403.8 328.201 404.6 328.601 404.1 328.301C404 328.201 403.8 328.101 403.7 328.101C403.4 327.901 403.4 327.801 403.7 328.101C403.4 327.801 403.1 327.601 402.8 327.301C402.5 327.001 402.2 326.701 402 326.401C401.9 326.201 401.7 326.101 401.6 325.901C401.5 325.801 401.5 325.801 401.4 325.701C401.2 325.501 401.7 326.101 401.4 325.701C400.9 325.001 400.4 324.301 400 323.601C399.9 323.401 399.8 323.301 399.8 323.101C399.8 323.001 399.7 323.001 399.7 322.901C399.5 322.601 399.9 323.401 399.8 323.101C399.8 323.001 399.7 322.801 399.7 322.701C399.7 322.601 399.7 322.601 399.7 322.501C399.6 322.101 399.8 322.701 399.7 322.801C399.7 322.601 399.7 322.101 399.7 322.001C399.7 321.701 399.7 322.201 399.7 322.201C399.8 321.801 399.6 322.401 399.6 322.401C399.3 322.901 398.5 323.301 398.1 323.301C398.3 323.301 397.7 323.301 397.7 323.201L398 323.301C398.2 323.401 397.7 323.201 397.8 323.201C397.9 323.301 398 323.301 398.1 323.401C398.3 323.501 398.5 323.601 398.6 323.701C398.8 323.801 398.9 323.901 399.1 324.101C398.7 323.801 399.1 324.101 399.3 324.301C400.2 325.101 401.1 325.901 401.9 326.901C402.4 327.601 403.2 329.001 403.5 329.801C403.7 330.301 403.8 330.701 403.9 331.201C404 331.501 404 331.701 404.1 332.001C404.2 332.301 404.1 332.001 404.1 331.901C404.1 332.101 404.1 332.301 404.1 332.501C404.1 332.801 404.1 332.401 404.1 332.401C404 332.501 403.8 332.701 404.1 332.401C404.3 332.101 404.5 331.901 404.9 331.901C405.1 331.901 405.2 331.901 405.4 331.901C405.3 331.901 405.1 331.801 405.1 331.801C405.1 331.801 405.4 332.001 405.3 331.801C405.2 331.701 405 331.601 404.9 331.501C405.3 331.801 404.8 331.401 404.7 331.301C404.5 331.101 404.3 330.901 404.2 330.701C404 330.501 403.9 330.301 403.7 330.101C403.6 330.001 403.6 329.901 403.5 329.901C403.2 329.501 403.7 330.101 403.5 329.901C402.8 328.901 402 327.901 401.3 326.901C400.9 326.301 400.6 325.801 400.2 325.201C399.9 324.701 399.5 323.901 399.4 323.601C399.2 323.001 399 322.501 398.9 321.901C398.8 321.401 398.9 321.701 398.9 321.801C398.9 321.601 398.9 321.501 398.9 321.301C398.9 321.101 399 320.301 398.9 320.801C398.9 320.601 399 320.401 399 320.301C399.1 319.901 399 320.401 398.9 320.501C399 320.401 399 320.301 399 320.301C399 320.301 398.6 320.701 398.8 320.601C399 320.401 398.5 320.801 398.5 320.801C398.8 320.601 398.2 320.901 398.2 320.901C398.3 320.901 398.7 320.801 398.2 320.901C397.8 321.001 398 320.901 398.1 320.901C398.5 320.901 397.8 320.901 397.8 320.801L398.2 320.901C398.4 321.001 398.9 321.301 398.3 320.901C398.5 321.001 398.7 321.101 398.9 321.201C399.3 321.401 399.6 321.601 400 321.901C400.2 322.001 400.4 322.201 400.1 322.001C400.3 322.201 400.5 322.301 400.7 322.501C401.4 323.101 402 323.601 402.6 324.301C402.7 324.401 402.8 324.501 402.9 324.601C403 324.701 403 324.701 403.1 324.801C403.3 325.001 403.1 324.701 402.9 324.601C403.1 324.701 403.3 325.201 403.4 325.401C403.6 325.701 403.8 326.101 404 326.401C404.6 327.601 404.9 328.901 405.1 330.301C405.1 330.501 405.2 330.701 405.2 330.901C405.3 331.401 405.2 331.001 405.2 330.901C405.2 331.001 405.2 331.101 405.2 331.301C405.2 331.601 405.3 331.901 405.3 332.101C405.3 332.301 405.2 333.101 405.3 332.601C405.2 333.101 405.3 332.901 405.4 332.601C405.5 332.301 405.4 332.601 405.3 332.701C406 332.101 405.7 332.501 405.5 332.501C405.1 332.701 406.2 332.301 405.7 332.401C405.4 332.501 406.4 332.301 406 332.401C405.9 332.401 405.5 332.301 406 332.401C406.5 332.501 406.1 332.401 406 332.401C405.5 332.301 406.1 332.301 406.1 332.501C406.1 332.401 405.5 332.201 405.4 332.101C405.3 332.001 405.2 331.901 405.1 331.901C405.2 332.001 405.5 332.201 405.1 331.901C404.6 331.401 404.1 330.901 403.6 330.401C403.4 330.101 403.1 329.801 402.9 329.501C402.6 329.201 403.2 329.901 402.8 329.401C402.7 329.201 402.5 329.001 402.4 328.801C401.4 327.401 400.4 325.901 399.5 324.301C398.6 322.801 397.8 321.301 397.1 319.801C396.8 319.201 396.5 318.501 396.2 317.901C396.1 317.601 396 317.401 395.8 317.101C395.6 316.601 395.9 317.301 395.9 317.201C395.9 317.101 395.8 317.001 395.8 316.801C395.7 316.501 395.5 316.201 395.5 315.801C395.1 314.501 393.7 313.701 392.4 314.101C391.1 314.501 390.3 315.901 390.7 317.201C391.1 318.501 391.7 319.801 392.3 321.101C393.2 323.001 394.1 324.801 395.2 326.601C396.3 328.501 397.4 330.301 398.8 332.101C400 333.701 401.4 335.401 403.2 336.501C405 337.601 407.2 337.701 408.9 336.201C410.1 335.201 410.4 333.701 410.4 332.101C410.4 330.501 410.1 328.801 409.7 327.301C409 324.401 407.3 321.801 405.1 319.801C403.4 318.201 401.2 316.401 398.7 316.101C395.2 315.601 393.5 319.001 393.8 322.101C394.1 325.801 396.2 329.001 398.4 331.901C400.1 334.201 402.4 337.601 405.7 337.101C407.8 336.801 409.1 334.901 409.2 332.901C409.2 331.401 408.7 329.801 408.2 328.301C406.9 325.001 404.6 322.401 401.8 320.301C400.8 319.501 399.6 318.801 398.2 318.701C396.5 318.601 395.1 319.801 394.7 321.501C394.2 324.001 395.4 326.301 396.8 328.301C398.1 330.101 399.6 332.101 401.6 333.101C402.8 333.701 404.1 333.901 405.3 333.201C406.5 332.501 407 331.101 407 329.701C407.1 326.401 405 322.701 402.7 320.401C401.6 319.401 400.3 318.401 398.7 318.401C396.5 318.401 395.3 320.501 395.2 322.501C395.1 324.301 396 326.001 396.9 327.501C397.8 328.801 398.6 330.101 399.6 331.401C400.7 332.901 402 334.401 403.8 335.301C405 335.901 406.5 335.601 407.2 334.401C408.7 331.801 408.2 328.301 407.6 325.501C407 322.501 405.5 319.401 402.9 317.601C400.8 316.201 397.4 315.801 395.6 317.801C394 319.501 394.3 322.001 394.9 324.001C395.5 325.901 396.3 327.701 397.3 329.401C398.6 331.601 400.5 334.001 403 334.701C404.8 335.201 407 334.801 408.3 333.501C409.5 332.301 409.9 330.701 409.9 329.001C409.9 325.701 409.1 322.301 407.9 319.301C407.2 317.501 406.4 315.301 405 313.801C403.5 312.201 401.4 312.101 399.5 313.101C398.3 313.701 397.1 314.501 395.9 315.201C394.4 316.101 392.8 317.301 392.4 319.001C392.1 320.301 392.8 321.701 394.1 322.101C395.3 321.901 396.8 321.101 397.1 319.801Z" fill="#1A6383"/>
<path d="M391.8 320.8C391.8 321 391.9 321.2 391.9 321.4C391.9 321.5 391.9 321.6 392 321.8C392 321.7 392 321.6 392 321.5C392.1 321.8 392.1 322.3 392.1 322.6C392.1 323.4 392.1 324.2 392.1 325C392.1 326.7 392.1 328.5 392.4 330.2C392.6 331.2 393.6 331.9 394.5 332C395.5 332.1 396.4 331.7 397 330.8C398.2 329.1 398.2 326.8 398.2 324.7C398.2 323.7 398.1 322.8 398.1 321.8C398.1 321.3 398.1 320.9 398.2 320.4C398.2 320 398.1 320.9 398.2 320.6C398.2 320.5 398.2 320.4 398.3 320.3C398.3 320.1 398.4 319.9 398.5 319.7C398.9 318.5 398 316.9 396.8 316.6C395.4 316.3 394.2 317 393.7 318.3C393.1 320.2 393.3 322.2 393.3 324.2C393.3 325.1 393.4 326 393.3 326.9C393.3 327 393.3 327.1 393.3 327.2C393.3 326.5 393.4 326.8 393.3 327C393.3 327.2 393.2 327.4 393.2 327.6C393.2 327.7 393.1 327.8 393.1 327.9C393.1 328.1 393.4 327.3 393.2 327.7C393.1 327.9 393 328.1 392.9 328.2C394.4 328.4 395.9 328.6 397.5 328.8C397.5 328.7 397.5 328.5 397.4 328.4C397.4 328.5 397.4 328.6 397.4 328.7C397.4 328.5 397.4 328.3 397.3 328.1C397.3 327.7 397.3 327.3 397.2 326.9C397.2 326.1 397.2 325.3 397.2 324.5C397.2 322.8 397.2 321.1 396.8 319.4C396.5 318.1 395 317.3 393.7 317.7C392.2 318.2 391.5 319.4 391.8 320.8Z" fill="#1A6383"/>
<path d="M398.8 328.601C399.7 330.701 400.9 332.601 402.1 334.501C402.7 335.501 403.2 336.501 403.7 337.501C404.2 338.401 404.4 339.101 404.7 340.201C406.2 339.601 407.7 338.901 409.3 338.301C408 335.601 407 332.801 405.7 330.101C405.1 328.901 404.5 327.701 404 326.501C403.7 325.701 403.1 323.901 403 323.101C402.9 321.801 401.9 320.501 400.5 320.601C399.3 320.701 397.9 321.701 398 323.101C398.3 326.401 399.7 329.201 401.1 332.201C402.5 335.101 403.6 338.001 405 340.901C405.5 342.001 407.1 342.401 408.1 341.901C409.2 341.401 409.9 340.201 409.5 339.001C408.2 334.301 405 330.601 403 326.201C402.4 325.001 400.7 324.701 399.6 325.301C398.5 325.901 398.3 327.401 398.8 328.601Z" fill="#1A6383"/>
<path d="M406.6 335.602C406.4 335.402 406.2 335.102 406 334.902C406.2 335.102 406.2 335.102 406 334.902C405.9 334.802 405.8 334.602 405.7 334.502C405.3 334.002 405 333.402 404.8 332.802C404.7 332.502 404.6 332.302 404.4 332.002C404.3 331.702 404.6 332.402 404.4 331.902C404.3 331.702 404.3 331.602 404.2 331.402C403.9 330.802 403.7 330.102 403.5 329.502C402.6 326.902 401.7 324.202 400.1 322.002C399.3 320.902 397.9 320.302 396.7 321.102C395.7 321.802 395 323.402 395.8 324.502C396.2 325.002 396.5 325.502 396.8 326.102C397 326.402 397.1 326.702 397.2 327.002C397.3 327.202 397.4 327.402 397.4 327.502C397.5 327.802 397.5 327.602 397.4 327.502C397.9 328.802 398.4 330.102 398.9 331.402C399.9 334.202 401 337.002 403.1 339.102C404 340.002 405.7 340.102 406.6 339.102C407.5 338.102 407.5 336.602 406.6 335.602Z" fill="#1A6383"/>
<path d="M408.7 336.1C408.7 336 408.6 335.9 408.6 335.7C408.5 335.5 408.5 335.6 408.6 335.9C407.9 336.6 407.2 337.3 406.5 337.9C406.1 337.8 405.9 337.8 406.1 337.9C406.3 337.9 405.7 337.6 406 337.9C406.1 338 406.3 338.1 406.5 338.2C406.8 338.4 407 338.6 407.3 338.7C407.8 339 406.9 338.4 407.3 338.7C407.4 338.8 407.5 338.8 407.6 338.9C408.4 339.6 409.3 339.8 410.3 339.4C411.1 339 411.9 338.1 411.8 337.1C411.2 329.2 406.6 322.5 404.1 315.2C403.7 313.9 402.4 313.1 401 313.5C399.8 313.8 398.8 315.3 399.3 316.6C401.6 323.4 406.2 329.9 406.8 337.2C408.2 336.6 409.6 336 411.1 335.4C410 334.5 408.7 333.4 407.3 333.1C406.2 332.8 405.1 333 404.3 333.8C403.3 334.8 403.4 336.2 403.8 337.4C404.2 338.7 405.5 339.5 406.9 339.1C408.1 338.9 409.1 337.4 408.7 336.1Z" fill="#1A6383"/>
<path d="M410.4 331.901C410.3 331.401 410.3 330.901 410.2 330.401C408.9 331.101 407.7 331.801 406.4 332.601C406.1 332.401 406.1 332.101 406.2 332.501C406.1 332.201 406.3 332.701 406.3 332.801C406.5 333.301 406.7 333.801 407 334.201C408.1 335.901 411.1 335.801 411.6 333.601C412.2 330.901 410.9 328.401 410.1 325.901C409.4 323.701 408.6 321.501 407.9 319.301C406.9 316.101 405.9 311.401 402.4 310.001C401.1 309.501 399.7 310.501 399.3 311.701C398.9 313.101 399.8 314.301 401 314.801C400.9 314.801 400.8 314.701 400.6 314.701C400.8 314.801 400.8 314.801 400.6 314.701C400.5 314.701 400.5 314.501 400.7 314.801C400.9 315.001 400.7 314.901 400.6 314.701C400.7 314.801 400.8 315.001 400.9 315.101C401.1 315.401 401.2 315.701 401.4 316.101C401.4 316.201 401.6 316.701 401.5 316.301C401.6 316.401 401.6 316.601 401.7 316.801C402.2 318.201 402.7 319.601 403.1 321.101C403.7 323.001 404.3 324.901 405 326.801C405.4 327.901 405.7 328.901 406.1 330.001C406.4 330.701 406.8 331.901 406.7 332.401C408.2 332.201 409.7 332.001 411.3 331.801C411.3 331.801 410.9 331.101 411.1 331.401C410.9 331.001 410.8 330.601 410.6 330.201C410.2 329.401 409.7 328.901 409 328.401C407.5 327.301 405.1 328.801 405.2 330.601C405.3 331.501 405.4 332.501 405.6 333.401C405.8 334.701 407.5 335.501 408.7 335.101C410.1 334.601 410.6 333.201 410.4 331.901Z" fill="#1A6383"/>
<path d="M396.4 316.701C396.3 316.901 396.2 317.101 396.2 317.301C396.3 317.101 396.5 316.801 396.6 316.601C396.5 316.801 396.3 316.901 396.2 317.101C396.5 316.701 397 316.301 397.4 315.901C397.2 316.001 397.1 316.201 396.9 316.301C397.4 315.901 397.8 315.601 398.4 315.401C398.2 315.501 398 315.601 397.8 315.701C398.1 315.601 398.4 315.501 398.7 315.401C398.5 315.401 398.3 315.501 398 315.501C398.2 315.501 398.4 315.501 398.6 315.501C398.4 315.501 398.2 315.401 397.9 315.401C398 315.401 398.2 315.501 398.3 315.501C398.1 315.401 397.9 315.301 397.7 315.201C397.8 315.201 397.9 315.301 398 315.401C397.8 315.301 397.7 315.101 397.5 315.001C397.6 315.101 397.7 315.201 397.8 315.301C397.7 315.101 397.5 315.001 397.4 314.801C397.5 314.901 397.6 315.101 397.7 315.301C397.6 315.101 397.5 314.901 397.4 314.701C397.5 314.801 397.5 315.001 397.5 315.201C397.8 316.501 399.3 317.401 400.6 316.901C401.9 316.501 402.7 315.201 402.3 313.801C402 312.701 401.4 311.701 400.4 311.001C399.4 310.401 398.3 310.401 397.2 310.501C396.4 310.601 395.7 311.001 395 311.401C394.3 311.801 393.6 312.301 393.1 312.901C392.7 313.301 392.4 313.701 392.1 314.101C391.8 314.501 391.7 314.901 391.5 315.301C391.3 315.901 391.5 316.701 391.8 317.201C392.1 317.701 392.7 318.201 393.3 318.301C393.9 318.401 394.7 318.401 395.2 318.001C395.4 317.901 395.5 317.701 395.7 317.601C396.1 317.501 396.3 317.101 396.4 316.701Z" fill="#1A6383"/>
<path d="M216.1 20.6997C216.8 19.7997 217.5 19.2997 218.5 19.1997H219.3C219.9 19.2997 220.5 19.4997 221 19.6997C222.9 20.4997 224.7 22.0997 225.8 23.8997C227.4 26.3997 228 29.7997 229.3 32.7997C230.6 35.8997 232.4 38.6997 232.5 42.1997C233.8 41.4997 235 40.7997 236.3 39.9997C231.8 36.9997 226.3 39.3997 222.2 41.9997C223.5 42.6997 224.7 43.3997 226 44.1997C225.6 39.1997 224.8 34.0997 223.4 29.2997C222.6 26.7997 221.7 24.3997 220.5 22.0997C220.5 22.1997 220.3 21.6997 220.4 21.9997C220.5 22.1997 220.4 21.6997 220.4 21.6997C220.4 21.1997 220.5 20.7997 220.5 20.2997C220.5 19.0997 220.2 17.8997 219.5 16.8997C218.8 18.1997 218.1 19.3997 217.3 20.6997C218.6 20.8997 219.8 21.5997 220.7 22.4997C221.8 23.5997 222.5 24.9997 223.2 26.4997C224.5 29.2997 225.3 32.8997 226.5 35.8997C228 35.2997 229.5 34.5997 231.1 33.9997C230.8 33.2997 230.5 32.5997 230.2 31.8997C228.7 32.4997 227.2 33.1997 225.6 33.7997C226 34.6997 226.4 35.5997 226.7 36.4997C228.1 35.6997 229.6 34.7997 231 33.9997C231.5 35.0997 231.1 34.0997 230.9 33.8997C230.7 33.4997 230.6 33.0997 230.4 32.6997C229.9 31.3997 229.3 30.1997 228.8 28.8997C227.8 26.5997 226.7 24.1997 225.2 22.1997C224.5 21.2997 223.7 20.1997 222.5 19.8997C220.8 19.4997 219.2 20.3997 218.7 21.9997C217.8 24.6997 219.8 28.0997 220.9 30.3997C221 30.6997 221.2 30.9997 221.3 31.2997C221.4 31.3997 221.7 32.0997 221.5 31.6997C221.3 31.1997 221.5 31.7997 221.5 31.8997C221.6 32.2997 221.7 32.5997 221.8 32.9997C221.9 33.4997 222.1 34.0997 222.2 34.6997C222.7 37.1997 223.5 39.4997 225.1 41.5997C226.3 43.0997 228.9 42.1997 229.3 40.4997C229.9 37.5997 228.8 35.3997 227.8 32.6997C226.8 30.0997 226.3 27.2997 225 24.7997C223.8 22.3997 220.5 23.7997 220.3 26.0997C220.1 29.0997 221.2 32.0997 222 34.8997C222.3 35.8997 222.6 36.7997 222.8 37.7997C222.9 38.2997 223 38.5997 223 39.0997C223 39.1997 223 39.7997 223 39.4997C223 39.7997 222.8 39.7997 223 39.5997C220.9 41.9997 224.3 45.4997 226.5 43.0997C227.3 42.1997 228 41.1997 228.9 40.3997C229.2 40.0997 229.4 39.8997 229.7 39.6997C229.4 39.8997 230 39.4997 230 39.4997C229.8 39.5997 229.8 39.5997 230 39.4997C229.7 39.4997 229.7 39.4997 230 39.4997C229.7 39.3997 229.3 39.1997 229.7 39.5997C230.5 38.1997 231.3 36.7997 232.1 35.3997C230.4 34.7997 228.9 35.6997 227.9 36.9997C227.8 37.1997 227.7 37.2997 227.5 37.4997C227.1 37.9997 227.7 37.3997 227.5 37.4997C228.3 36.7997 229.2 36.7997 230.3 37.4997C230.5 37.7997 230.5 37.7997 230.4 37.5997C230.3 37.2997 230.1 36.9997 230 36.5997C229.5 35.2997 228.3 34.4997 226.9 34.8997C225.7 35.1997 224.7 36.6997 225.2 37.9997C225.9 40.0997 227.5 43.1997 230.3 41.6997C231 41.2997 231.4 40.7997 231.8 40.0997C231.9 39.9997 231.9 39.8997 232 39.7997C232.3 39.3997 231.7 40.0997 231.9 39.8997C232.2 39.5997 231.9 39.8997 231.8 39.9997C231.5 40.0997 231.2 40.1997 230.9 40.1997C230.5 40.0997 230.4 40.0997 230.7 40.1997C233.2 41.1997 234.7 37.6997 233.1 35.9997C231.4 34.0997 228.7 34.0997 226.7 35.4997C225.1 36.5997 224.1 38.0997 222.8 39.4997C224 40.6997 225.2 41.8997 226.3 42.9997C228.4 40.6997 227.8 37.6997 227 34.9997C226.1 32.0997 224.8 29.0997 225 25.9997C223.4 26.3997 221.9 26.7997 220.3 27.2997C221.3 29.2997 221.7 31.4997 222.4 33.5997C223 35.1997 224.4 37.3997 224.1 39.0997C225.5 38.6997 226.9 38.3997 228.3 37.9997C227.3 36.7997 227.1 35.1997 226.8 33.6997C226.5 32.1997 226.1 30.6997 225.5 29.1997C224.6 27.0997 223.6 25.5997 223.1 23.4997C223 23.1997 223.1 23.5997 223.1 23.6997C223.1 23.5997 223.1 23.3997 223.1 23.2997C223 23.5997 223.1 23.7997 222.6 24.1997C222.1 24.5997 221.2 24.7997 220.8 24.6997C220.8 24.6997 220.2 24.3997 220.6 24.5997C220.2 24.3997 220.3 24.2997 220.5 24.5997C220.6 24.6997 220.7 24.7997 220.8 24.9997C221 25.1997 220.5 24.5997 220.7 24.8997C220.8 24.9997 220.8 25.0997 220.9 25.0997C221 25.2997 221.2 25.4997 221.3 25.7997C222.5 27.6997 223.4 29.6997 224.3 31.6997C224.5 32.1997 224.8 32.7997 225 33.2997C225.1 33.5997 225.2 33.7997 225.3 34.0997C225.4 34.3997 225.2 33.9997 225.2 33.8997C225.2 33.9997 225.3 34.0997 225.3 34.1997C225.6 34.8997 225.9 35.6997 226.2 36.3997C226.7 37.5997 228.6 37.8997 229.6 37.2997C230.9 36.4997 231 35.0997 230.5 33.8997C230.1 32.9997 229.7 32.0997 229.4 31.1997C228.3 28.5997 223.7 30.4997 224.8 33.0997C225.3 34.1997 225.7 35.2997 226.2 36.3997C227.3 38.9997 231.8 37.0997 230.8 34.4997C229.3 30.6997 228.4 26.7997 226.6 23.0997C224.6 18.9997 221.3 16.1997 216.7 15.5997C214.9 15.3997 213.5 17.8997 214.5 19.3997C214.9 19.9997 214.8 20.4997 214.8 21.1997C214.8 22.1997 214.8 23.0997 215.2 23.9997C216.2 26.1997 217.2 28.2997 217.9 30.5997C219.3 34.9997 220 39.5997 220.4 44.1997C220.6 45.9997 222.4 47.3997 224.2 46.3997C226.7 44.7997 230.4 42.4997 233.2 44.3997C234.8 45.3997 237 44.0997 237 42.1997C236.9 39.9997 236.4 37.9997 235.7 35.8997C234.9 33.8997 233.8 31.9997 233 29.9997C231.7 26.4997 230.8 22.8997 228.5 19.8997C224.6 14.9997 216.8 11.6997 212 17.2997C211.1 18.2997 211 19.7997 212 20.7997C213.5 21.5997 215.3 21.7997 216.1 20.6997Z" fill="#1A6383"/>
<path d="M236.6 37.5998C237.1 38.2998 236.5 37.4998 236.6 37.3998C236.7 37.7998 236.7 37.7998 236.6 37.5998C236.6 37.3998 236.6 37.2998 236.5 37.1998C236.4 36.9998 236.4 36.6998 236.3 36.4998C236.3 36.1998 236.3 36.2998 236.3 36.5998C236.3 36.4998 236.3 36.2998 236.3 36.1998C236.2 35.1998 236.2 34.0998 236.2 33.0998C236.2 31.9998 236.1 30.7998 236.1 29.6998C236.1 28.0998 236.1 27.0998 236.4 25.7998C236.7 24.4998 236 22.9998 234.7 22.6998C233.4 22.3998 232 23.0998 231.6 24.3998C230.8 27.3998 231.2 30.3998 231.2 33.3998C231.2 36.0998 231.3 38.8998 233 41.0998C233.8 42.0998 235.7 41.9998 236.5 41.0998C237.6 39.9998 237.4 38.6998 236.6 37.5998Z" fill="#1A6383"/>
<path d="M229.2 30.0996C232.4 30.0996 232.4 25.0996 229.2 25.0996C226 25.0996 226 30.0996 229.2 30.0996Z" fill="#1A6383"/>
<path d="M228.1 29.7996C228.1 29.7996 228.2 29.7996 228.2 29.8996C228.5 30.0996 228.8 30.1996 229.1 30.1996C229.4 30.2996 229.8 30.2996 230.1 30.1996C230.4 30.0996 230.7 29.9996 231 29.7996C231.3 29.5996 231.5 29.3996 231.6 29.0996C231.7 28.8996 231.8 28.6996 231.9 28.4996C232 28.0996 232 27.5996 231.9 27.1996C231.8 26.9996 231.7 26.7996 231.6 26.5996C231.4 26.1996 231.1 25.8996 230.7 25.6996C230.7 25.6996 230.6 25.6996 230.6 25.5996C230.3 25.3996 230 25.2996 229.7 25.2996C229.4 25.1996 229 25.1996 228.7 25.2996C228.4 25.3996 228.1 25.4996 227.8 25.6996C227.5 25.8996 227.3 26.0996 227.2 26.3996C227.1 26.5996 227 26.7996 226.9 26.9996C226.8 27.3996 226.8 27.8996 226.9 28.2996C227 28.4996 227.1 28.6996 227.2 28.8996C227.4 29.2996 227.7 29.5996 228.1 29.7996Z" fill="#1A6383"/>
<path d="M214.5 15.2991C217.1 19.6991 219.3 24.2991 221.8 28.7991C222.9 30.6991 224 32.5991 225.1 34.5991C225.8 35.8991 226.5 37.6991 227.6 38.6991C230 40.8991 233.5 37.2991 231.1 35.1991C230.9 34.9991 231.2 35.3991 231.2 35.3991C231.1 35.2991 231 35.0991 230.9 34.9991C230.7 34.6991 230.6 34.3991 230.4 34.0991C230 33.3991 229.6 32.5991 229.2 31.8991C228.1 29.8991 226.9 27.9991 225.8 25.8991C223.4 21.4991 221.3 17.0991 218.7 12.7991C217.1 9.99912 212.8 12.5991 214.5 15.2991Z" fill="#1A6383"/>
<path d="M214.3 14.299C216.3 18.999 219.7 22.799 222.2 27.199C222.9 28.399 224.5 28.799 225.6 28.099C226.8 27.399 227.1 25.899 226.5 24.699C225.3 22.199 223.9 19.699 222.4 17.299C221.8 16.299 221 15.399 220.3 14.499C219.9 13.999 219.5 13.499 219.2 12.899C218.9 12.399 218.6 11.999 218.5 11.599C217.1 12.399 215.7 13.199 214.3 13.999C214.6 14.299 214.9 14.599 215.2 14.899C215.3 14.999 215.7 15.499 215.4 15.099C215.5 15.299 215.7 15.399 215.8 15.599C216.4 16.399 217 17.299 217.6 18.099C219 19.999 220.5 21.599 222.7 22.499C223.9 22.999 225.6 21.999 225.8 20.799C226.1 18.999 225.5 17.599 224.7 15.999C224 14.799 223.7 13.599 223.2 12.099C221.8 12.899 220.4 13.699 219 14.499C221.5 17.099 223.5 20.199 225.5 23.199C226.5 24.699 227.2 26.299 228 27.899C228.8 29.399 230 30.799 230.5 32.399C231.7 31.499 232.9 30.499 234.2 29.599C233.4 29.099 232.7 28.299 231.9 27.699C230.9 26.799 229.4 26.699 228.4 27.699C227.5 28.599 227.4 30.299 228.4 31.199C229.5 32.099 230.5 33.099 231.7 33.899C233.5 35.099 236.1 33.099 235.4 31.099C234.7 29.199 233.6 27.599 232.6 25.899C231.6 24.199 230.9 22.399 229.8 20.799C227.6 17.399 225.3 13.999 222.6 11.099C220.9 9.29905 217.6 11.099 218.4 13.499C218.9 14.899 219.2 16.299 219.9 17.699C220.1 18.199 220.4 18.699 220.7 19.099C220.8 19.399 220.9 19.399 220.9 19.499C221 19.899 220.9 19.899 221 19.499C222 18.899 223.1 18.299 224.1 17.799C224.6 17.999 223.9 17.699 223.9 17.599C223.8 17.499 223.6 17.399 223.5 17.299C223.9 17.599 223.3 17.099 223.3 17.099C223.1 16.999 223 16.799 222.9 16.699C222.2 15.999 222 15.699 221.4 14.799C220.3 13.299 219.3 11.699 218 10.499C217.2 9.79905 216 9.49905 215 10.099C214.1 10.599 213.5 11.899 213.9 12.899C214.8 15.499 216.6 17.299 218.1 19.499C219.7 21.899 221.1 24.499 222.4 27.099C223.8 26.299 225.3 25.399 226.7 24.599C224.2 20.199 220.8 16.399 218.8 11.699C218.3 10.499 216.4 10.199 215.4 10.799C213.9 11.599 213.7 12.999 214.3 14.299Z" fill="#1A6383"/>
<path d="M227 23.5984C226.7 23.3984 226.5 23.0984 226.3 22.7984C226.4 22.9984 226.6 23.0984 226.7 23.2984C226 22.3984 225.6 21.2984 225 20.3984C224.2 19.0984 223.1 18.0984 222 17.0984C221.5 16.6984 220.9 16.3984 220.2 16.3984C219.6 16.3984 218.9 16.6984 218.4 17.0984C218 17.5984 217.6 18.1984 217.7 18.8984C217.7 19.4984 217.9 20.1984 218.4 20.6984C219.2 21.3984 220.1 22.1984 220.7 23.0984C220.6 22.8984 220.4 22.7984 220.3 22.5984C221.4 24.0984 221.9 25.9984 223.4 27.1984C223.9 27.5984 224.5 27.8984 225.2 27.8984C225.8 27.8984 226.5 27.5984 227 27.1984C227.4 26.6984 227.8 26.0984 227.7 25.3984C227.7 24.7984 227.5 24.0984 227 23.5984Z" fill="#1A6383"/>
<path d="M212.2 16.599C214.1 22.099 216.8 27.499 218.9 32.699C219.4 33.899 220.6 34.899 222 34.399C223.2 33.999 224.3 32.599 223.7 31.299C221.5 25.799 218.9 20.699 217 15.199C216.6 13.999 215.3 12.999 213.9 13.499C212.7 13.999 211.7 15.299 212.2 16.599Z" fill="#1A6383"/>
<path d="M217.9 34.4988C218.5 36.1988 219 37.8988 219.2 39.6988C219.2 39.4988 219.1 39.2988 219.1 38.9988C219.1 39.0988 219.1 39.1988 219.1 39.2988C219.1 39.5988 219.2 39.9988 219.3 40.2988C219.4 40.5988 219.6 40.8988 219.8 41.0988C220.2 41.4988 220.9 41.8988 221.6 41.7988C222.2 41.7988 222.9 41.5988 223.4 41.0988C223.8 40.5988 224.2 39.9988 224.1 39.2988C223.8 37.1988 223.4 35.1988 222.7 33.1988C222.5 32.5988 222.1 32.0988 221.6 31.6988C221.1 31.3988 220.3 31.2988 219.7 31.3988C219.1 31.5988 218.5 31.9988 218.2 32.4988C217.8 33.1988 217.6 33.8988 217.9 34.4988Z" fill="#1A6383"/>
<path d="M212.1 20.5C213.4 24 214.2 27.7 215.5 31.3C216.1 32.9 216.7 34.5 217.2 36.1C217.6 37.5 218.1 39 219.1 40.2C220 41.2 221.7 41.1 222.6 40.2C223.6 39.2 223.5 37.6 222.6 36.7C223 37.2 222.5 36.6 222.5 36.4C222.7 36.8 222.3 35.9 222.3 35.8C222.1 35.3 222 34.7 221.8 34.1C221.3 32.5 220.6 30.9 220.1 29.3C219 26 218.2 22.5 217 19.2C216.5 17.9 215.3 17.1 213.9 17.5C212.7 17.8 211.7 19.3 212.1 20.5Z" fill="#1A6383"/>
<path d="M212.6 22.2995C214.4 25.7995 215.3 29.6995 216.8 33.3995C217.5 34.9995 218.2 36.4995 218.7 38.1995C219.1 39.6995 219.7 41.5995 221.2 42.2995C222.4 42.8995 223.9 42.5995 224.6 41.3995C225.2 40.2995 224.9 38.5995 223.7 37.9995C223.4 37.8995 223.8 38.0995 223.9 38.0995C224.1 38.2995 224.2 38.2995 224 38.0995C223.9 37.9995 223.9 37.7995 224 38.0995C223.9 37.9995 223.9 37.7995 223.8 37.6995C223.6 37.0995 223.5 36.5995 223.3 35.9995C222.7 34.1995 221.8 32.4995 221.1 30.6995C219.7 26.9995 218.7 23.1995 216.9 19.6995C216.3 18.4995 214.6 18.0995 213.5 18.7995C212.2 19.5995 211.9 21.0995 212.6 22.2995Z" fill="#1A6383"/>
<path d="M211.7 19.999C212.1 21.299 212.6 22.499 213.2 23.699C213.5 24.199 213.7 24.799 214 25.299C214.1 25.599 214.3 25.799 214.4 26.099C214.5 26.199 214.5 26.399 214.6 26.499C214.8 26.899 214.5 26.199 214.6 26.499C215.4 28.599 216 30.899 217.3 32.799C218 33.899 219.5 34.499 220.7 33.699C221.8 32.999 222.4 31.399 221.6 30.299C221.3 29.899 221.1 29.399 220.9 28.999C220.8 28.899 220.5 28.099 220.8 28.699C220.7 28.499 220.6 28.199 220.5 27.999C220.1 26.999 219.8 26.099 219.4 25.099C218.9 23.899 218.3 22.799 217.8 21.599C217.5 21.099 217.3 20.499 217 19.899C217.2 20.399 216.9 19.499 216.8 19.499C216.7 19.199 216.6 18.899 216.5 18.699C216.1 17.499 214.7 16.499 213.4 16.999C212.2 17.399 211.3 18.699 211.7 19.999Z" fill="#1A6383"/>
<path d="M219.2 39.3C219.9 41 220.4 42.7 221.4 44.2C221.8 44.7 222.2 45.2 222.9 45.3C223.5 45.5 224.3 45.4 224.8 45C225.3 44.7 225.8 44.1 225.9 43.5C226 42.9 226 42.1 225.6 41.6C225.2 41 224.8 40.3 224.6 39.6C224.7 39.8 224.8 40 224.9 40.2C224.6 39.4 224.3 38.6 224 37.9C223.9 37.6 223.8 37.3 223.6 37C223.4 36.7 223.2 36.5 222.9 36.4C222.4 36.1 221.6 36 221 36.1C220.4 36.3 219.8 36.7 219.5 37.2C219.1 38 218.9 38.7 219.2 39.3Z" fill="#1A6383"/>
<path d="M217.9 37.6984C218.1 38.6984 218.5 39.6984 219 40.6984C219.5 41.6984 220.1 42.4984 220.8 43.3984C221.2 43.8984 222 44.0984 222.6 44.0984C223.2 44.0984 223.9 43.7984 224.4 43.3984C224.8 42.8984 225.2 42.2984 225.1 41.5984C225.1 41.3984 225 41.1984 225 40.8984C224.9 40.4984 224.7 40.0984 224.4 39.7984C224.4 39.7984 224.4 39.7984 224.4 39.6984C224.5 39.8984 224.7 39.9984 224.8 40.1984C224.1 39.2984 223.6 38.3984 223.2 37.3984C223.3 37.5984 223.4 37.7984 223.5 37.9984C223.3 37.3984 223.1 36.8984 223 36.2984C222.9 35.6984 222.3 35.0984 221.9 34.7984C221.4 34.4984 220.6 34.3984 220 34.4984C219.4 34.6984 218.8 35.0984 218.5 35.5984C218.4 35.7984 218.3 35.9984 218.2 36.1984C217.8 36.7984 217.8 37.1984 217.9 37.6984Z" fill="#1A6383"/>
<path d="M218 38.1984C218.2 39.2984 218.7 40.2984 219.2 41.2984C219.6 42.0984 220.1 42.9984 220.6 43.6984C221 44.1984 221.5 44.6984 222.1 44.7984C222.7 44.9984 223.5 44.8984 224 44.4984C224.5 44.1984 225 43.5984 225.1 42.9984C225.2 42.3984 225.2 41.5984 224.8 41.0984C224.1 39.9984 223.5 38.8984 223 37.7984C223.1 37.9984 223.2 38.1984 223.3 38.3984C223.1 37.8984 222.9 37.2984 222.8 36.7984C222.7 36.1984 222.2 35.5984 221.7 35.2984C221.2 34.9984 220.4 34.8984 219.8 34.9984C219.2 35.1984 218.6 35.5984 218.3 36.0984C217.9 36.8984 217.9 37.4984 218 38.1984Z" fill="#1A6383"/>
<path d="M218.6 39.4992C219.2 41.6992 220.1 43.8992 221.7 45.5992C222.1 46.0992 222.8 46.2992 223.5 46.2992C224.1 46.2992 224.8 45.9992 225.3 45.5992C225.7 45.0992 226.1 44.4992 226 43.7992C226 43.0992 225.7 42.4992 225.3 41.9992C225.1 41.7992 225 41.6992 224.9 41.4992C225 41.6992 225.2 41.7992 225.3 41.9992C224.8 41.2992 224.4 40.4992 224 39.6992C224.1 39.8992 224.2 40.0992 224.3 40.2992C224 39.5992 223.7 38.7992 223.5 38.0992C223.3 37.4992 222.9 36.8992 222.4 36.5992C221.9 36.2992 221.1 36.1992 220.5 36.2992C219.9 36.4992 219.3 36.8992 219 37.3992C218.5 38.1992 218.4 38.8992 218.6 39.4992Z" fill="#1A6383"/>
<path d="M359.3 131.199C362.7 123.499 367 116.999 373.8 111.699C380.8 106.199 389.6 104.099 392.3 94.3987C396.1 80.4987 372.4 66.2987 360.7 67.7987C360.7 69.1987 360.1 71.3987 360.4 72.8987C360.2 62.8987 345.3 69.3987 351 75.3987C350.1 75.5987 350.1 75.1987 349.1 75.5987C347.8 80.3987 352.7 82.6987 349.9 86.9987C347.7 90.2987 341.7 87.5987 340.7 93.1987C341.6 93.4987 342.6 94.2987 343.5 94.5987C337 104.799 328 115.199 344.1 120.699C337.6 130.299 354.2 131.099 357.3 132.499" fill="#1A6383"/>
<path d="M361.5 132.499C364.8 125.199 369.2 118.399 375.6 113.499C381.1 109.399 387.7 106.899 391.8 101.199C393.7 98.4994 395 95.0994 395.1 91.6994C395.2 88.7994 394.3 85.8994 392.9 83.3994C389.9 77.8994 384.7 73.5994 379.3 70.4994C373.9 67.3994 367 64.5994 360.6 65.3994C359.2 65.5994 358.2 66.3994 358.1 67.8994C358 69.8994 357.5 71.6994 357.9 73.5994C358.4 76.3994 362.9 75.6994 362.8 72.8994C362.7 70.1994 361.7 67.3994 359.2 66.0994C357.2 64.9994 354.7 64.9994 352.6 65.7994C350.5 66.5994 348.6 67.9994 347.7 69.9994C346.5 72.5994 347.3 75.1994 349.1 77.1994C349.7 75.7994 350.3 74.3994 350.9 72.8994C349 73.0994 347.1 72.9994 346.5 75.2994C346.1 76.7994 346.2 78.3994 346.7 79.8994C347.1 81.1994 347.6 81.9994 348 83.1994C348.1 83.3994 348.2 83.6994 348.2 83.8994C348.3 84.1994 348.3 84.1994 348.2 83.9994C348.2 84.0994 348.2 84.2994 348.2 84.3994C348.2 84.5994 348.2 84.5994 348.2 84.3994C348.2 84.5994 348.1 84.7994 348.1 84.8994C348 85.1994 348 85.1994 347.8 85.3994C347.4 86.1994 348 85.1994 347.6 85.6994C347.2 86.0994 347.8 85.4994 347.4 85.8994C347.3 85.9994 347.1 85.9994 347 86.0994C347.2 85.9994 347.3 85.9994 347.1 86.0994C346.9 86.1994 346.6 86.2994 346.3 86.2994C345.3 86.5994 344.3 86.6994 343.3 86.9994C340.6 87.7994 338.6 89.6994 338 92.4994C337.7 93.8994 338.4 95.0994 339.7 95.5994C340.7 95.9994 341.5 96.5994 342.5 96.9994C342 95.7994 341.5 94.5994 341 93.2994C337.9 98.1994 333.5 103.399 332.5 109.299C332 111.999 332.3 114.899 334 117.199C336.2 120.299 339.7 121.899 343.2 123.099C342.7 121.899 342.2 120.699 341.7 119.399C340.3 121.599 339.3 124.299 340.2 126.899C341 129.099 342.9 130.599 345 131.599C347.1 132.599 349.3 133.199 351.5 133.699C352.4 133.899 353.3 134.099 354.3 134.299C354.7 134.399 355.1 134.499 355.5 134.599C355.8 134.699 356.8 135.099 355.8 134.699C357 135.299 358.5 135.099 359.2 133.799C359.8 132.699 359.5 130.899 358.3 130.399C355.2 128.999 351.5 128.799 348.3 127.599C348.1 127.499 347.9 127.499 347.7 127.399C348.3 127.599 347.4 127.299 347.4 127.199C347 126.999 346.6 126.799 346.3 126.599C346.1 126.499 345.9 126.399 345.8 126.199C346.3 126.599 345.8 126.199 345.7 126.099C345.5 125.899 345.4 125.799 345.2 125.599C345.6 125.999 345.3 125.699 345.2 125.599C345.1 125.399 344.9 124.799 345.1 125.499C345 125.299 345 125.199 345 124.999C344.9 124.599 344.9 125.499 345 124.899C345 124.699 345 124.499 345 124.299C344.9 125.099 345.4 123.299 345.2 123.699C345.4 123.099 345.8 122.599 346.1 121.999C347 120.599 346 118.799 344.6 118.299C343 117.799 341.5 117.099 340.2 116.199C339.4 115.699 338.6 114.899 338.2 114.299C338 113.999 337.9 113.799 337.7 113.499C337.9 113.999 337.6 113.299 337.6 113.299C337.5 113.099 337.5 112.799 337.4 112.599C337.3 111.999 337.4 112.799 337.4 112.299C337.4 110.999 337.4 110.799 337.7 109.599C338.3 107.399 339.5 105.399 340.8 103.199C342.3 100.799 343.9 98.3994 345.5 95.9994C346.5 94.4994 345.4 92.8994 344 92.2994C343 91.8994 342.2 91.2994 341.2 90.8994C341.8 91.8994 342.4 92.9994 342.9 93.9994C343 93.3994 343.1 93.1994 343.4 92.6994C343.2 92.9994 343.6 92.4994 343.6 92.4994C343.9 92.1994 343.5 92.4994 343.7 92.3994C343.8 92.3994 344.3 92.0994 344.1 92.1994C343.8 92.2994 344.4 92.0994 344.4 92.0994C344.8 91.9994 345.3 91.8994 345.8 91.7994C347.8 91.3994 349.8 90.8994 351.2 89.3994C353 87.3994 353.5 84.5994 352.7 82.0994C352.1 80.1994 350.9 78.5994 351.4 76.5994C350.8 77.1994 350.2 77.7994 349.7 78.2994C350.2 78.0994 350.2 78.1994 350.9 78.0994C353 77.8994 354.2 75.4994 352.7 73.7994C352.6 73.6994 352.3 73.2994 352.5 73.5994C352.4 73.3994 352.3 73.2994 352.2 73.0994C351.9 72.5994 352.3 73.4994 352.2 72.9994C352.2 72.7994 352.1 72.6994 352.1 72.4994C352.2 72.7994 352.1 72.8994 352.1 72.4994C352.1 71.9994 352 72.8994 352.1 72.5994C352.2 72.4994 352.2 72.2994 352.2 72.0994C352.3 71.7994 351.9 72.5994 352.2 72.1994C352.3 72.0994 352.4 71.8994 352.4 71.7994C352.7 71.2994 352 72.1994 352.4 71.7994C352.6 71.5994 352.9 71.2994 353.1 71.0994C352.6 71.4994 353.4 70.9994 353.5 70.7994C353.7 70.6994 353.8 70.5994 354 70.5994C354.2 70.4994 353.5 70.6994 354.1 70.5994C354.4 70.4994 354.7 70.3994 355.1 70.2994C355.3 70.2994 355.8 70.1994 355.1 70.2994C355.3 70.2994 355.4 70.2994 355.6 70.2994C355.8 70.2994 355.9 70.2994 356.1 70.2994C356.6 70.2994 355.6 70.1994 356.1 70.2994C356.2 70.2994 356.4 70.3994 356.5 70.3994C357 70.4994 356.4 70.2994 356.5 70.3994C356.6 70.4994 356.7 70.4994 356.9 70.5994C357.3 70.7994 356.6 70.2994 356.9 70.5994C357 70.6994 357.1 70.7994 357.3 70.9994C356.9 70.4994 357.3 70.9994 357.3 71.0994C357.3 71.1994 357.6 71.7994 357.4 71.1994C357.5 71.3994 357.5 71.5994 357.6 71.7994C357.6 71.8994 357.7 72.4994 357.7 72.1994C357.7 71.9994 357.7 72.7994 357.7 72.8994C359.3 72.6994 361 72.4994 362.6 72.1994C362.4 70.7994 362.9 69.1994 363 67.7994C362.2 68.5994 361.3 69.4994 360.5 70.2994C365.4 69.6994 370.4 71.4994 374.8 73.6994C379.8 76.1994 384.7 79.8994 387.7 84.3994C388.4 85.4994 389 86.5994 389.3 87.4994C389.5 88.0994 389.7 88.5994 389.8 89.1994C389.9 89.4994 389.9 89.7994 390 90.0994C389.9 89.6994 390 90.4994 390 90.6994C390.1 92.1994 390 92.7994 389.6 94.0994C389.2 95.5994 388.5 96.9994 387.6 98.2994C384.1 103.299 377.7 105.499 373 109.099C365.8 114.499 360.8 121.799 357.1 129.899C356.5 131.099 356.7 132.599 358 133.299C359.2 133.999 360.9 133.699 361.5 132.499Z" fill="#1A6383"/>
<path d="M332.8 103.099C333.6 103.999 334.3 105.099 335.1 105.999C336 106.999 337.1 107.799 338.4 108.299C339.6 108.699 340.9 108.699 342.1 108.499C343.2 108.299 344.4 107.999 345.3 107.199C346.5 106.099 344.7 104.299 343.5 105.399C343.3 105.599 343.7 105.299 343.4 105.499C343.3 105.499 343.2 105.599 343.2 105.599C343.1 105.599 343.1 105.699 343 105.699C343.1 105.699 343.1 105.699 343 105.699C342.9 105.699 342.8 105.799 342.7 105.799C342.5 105.899 342.2 105.899 342 105.999C341.7 106.099 341.6 106.099 341.4 106.099C340.9 106.099 340.4 106.199 339.9 106.099C339.9 106.099 339.5 106.099 339.7 106.099C339.8 106.099 339.5 106.099 339.5 105.999C339.3 105.999 339.1 105.899 338.9 105.799C336.9 104.999 335.9 102.899 334.6 101.299C334.2 100.799 333.3 100.799 332.8 101.299C332.3 101.799 332.4 102.599 332.8 103.099Z" fill="white"/>
<path d="M338.3 97.3001C341.2 93.8001 347.3 96.1001 349.8 99.0001C351.5 101 352.5 103.6 353.2 106.2C353.6 107.8 354.3 109.6 356.1 109.8C359.4 110.3 360.4 106.1 360.8 103.6C361 102.1 361.1 100.5 361.1 98.9001C361.1 96.5001 360.5 94.3001 360 92.0001C359.7 90.4001 359.5 88.7001 360 87.1001C360.5 85.7001 361.5 84.3001 362.5 83.2001C364.9 80.8001 368.6 80.3001 371.7 79.4001C372.5 79.2001 372.1 78.0001 371.4 78.2001C368.7 79.0001 365.6 79.5001 363.2 81.0001C361.3 82.2001 359.7 84.3001 358.9 86.4001C357.9 88.9001 358.6 91.6001 359.1 94.1001C359.6 96.2001 359.8 98.1001 359.7 100.2C359.7 102.1 359.5 109.4 356 108.4C355 108.1 354.7 106.9 354.4 106C354.1 105 353.9 104 353.5 103C352.6 100.7 351.4 98.4001 349.4 96.8001C346.2 94.3001 340.4 92.7001 337.4 96.3001C336.9 97.1001 337.8 98.0001 338.3 97.3001Z" fill="white"/>
<path d="M345.7 78.5988C346.5 78.5988 346.5 77.2988 345.7 77.2988C344.9 77.2988 344.9 78.5988 345.7 78.5988Z" fill="white"/>
<path d="M346 72.8995C347.6 75.0995 350.8 74.3995 352.9 73.3995C354.6 72.5995 358.5 70.3995 357 67.8995C356.4 66.9995 355.2 67.0995 354.4 67.6995C353.6 68.2995 353.4 69.3995 353.5 70.3995C353.9 72.9995 355.7 75.1995 358 76.2995C359.9 77.1995 362 77.5995 364.1 77.8995C365.2 78.0995 366.2 78.1995 367.3 78.0995C368.5 77.9995 369.6 77.5995 370.8 77.3995C371.6 77.1995 371.3 75.9995 370.5 76.1995C368.7 76.5995 367.1 76.9995 365.2 76.7995C363.6 76.5995 361.9 76.3995 360.3 75.8995C357.8 75.0995 355.9 73.6995 355 71.0995C354.8 70.5995 354.7 70.0995 354.8 69.5995C354.8 69.2995 355.4 68.0995 356 68.5995C356.3 68.8995 355.9 69.7995 355.8 69.9995C355.4 70.6995 354.5 71.1995 353.9 71.5995C352.3 72.5995 348.7 74.2995 347.2 72.3995C346.6 71.5995 345.5 72.1995 346 72.8995Z" fill="white"/>
<path d="M366 100.1C366.2 99.6996 366.4 99.1996 366.9 99.2996C367.5 99.3996 368 99.9996 368.3 100.4C369 101.5 368.9 103 368.5 104.2C368 105.4 367.1 106.5 366.1 107.3C365.3 107.9 364.3 108.6 363.4 109C363 109.2 362.5 109.3 362.1 109.4C361.9 109.4 361.7 109.4 361.5 109.4C361.5 109.5 361.5 109.3 361.5 109.3C361.6 108.5 360.3 108.5 360.2 109.3C360.1 110.8 361.8 110.8 362.8 110.5C364.1 110.2 365.3 109.5 366.3 108.6C367.7 107.6 368.9 106.2 369.5 104.6C370.1 103 370 100.9 368.9 99.4996C368.4 98.7996 367.6 98.1996 366.7 98.0996C365.8 98.0996 365.1 98.6996 364.7 99.5996C364.6 100.2 365.7 100.8 366 100.1Z" fill="white"/>
<path d="M362.7 106.4C363.3 106.4 363.9 106.3 364.5 106C365 105.7 365.4 105.2 365.5 104.6C365.6 104.2 365.6 103.8 365.5 103.4C365.5 103.3 365.3 103.1 365.2 103C365.1 102.9 364.9 102.9 364.7 102.9C364.4 103 364.2 103.3 364.3 103.7V103.8C364.3 103.7 364.3 103.7 364.3 103.6C364.3 103.8 364.3 104 364.3 104.2C364.3 104.1 364.3 104.1 364.3 104C364.3 104.1 364.3 104.2 364.2 104.3C364.2 104.3 364.1 104.5 364.2 104.4C364.3 104.3 364.2 104.4 364.2 104.4C364.2 104.4 364.2 104.5 364.1 104.5C364.1 104.5 364.1 104.5 364.1 104.6C364.2 104.4 364.2 104.5 364.1 104.5C364 104.6 364 104.6 363.9 104.7C363.8 104.8 364 104.7 364 104.7C364 104.7 364 104.7 363.9 104.7L363.8 104.8C363.8 104.8 363.7 104.8 363.7 104.9C363.7 104.9 363.7 104.9 363.6 104.9C363.5 104.9 363.8 104.8 363.7 104.9C363.5 105 363.3 105 363.1 105C363.2 105 363.2 105 363.3 105C363.1 105 362.9 105 362.7 105C362.4 105 362.1 105.3 362.1 105.6C362.1 106.1 362.4 106.4 362.7 106.4Z" fill="white"/>
<path d="M359 134.5L393.5 163C393.5 163 417.5 267 404.5 312C404.5 312 401.5 311 391.5 313C391.5 313 380 288.3 381.6 263.2C382.1 254.9 380.1 246.6 375.8 239.6C371 231.9 365.4 220.2 362.9 204.7" stroke="#EE9B4B" stroke-width="4" stroke-miterlimit="10" stroke-linecap="round" stroke-linejoin="round"/>
<path d="M260.6 91.4003C257.8 90.6003 255 92.0003 252.9 93.8003C251.9 94.7003 251.1 95.7003 250.3 96.7003C249.7 97.5003 249.1 98.3003 248.7 99.2003C248.1 100.4 248.3 102 249.6 102.6C250.7 103.2 252.4 103 253 101.7C253.4 100.9 253.9 100.2 254.4 99.4003C254.4 99.3003 254.5 99.3003 254.5 99.2003C254.4 99.3003 254.3 99.4003 254.3 99.5003C254.4 99.4003 254.5 99.3003 254.6 99.2003C254.8 99.0003 254.9 98.8004 255.1 98.6004C255.5 98.2004 255.8 97.8003 256.2 97.5003C256.4 97.3003 256.6 97.2003 256.8 97.0003C257.1 96.7003 256.3 97.4004 256.7 97.1004C256.8 97.0004 256.9 96.9003 257 96.9003C257.2 96.8003 257.4 96.6003 257.6 96.5003C257.8 96.4003 258.7 96.1003 257.8 96.4003C258 96.3003 258.2 96.2003 258.4 96.2003C258.5 96.2003 258.6 96.1003 258.7 96.1003C259.3 96.0003 258.1 96.1003 258.5 96.1003C258.7 96.1003 258.9 96.1003 259.1 96.1003C259.5 96.1003 258.4 96.0003 258.8 96.1003C258.9 96.1003 259.1 96.2003 259.2 96.2003C260.5 96.6003 262 95.8003 262.3 94.5003C262.6 93.1003 261.9 91.8003 260.6 91.4003Z" fill="#EE9B4B"/>
<path d="M294.5 191L322.5 206L343.5 242L285.5 301L283.5 384C283.5 384 267.5 400 258.5 387L242.5 306C242.5 306 221.5 260 277.5 224L206.5 233L149.5 274C149.5 274 129.5 268 135.5 254L181.5 214C181.5 214 191.5 202 236.5 192L261.5 186" fill="#1A6383"/>
<path d="M379.3 170.8C373.1 175.5 368 181.9 364.7 189C362.3 194.1 360.9 199.8 360.1 205.3C359.8 207.6 359.1 211 360.4 213.1C362.1 215.8 366.5 213.3 364.7 210.6C364.5 210.3 364.7 210.6 364.7 210.8C364.7 210.7 364.6 210.5 364.6 210.4C364.6 210 364.6 211 364.6 210.3C364.6 210.1 364.6 209.8 364.6 209.6C364.6 209.1 364.6 208.7 364.7 208.2C364.7 207.9 364.7 207.7 364.8 207.4C364.8 207.1 364.9 206.9 364.9 206.8C365.3 204.2 365.9 201.6 366.5 199C368 193.3 370.4 188.2 373.9 183.5C376.2 180.4 378.8 177.5 381.9 175.2C383 174.4 383.5 173 382.8 171.8C382.2 170.7 380.4 170 379.3 170.8Z" fill="#EE9B4B"/>
<path d="M263.6 184.9C264.5 185.7 265 186.8 265.8 187.7C267 189 268.7 189.4 270.4 190.1C273.6 191.5 277.1 191.9 280.6 191.9C282 191.9 289.7 192.8 290.6 191.9C292.1 190.2 287.5 190.1 287 190.1C284.6 190.1 282.1 190.3 279.8 189.8C278.1 189.4 276.8 188.3 275.2 187.8C273.6 187.3 271.9 187.4 270.3 187.4" fill="white"/>
<path d="M261.8 186.6C262.6 187.4 263.1 188.4 263.9 189.3C264.8 190.3 265.9 190.9 267.2 191.5C269.5 192.5 271.8 193.4 274.3 193.9C277.8 194.5 281.5 194.5 285.1 194.8C287.8 195 292.4 195.6 293.3 192.1C294.4 188.2 289.1 187.7 286.5 187.7C283.9 187.7 281.2 188.1 278.8 186.8C277.5 186.2 276.3 185.5 274.9 185.2C273.3 184.9 271.8 185 270.2 185C267 185 267 190 270.2 190C272.3 190 273.9 189.9 275.8 190.9C277.7 191.9 279.5 192.5 281.7 192.7C283.5 192.9 285.4 192.7 287.2 192.7C287.6 192.7 288 192.7 288.4 192.8C287.7 192.7 289.4 193 289.4 193C289.3 193.1 288.9 192.7 288.9 192.7C288.6 192.3 288.4 191 288.6 190.5C288.8 190.1 289.1 190.1 289.3 189.8C289.4 189.7 289.6 189.7 289.4 189.8C289.3 189.8 289.2 189.9 289.1 189.9C289.1 189.9 289.6 189.8 289.3 189.9C289 189.9 288.7 189.9 288.4 190C287.1 190 285.8 190 284.5 189.9C281.8 189.7 279 189.8 276.4 189.4C274.1 189.1 271.9 188.2 269.7 187.4C268.9 187.1 268 186.7 267.4 186C266.6 185.2 266.1 184.2 265.3 183.3C263.1 180.8 259.6 184.3 261.8 186.6Z" fill="white"/>
<path d="M323.6 206.801C323.1 208.401 323 211.001 322.9 212.701C322.7 215.301 324.1 216.801 326 218.501C327.7 220.001 329.7 221.001 331.5 222.401C333 223.601 333.9 225.301 335.9 225.901C332.2 220.901 326 217.001 324.7 210.501" fill="white"/>
<path d="M321.1 206.201C320.7 207.401 320.6 208.701 320.5 209.901C320.4 211.001 320.3 212.201 320.3 213.301C320.3 215.901 321.7 218.001 323.5 219.701C325.4 221.501 327.6 222.601 329.6 224.201C330.4 224.801 331 225.601 331.7 226.301C332.7 227.301 333.8 228.001 335.1 228.401C337 229.001 339.3 226.501 337.9 224.701C335.9 222.001 333.5 219.801 331.3 217.301C329.3 215.101 327.6 212.801 327 209.901C326.7 208.601 325.2 207.801 323.9 208.201C322.5 208.601 321.9 210.001 322.2 211.301C323 214.801 325 217.701 327.3 220.301C328.4 221.501 329.5 222.701 330.6 223.801C331.1 224.401 331.7 224.901 332.2 225.501C332.7 226.101 333.4 226.801 333.6 227.201C334.5 226.001 335.5 224.801 336.4 223.501C336.2 223.401 335.8 223.201 335.6 223.101C335.7 223.201 335.3 222.801 335.3 222.801C335.1 222.701 335 222.501 334.8 222.401C334.2 221.701 333.5 221.101 332.8 220.501C331 219.101 329 218.101 327.3 216.601C327 216.301 326.6 216.001 326.3 215.601C326.1 215.401 326 215.301 325.9 215.101C325.8 215.001 325.8 215.001 325.9 215.101C325.9 215.001 325.8 215.001 325.8 214.901C325.7 214.701 325.5 214.501 325.4 214.301C325.5 214.601 325.4 214.201 325.3 214.101C325.3 214.001 325.2 213.501 325.2 213.901C325.2 213.701 325.2 213.401 325.2 213.201C325.2 211.201 325.3 209.201 325.9 207.501C326.3 206.201 325.4 204.801 324.2 204.401C322.9 204.001 321.5 204.901 321.1 206.201Z" fill="white"/>
<path d="M343.5 154.799C344.9 160.799 346.5 167.199 345.4 173.299C344.4 178.999 341.4 184.199 337 187.999C330.1 194.099 319.4 198.399 316.6 208.199C315.8 210.899 315.7 213.899 316.4 216.599C317.2 219.499 319.1 221.699 321.5 223.499C323.8 225.199 326.4 226.399 328.6 228.199C331.1 230.199 333.3 232.599 335.1 235.299C338 239.799 339.4 246.399 345 248.299C351.4 250.399 356.5 245.199 359.1 240.099C361.3 235.899 362.4 231.599 363.2 226.999C364.1 221.999 364.8 216.699 364.6 211.599C364.6 210.599 364.5 209.699 364.3 208.799C364 207.499 362.4 206.699 361.2 207.099C359.8 207.499 359.2 208.799 359.5 210.199C359.5 210.299 359.6 210.899 359.5 210.199C359.5 210.399 359.5 210.599 359.6 210.799C359.6 211.199 359.7 211.699 359.7 212.099C359.7 213.199 359.7 214.299 359.6 215.499C359.5 217.799 359.2 220.299 358.9 222.599C358.3 226.799 357.7 231.199 356.1 235.099C355.3 236.999 354.1 239.399 352.7 241.199C351.3 242.899 349.5 244.099 347.4 243.899C345.3 243.699 344.3 242.099 343.3 240.199C342 237.699 340.9 235.199 339.4 232.799C337.6 230.099 335.6 227.699 333.1 225.599C330.8 223.599 328.3 222.099 325.7 220.399C323.9 219.299 322.1 217.999 321.4 215.999C320.6 213.699 320.8 211.399 321.5 209.299C321.8 208.399 322 207.999 322.5 206.999C323.1 205.899 323.6 205.299 324.3 204.499C325.7 202.899 327.5 201.299 329 200.199C332.8 197.299 337 194.699 340.6 191.499C345.4 187.199 348.9 181.099 350 174.799C351.3 167.699 349.8 160.599 348.1 153.599C347.5 150.399 342.7 151.699 343.5 154.799Z" fill="#EE9B4B"/>
<path d="M290 144.5C235 117.5 236 104.5 236 104.5L221 50.4999C229 39.4999 240 46.4999 240 46.4999L260 93.4999L339 127.5C339 127.5 319.5 139 312.5 168C312.5 168 299.5 208 264.5 190C264.5 190 249.7 181.1 249.4 171C249.3 168.3 250.8 165.9 253.1 164.6L290 144.5Z" stroke="#EE9B4B" stroke-width="4" stroke-miterlimit="10" stroke-linecap="round" stroke-linejoin="round"/>
<path d="M137.3 254.999C136.8 255.199 136.3 255.299 135.8 255.399C135.5 255.499 136.5 255.399 135.9 255.399C135.8 255.399 135.6 255.399 135.5 255.399C135.2 255.399 134.8 255.399 134.5 255.399C133.9 255.399 133.3 255.299 132.7 255.299C132.5 255.299 132.4 255.299 132.2 255.199C132.9 255.299 132.2 255.199 132.1 255.199C131.7 255.099 131.4 255.099 131 254.999C128 254.499 125 253.599 122.1 252.899C117.4 251.799 109.9 249.999 106.8 255.099C105.1 257.899 105.6 261.699 106.3 264.699C107.4 269.299 109.3 273.899 112.7 277.299C114.3 278.899 116.2 280.199 118.1 281.299C120.2 282.399 122.4 282.999 124.6 283.899C124.2 283.699 124.6 283.899 124.7 283.899C124.9 283.999 125.2 284.099 125.4 284.299C125.8 284.499 126.2 284.799 126.6 284.999C127.6 285.599 128.5 286.199 129.5 286.799C131.4 287.999 133.3 289.299 135.3 290.199C137.5 291.199 139.9 292.099 142.4 291.399C145.1 290.699 146.8 288.399 147.7 285.899C148.5 283.599 148.5 281.099 149.6 278.999C151 276.099 153.3 273.599 154 270.399C154.7 267.299 149.9 265.899 149.2 269.099C148.7 271.599 146.9 273.599 145.7 275.799C144.6 277.799 144.1 279.799 143.6 281.999C143.4 282.999 143.2 283.999 142.8 284.899C142.6 285.399 142.1 286.099 141.8 286.399C141.3 286.699 141.4 286.599 141.1 286.699C140.7 286.799 141.7 286.699 141 286.699C140.8 286.699 140.7 286.699 140.5 286.699C139.8 286.699 141 286.799 140.2 286.699C140 286.699 139.9 286.599 139.7 286.599C139.2 286.499 138.7 286.299 138.3 286.099C134.9 284.699 131.6 281.899 128.2 280.099C126.4 279.099 124.4 278.599 122.6 277.799C120.9 277.099 119.1 276.099 117.8 275.099C114.6 272.599 112.9 269.099 111.8 265.199C111.5 264.299 111.3 263.399 111.1 262.499C111.1 262.299 111 262.099 111 261.799C111 261.699 110.9 261.099 111 261.599C111 261.199 110.9 260.799 110.9 260.399C110.9 260.099 110.9 259.699 110.9 259.399C110.9 259.199 111.1 258.199 110.9 258.999C110.9 258.799 111 258.599 111 258.299C111 258.199 111.1 257.999 111.1 257.899C111.2 257.499 110.8 258.299 111.1 257.999C111.2 257.799 111.3 257.599 111.4 257.499C111.3 257.799 111.1 257.699 111.5 257.399C112.1 256.999 111.3 257.399 111.6 257.299C111.8 257.199 112 257.099 112.2 256.999C111.6 257.399 112.1 256.999 112.4 256.999C112.6 256.899 112.9 256.899 113.1 256.799C113.7 256.599 112.7 256.799 113.3 256.799C113.6 256.799 113.9 256.799 114.2 256.799C114.7 256.799 115.2 256.799 115.8 256.899C116.1 256.899 116.4 256.999 116.7 256.999C116 256.899 117.1 257.099 117.3 257.099C118.6 257.299 120 257.599 121.3 257.899C124.4 258.599 127.4 259.499 130.5 259.999C133.2 260.499 136.3 260.899 139 259.799C140.3 259.299 141.1 258.099 140.7 256.699C140.1 255.599 138.6 254.599 137.3 254.999Z" fill="#1A6383"/>
<path d="M259.7 384.001C256.3 388.201 254.3 393.701 254.8 399.101C255.4 405.001 258.8 409.801 264.4 411.801C274.4 415.401 289.7 410.201 289.4 397.801C289.3 394.301 288.1 390.901 286.7 387.801C285.3 384.601 283.4 381.301 280.4 379.301C277.7 377.501 275.2 381.801 277.9 383.601C279.6 384.701 281 387.101 281.9 389.201C283 391.401 283.8 393.801 284.2 396.201C284.4 397.201 284.5 398.401 284.3 399.501C284.2 400.001 283.8 401.401 283.6 401.901C282.7 403.601 281.4 404.801 279.7 405.801C276.2 407.801 271.7 408.401 267.9 407.601C263.5 406.701 260.9 404.101 260 400.001C259.2 396.001 260.6 390.801 263.3 387.501C264.2 386.501 264.3 385.001 263.3 384.001C262.3 383.101 260.5 382.901 259.7 384.001Z" fill="#1A6383"/>
</g>
<path d="M33.9461 282.605C37.8461 280.405 42.1461 279.105 46.6461 279.105C50.6461 279.105 54.5461 280.205 58.1461 282.005C65.8461 285.905 71.8461 292.705 76.6461 299.805C81.1461 306.505 84.9461 314.005 87.2461 321.805C90.5461 332.705 92.9461 344.205 100.646 353.105C104.146 357.105 108.446 360.105 113.546 361.605C118.746 363.105 124.346 363.305 129.746 363.805C130.546 363.905 130.546 362.605 129.746 362.505C124.746 362.005 119.646 361.805 114.846 360.605C110.146 359.405 105.946 356.905 102.646 353.405C94.3461 344.505 91.9461 332.505 88.4461 321.305C86.0461 313.505 82.3461 306.005 77.7461 299.305C73.0461 292.305 67.1461 285.705 59.6461 281.605C55.7461 279.505 51.5461 278.105 47.0461 278.005C42.1461 277.905 37.4461 279.305 33.2461 281.705C32.6461 281.905 33.2461 282.905 33.9461 282.605Z" fill="#EE9B4B"/>
<path d="M413.771 349.73C421.507 350.744 428.038 354.966 433.927 358.724C436.752 360.572 439.441 362.46 443.078 363.619C445.762 364.533 448.472 364.855 451.034 364.765C457.319 364.509 462.114 362.149 467.021 360.341C469.662 359.449 472.422 358.586 475.467 358.097C478.375 357.646 481.55 357.639 484.624 357.531C491.303 357.226 498.981 357.478 504.779 361.586C508.11 363.938 509.979 367.038 511.683 369.795C513.754 373.096 515.569 376.405 517.915 379.627C519.488 381.902 521.567 384.681 524.958 386.3C527.892 387.727 531.002 387.479 532.626 386.1C534.87 384.282 535.317 381.553 535.216 378.983C535.204 376.062 534.497 372.887 532.61 369.858C530.372 366.216 526.06 363.237 520.608 361.238C515.257 359.339 509.423 357.841 506.023 354.274C503.23 351.311 503.053 348.048 503.894 345.271C504.662 342.775 506.318 340.282 509.157 338.617C511.841 337.061 516.33 335.895 520.67 336.785C526.577 338.004 530.308 342.255 532.755 345.577C536.039 350.087 538.399 354.734 539.89 359.307C541.297 363.71 541.954 368.069 541.998 372.345C542.024 376.692 541.216 380.824 542.45 385.406C543.815 390.471 548.914 400.76 559.973 399.71C564.263 399.316 567.091 397.199 568.592 394.816C570.738 391.402 570.558 387.165 569.078 383.043C566.414 375.625 558.454 368.566 556.916 361.212C555.956 356.551 557.789 352.382 557.442 347.803C557.077 343.295 554.616 338.547 550.527 334.204C548.929 332.522 547.056 330.918 544.7 329.714C542.665 328.742 540.402 328.161 538.104 327.72C535.805 327.28 533.334 327.019 530.97 326.337C528.012 325.502 525.728 324.017 523.891 322.273C517.204 315.692 518.43 308.449 513.436 301.704C510.99 298.381 506.992 296.157 501.543 295.132C497.78 294.464 494.356 293.958 491.036 292.058C488.038 290.39 485.523 288.322 483.246 286.315C479.72 283.24 476.606 280.045 472.944 277.009C470.226 274.74 466.528 271.844 462.151 271.094C457.893 270.374 455.101 272.351 453.709 274.312C451.623 276.994 450.931 280.184 449.899 283.211C449.059 285.988 448.229 289.217 445.419 291.264C444.023 292.252 441.865 292.745 440.065 293.33C437.698 294.144 435.569 295.019 433.422 295.964C429.833 297.586 425.723 299.748 425.287 302.928C425.262 303.52 426.691 303.887 426.835 303.326C427.325 299.935 432.203 297.746 436.186 296.075C438.333 295.13 440.563 294.356 442.912 293.613C444.575 293.067 446.101 292.561 447.223 291.652C449.795 289.545 450.571 286.526 451.53 283.78C452.562 280.752 453.254 277.563 455.22 274.85C456.768 272.779 459.817 270.793 464.435 272.578C468.935 274.333 472.507 277.72 475.491 280.432C478.981 283.648 482.214 286.873 486.252 289.931C488.583 291.727 491.289 293.545 494.569 294.612C498.087 295.74 501.637 295.754 505.155 296.883C510.084 298.448 512.531 301.77 514.043 304.778C515.721 308.127 516.511 311.473 517.796 314.871C519.2 318.3 521.383 322.153 525.85 325.021C529.776 327.527 534.38 327.886 538.959 328.838C541.496 329.34 543.942 330.193 545.887 331.516C548.373 333.202 550.239 335.328 551.646 337.26C553.457 339.596 554.721 342.091 555.489 344.533C556.24 347.046 556.121 349.485 555.901 351.823C555.386 355.806 554.668 359.587 556.368 363.84C557.754 367.339 560.421 370.792 562.831 374.255C565.444 377.919 567.645 381.703 568.465 385.43C569.23 389.368 568.779 393.592 565.395 396.389C563.169 398.137 558.847 399.646 554.532 398.163C549.502 396.496 546.932 392.17 545.557 389.123C543.536 384.638 543.337 380.471 543.651 376.287C543.946 372.172 543.766 367.935 542.834 363.655C541.885 359.446 540.304 355.223 537.955 351.028C535.688 347.004 532.917 342.476 528.082 339.064C524.852 336.812 520.757 335.461 516.658 335.605C512.797 335.81 509.197 336.981 506.971 338.728C502.382 342.264 500.163 348.428 504.356 353.845C506.94 357.128 511.761 359.115 516.672 360.75C519.475 361.695 522.297 362.57 524.754 363.874C527.55 365.341 529.726 367.247 530.997 369.22C533.021 372.209 533.848 375.414 533.978 378.366C534.097 380.866 533.816 383.936 531.251 385.522C528.978 386.959 525.716 385.821 523.522 383.986C520.484 381.484 518.734 378.416 516.911 375.628C514.941 372.428 513.108 369.188 510.744 366.037C508.583 363.087 505.771 360.195 501.034 358.379C495.041 356.016 488.517 356.211 482.744 356.449C479.789 356.588 476.852 356.657 474.063 357.137C471.256 357.688 468.651 358.441 466.129 359.364C461.241 361.101 456.41 363.602 450.041 363.687C442.392 363.817 436.976 359.208 431.271 355.722C426.007 352.499 420.295 349.535 413.547 348.624C412.642 348.691 412.783 349.625 413.771 349.73Z" fill="#EF9C4C"/>
</g>
<defs>
<clipPath id="clip0_1982_375">
<rect width="606.8" height="415.9" fill="white"/>
</clipPath>
<clipPath id="clip1_1982_375">
<rect width="396.1" height="478.8" fill="white" transform="translate(89 -31)"/>
</clipPath>
</defs>
</svg>
