<svg width="310" height="56" viewBox="0 0 310 56" fill="none" xmlns="http://www.w3.org/2000/svg">
<path d="M0.764622 7.20929C0.255914 6.67856 0 6.03712 0 5.29476C0 4.5882 0.252793 3.96631 0.764622 3.43233C1.27645 2.89834 1.90687 2.63135 2.65277 2.63135C3.39867 2.63135 4.03221 2.88857 4.54092 3.40302C5.04963 3.91747 5.30554 4.5296 5.30554 5.2394C5.30554 6.01759 5.05275 6.6753 4.54092 7.20603C4.03221 7.73676 3.39867 8.00701 2.65277 8.00701C1.90687 8.00701 1.27645 7.74002 0.764622 7.20929ZM0.817676 14.1283H4.44105V42.1234H0.817676V14.1283Z" fill="#136284"/>
<path d="M40.8008 16.9119C42.792 18.9534 43.7844 21.9229 43.7844 25.8268V42.0612H40.1611V26.2013C40.1611 23.2904 39.4651 21.0731 38.07 19.5492C36.675 18.0254 34.687 17.2603 32.0997 17.2603C29.2098 17.2603 26.9222 18.1557 25.24 19.9497C23.5578 21.7438 22.7152 24.2151 22.7152 27.3734V42.0612H19.0918V14.0661H22.5591V19.2302C23.5453 17.5273 24.9154 16.2053 26.6662 15.2643C28.4171 14.3234 30.4488 13.8545 32.7645 13.8545C36.132 13.8545 38.8097 14.8736 40.8008 16.9119Z" fill="#136284"/>
<path d="M61.993 40.4193C59.902 39.2145 58.2603 37.5182 57.0713 35.3366C55.8791 33.1551 55.2861 30.7001 55.2861 27.9651C55.2861 25.2365 55.8822 22.788 57.0713 20.6228C58.2603 18.4608 59.902 16.7742 61.993 15.5662C64.084 14.3615 66.459 13.7559 69.1086 13.7559C71.4212 13.7559 73.4841 14.2247 75.3068 15.1657C77.1231 16.1067 78.5619 17.4807 79.6167 19.2878L76.9109 21.2023C76.0246 19.8185 74.9042 18.7831 73.5434 18.0896C72.1827 17.3993 70.7003 17.0542 69.1055 17.0542C67.1674 17.0542 65.4228 17.5068 63.878 18.4119C62.33 19.3171 61.1222 20.6032 60.2546 22.2736C59.387 23.9406 58.9532 25.8389 58.9532 27.9651C58.9532 30.1303 59.387 32.0383 60.2546 33.6859C61.1191 35.3366 62.3269 36.613 63.878 37.5182C65.426 38.4233 67.1674 38.8759 69.1055 38.8759C70.7034 38.8759 72.1827 38.5405 73.5434 37.8633C74.9042 37.1893 76.0246 36.1604 76.9109 34.7766L79.6167 36.6911C78.5619 38.5015 77.1169 39.8755 75.2787 40.8165C73.4436 41.7575 71.3838 42.2263 69.1055 42.2263C66.4559 42.2296 64.084 41.6272 61.993 40.4193Z" fill="#136284"/>
<path d="M94.7404 40.3932C92.6682 39.169 91.0328 37.4758 89.8437 35.3106C88.6516 33.1486 88.0586 30.7001 88.0586 27.9651C88.0586 25.2365 88.6547 22.788 89.8437 20.6228C91.0328 18.4608 92.6682 16.7742 94.7404 15.5662C96.8127 14.3615 99.1472 13.7559 101.728 13.7559C104.315 13.7559 106.644 14.3582 108.716 15.5662C110.791 16.7742 112.414 18.4608 113.588 20.6228C114.761 22.788 115.348 25.2365 115.348 27.9651C115.348 30.7001 114.761 33.1486 113.588 35.3106C112.414 37.4758 110.791 39.169 108.716 40.3932C106.644 41.6175 104.312 42.2296 101.728 42.2296C99.1441 42.2296 96.8127 41.6175 94.7404 40.3932ZM106.856 37.5182C108.369 36.6163 109.552 35.3269 110.401 33.6598C111.25 31.9927 111.678 30.0945 111.678 27.9651C111.678 25.8356 111.25 23.9406 110.401 22.2736C109.549 20.6065 108.369 19.3171 106.856 18.4119C105.342 17.51 103.635 17.0542 101.728 17.0542C99.8213 17.0542 98.1142 17.5068 96.6005 18.4119C95.0869 19.3171 93.8947 20.6032 93.0302 22.2736C92.1626 23.9406 91.7288 25.8389 91.7288 27.9651C91.7288 30.0945 92.1626 31.996 93.0302 33.6598C93.8947 35.3269 95.0869 36.6163 96.6005 37.5182C98.1142 38.4233 99.8213 38.8759 101.728 38.8759C103.635 38.8759 105.342 38.4233 106.856 37.5182Z" fill="#136284"/>
<path d="M134.2 15.3224C135.886 14.3651 137.967 13.8865 140.448 13.8865V17.5592L139.584 17.5039C136.759 17.5039 134.55 18.4091 132.952 20.2194C131.354 22.0297 130.555 24.5662 130.555 27.8287V42.0932H126.932V14.0981H130.399V19.5812C131.248 17.6993 132.518 16.2829 134.2 15.3224Z" fill="#136284"/>
<path d="M172.106 15.5369C174.147 16.7286 175.745 18.4022 176.899 20.5674C178.057 22.7327 178.635 25.1975 178.635 27.9651C178.635 30.7685 178.057 33.2528 176.899 35.418C175.745 37.5833 174.156 39.2601 172.131 40.4486C170.108 41.6403 167.821 42.2329 165.268 42.2329C163.093 42.2329 161.129 41.764 159.379 40.823C157.625 39.882 156.189 38.508 155.069 36.6977V52.2939H151.445V13.9675H154.913V19.5027C156.002 17.6598 157.441 16.2402 159.223 15.2471C161.008 14.254 163.024 13.7559 165.268 13.7559C167.783 13.7559 170.065 14.3485 172.106 15.5369ZM170.115 37.5182C171.644 36.6163 172.845 35.3269 173.71 33.6598C174.577 31.9927 175.011 30.0945 175.011 27.9651C175.011 25.8356 174.577 23.9471 173.71 22.2964C172.845 20.6488 171.644 19.3594 170.115 18.438C168.585 17.5165 166.884 17.0542 165.015 17.0542C163.111 17.0542 161.401 17.5165 159.887 18.438C158.374 19.3627 157.182 20.6488 156.317 22.2964C155.449 23.9471 155.016 25.8356 155.016 27.9651C155.016 30.0945 155.449 31.996 156.317 33.6598C157.182 35.3269 158.374 36.6163 159.887 37.5182C161.401 38.4233 163.108 38.8759 165.015 38.8759C166.884 38.8759 168.585 38.4233 170.115 37.5182Z" fill="#136284"/>
<path d="M194.259 40.3932C192.187 39.169 190.551 37.4758 189.362 35.3106C188.17 33.1486 187.577 30.7001 187.577 27.9651C187.577 25.2365 188.173 22.788 189.362 20.6228C190.551 18.4608 192.187 16.7742 194.259 15.5662C196.331 14.3615 198.666 13.7559 201.247 13.7559C203.834 13.7559 206.162 14.3582 208.234 15.5662C210.31 16.7742 211.933 18.4608 213.106 20.6228C214.28 22.788 214.866 25.2365 214.866 27.9651C214.866 30.7001 214.28 33.1486 213.106 35.3106C211.933 37.4758 210.31 39.169 208.234 40.3932C206.162 41.6175 203.831 42.2296 201.247 42.2296C198.666 42.2296 196.331 41.6175 194.259 40.3932ZM206.374 37.5182C207.888 36.6163 209.071 35.3269 209.92 33.6598C210.769 31.9927 211.196 30.0945 211.196 27.9651C211.196 25.8356 210.769 23.9406 209.92 22.2736C209.068 20.6065 207.888 19.3171 206.374 18.4119C204.861 17.51 203.154 17.0542 201.247 17.0542C199.34 17.0542 197.633 17.5068 196.119 18.4119C194.605 19.3171 193.413 20.6032 192.549 22.2736C191.681 23.9406 191.247 25.8389 191.247 27.9651C191.247 30.0945 191.681 31.996 192.549 33.6598C193.413 35.3269 194.605 36.6163 196.119 37.5182C197.633 38.4233 199.34 38.8759 201.247 38.8759C203.154 38.8759 204.861 38.4233 206.374 37.5182Z" fill="#136284"/>
<path d="M232.689 15.2904C234.375 14.3331 236.456 13.8545 238.938 13.8545V17.5273L238.073 17.4719C235.249 17.4719 233.039 18.3771 231.441 20.1874C229.843 21.9978 229.044 24.5342 229.044 27.7967V42.0612H225.421V14.0661H228.888V19.5492C229.737 17.6673 231.007 16.2509 232.689 15.2904Z" fill="#136284"/>
<path d="M294.87 56H244.863V15.7818C244.863 7.06553 251.636 0 259.99 0H294.873C303.227 0 310 7.06553 310 15.7818V40.2214C309.997 48.9345 303.224 56 294.87 56Z" fill="#136284"/>
<path d="M272.677 16.5278C274.556 18.3675 275.501 21.0928 275.501 24.6972V42.1559H272.009V37.7635C271.191 39.2287 269.983 40.3683 268.392 41.1921C266.8 42.0126 264.909 42.4228 262.718 42.4228C259.706 42.4228 257.313 41.674 255.534 40.1729C253.755 38.6719 252.865 36.689 252.865 34.2275C252.865 31.8343 253.692 29.9068 255.356 28.4448C257.013 26.9796 259.659 26.247 263.286 26.247H271.859V24.5311C271.859 22.1054 271.213 20.256 269.909 18.9894C268.61 17.7228 266.71 17.0879 264.21 17.0879C262.503 17.0879 260.858 17.3842 259.285 17.9735C257.709 18.5629 256.358 19.3736 255.228 20.409L253.586 17.573C254.953 16.3585 256.598 15.4208 258.517 14.7598C260.43 14.0989 262.45 13.77 264.575 13.77C268.089 13.77 270.792 14.6882 272.677 16.5278ZM268.57 37.9491C270.04 36.9658 271.135 35.5462 271.853 33.6902V29.0863H263.386C258.767 29.0863 256.454 30.7664 256.454 34.1233C256.454 35.7643 257.05 37.0602 258.252 38.0044C259.45 38.9519 261.126 39.4241 263.283 39.4241C265.336 39.4241 267.1 38.9324 268.57 37.9491Z" fill="white"/>
<path d="M295.117 15.2157C296.808 14.2519 298.906 13.77 301.406 13.77V17.4623L300.532 17.4102C297.692 17.4102 295.463 18.3219 293.856 20.142C292.249 21.9654 291.447 24.5148 291.447 27.8034V42.1559H287.805V13.9849H291.294V19.5006C292.149 17.6088 293.422 16.1795 295.117 15.2157Z" fill="white"/>
</svg>
