<svg width="246" height="44" viewBox="0 0 246 44" fill="none" xmlns="http://www.w3.org/2000/svg">
<path d="M0.606763 5.66481C0.203079 5.24781 0 4.74382 0 4.16053C0 3.60539 0.200603 3.11676 0.606763 2.6972C1.01292 2.27764 1.51319 2.06786 2.1051 2.06786C2.697 2.06786 3.19975 2.26996 3.60343 2.67417C4.00712 3.07838 4.2102 3.55934 4.2102 4.11704C4.2102 4.72847 4.00959 5.24525 3.60343 5.66225C3.19975 6.07925 2.697 6.29159 2.1051 6.29159C1.51319 6.29159 1.01292 6.08181 0.606763 5.66481ZM0.648865 11.1012H3.52418V33.0973H0.648865V11.1012Z" fill="#136284"/>
<path d="M32.3766 13.2874C33.9566 14.8914 34.7442 17.2246 34.7442 20.292V33.0476H31.8689V20.5862C31.8689 18.2991 31.3166 16.5569 30.2095 15.3596C29.1025 14.1623 27.5249 13.5611 25.4718 13.5611C23.1785 13.5611 21.3632 14.2646 20.0283 15.6742C18.6934 17.0839 18.0247 19.0256 18.0247 21.5071V33.0476H15.1494V11.0514H17.9009V15.1089C18.6835 13.7709 19.7707 12.7322 21.1601 11.9929C22.5495 11.2535 24.1617 10.8851 25.9993 10.8851C28.6716 10.8851 30.7965 11.6859 32.3766 13.2874Z" fill="#136284"/>
<path d="M49.1952 31.7588C47.5359 30.8122 46.2332 29.4794 45.2896 27.7653C44.3436 26.0513 43.873 24.1223 43.873 21.9733C43.873 19.8295 44.3461 17.9057 45.2896 16.2044C46.2332 14.5057 47.5359 13.1805 49.1952 12.2314C50.8545 11.2848 52.7392 10.809 54.8418 10.809C56.677 10.809 58.314 11.1774 59.7604 11.9167C61.2017 12.6561 62.3434 13.7357 63.1805 15.1555L61.0333 16.6598C60.33 15.5725 59.4409 14.759 58.3611 14.2141C57.2813 13.6717 56.1049 13.4005 54.8394 13.4005C53.3014 13.4005 51.917 13.7561 50.6911 14.4673C49.4627 15.1785 48.5043 16.1891 47.8158 17.5015C47.1273 18.8113 46.783 20.3028 46.783 21.9733C46.783 23.6746 47.1273 25.1738 47.8158 26.4683C48.5018 27.7653 49.4602 28.7682 50.6911 29.4794C51.9195 30.1906 53.3014 30.5462 54.8394 30.5462C56.1074 30.5462 57.2813 30.2827 58.3611 29.7505C59.4409 29.221 60.33 28.4126 61.0333 27.3253L63.1805 28.8296C62.3434 30.252 61.1968 31.3316 59.7381 32.0709C58.2818 32.8103 56.6473 33.1786 54.8394 33.1786C52.7368 33.1812 50.8545 32.7079 49.1952 31.7588Z" fill="#136284"/>
<path d="M75.1793 31.7383C73.5349 30.7764 72.2371 29.4461 71.2936 27.7448C70.3475 26.0461 69.877 24.1223 69.877 21.9733C69.877 19.8295 70.35 17.9057 71.2936 16.2044C72.2371 14.5057 73.5349 13.1805 75.1793 12.2314C76.8238 11.2848 78.6763 10.809 80.7244 10.809C82.7775 10.809 84.625 11.2823 86.2695 12.2314C87.9164 13.1805 89.2042 14.5057 90.1354 16.2044C91.0666 17.9057 91.5322 19.8295 91.5322 21.9733C91.5322 24.1223 91.0666 26.0461 90.1354 27.7448C89.2042 29.4461 87.9164 30.7764 86.2695 31.7383C84.625 32.7002 82.775 33.1812 80.7244 33.1812C78.6738 33.1812 76.8238 32.7002 75.1793 31.7383ZM84.7934 29.4794C85.9946 28.7707 86.9332 27.7576 87.6068 26.4478C88.2805 25.1379 88.6198 23.6465 88.6198 21.9733C88.6198 20.3002 88.2805 18.8113 87.6068 17.5015C86.9307 16.1916 85.9946 15.1785 84.7934 14.4673C83.5923 13.7587 82.2376 13.4005 80.7244 13.4005C79.2112 13.4005 77.8565 13.7561 76.6554 14.4673C75.4542 15.1785 74.5082 16.1891 73.8222 17.5015C73.1337 18.8113 72.7894 20.3028 72.7894 21.9733C72.7894 23.6465 73.1337 25.1405 73.8222 26.4478C74.5082 27.7576 75.4542 28.7707 76.6554 29.4794C77.8565 30.1906 79.2112 30.5462 80.7244 30.5462C82.2376 30.5462 83.5923 30.1906 84.7934 29.4794Z" fill="#136284"/>
<path d="M106.495 12.0387C107.832 11.2866 109.484 10.9105 111.453 10.9105V13.7963L110.767 13.7528C108.525 13.7528 106.772 14.464 105.504 15.8864C104.236 17.3088 103.602 19.3017 103.602 21.8651V33.073H100.727V11.0768H103.478V15.385C104.152 13.9063 105.16 12.7934 106.495 12.0387Z" fill="#136284"/>
<path d="M136.574 12.2084C138.193 13.1447 139.461 14.4597 140.378 16.1609C141.297 17.8622 141.755 19.7988 141.755 21.9733C141.755 24.176 141.297 26.128 140.378 27.8293C139.461 29.5305 138.201 30.848 136.594 31.7818C134.989 32.7181 133.173 33.1838 131.148 33.1838C129.421 33.1838 127.864 32.8154 126.474 32.076C125.082 31.3367 123.943 30.2571 123.054 28.8347V41.0889H120.179V10.9753H122.93V15.3244C123.795 13.8764 124.936 12.7609 126.35 11.9807C127.767 11.2004 129.367 10.809 131.148 10.809C133.144 10.809 134.954 11.2746 136.574 12.2084ZM134.994 29.4794C136.207 28.7707 137.161 27.7576 137.847 26.4478C138.535 25.1379 138.879 23.6465 138.879 21.9733C138.879 20.3002 138.535 18.8164 137.847 17.5194C137.161 16.2249 136.207 15.2118 134.994 14.4878C133.78 13.7638 132.43 13.4005 130.947 13.4005C129.436 13.4005 128.079 13.7638 126.878 14.4878C125.677 15.2143 124.731 16.2249 124.045 17.5194C123.356 18.8164 123.012 20.3002 123.012 21.9733C123.012 23.6465 123.356 25.1405 124.045 26.4478C124.731 27.7576 125.677 28.7707 126.878 29.4794C128.079 30.1906 129.434 30.5462 130.947 30.5462C132.43 30.5462 133.78 30.1906 134.994 29.4794Z" fill="#136284"/>
<path d="M154.154 31.7383C152.509 30.7764 151.212 29.4461 150.268 27.7448C149.322 26.0461 148.852 24.1223 148.852 21.9733C148.852 19.8295 149.325 17.9057 150.268 16.2044C151.212 14.5057 152.509 13.1805 154.154 12.2314C155.798 11.2848 157.651 10.809 159.699 10.809C161.752 10.809 163.6 11.2823 165.244 12.2314C166.891 13.1805 168.179 14.5057 169.11 16.2044C170.041 17.9057 170.507 19.8295 170.507 21.9733C170.507 24.1223 170.041 26.0461 169.11 27.7448C168.179 29.4461 166.891 30.7764 165.244 31.7383C163.6 32.7002 161.75 33.1812 159.699 33.1812C157.651 33.1812 155.798 32.7002 154.154 31.7383ZM163.768 29.4794C164.969 28.7707 165.908 27.7576 166.581 26.4478C167.255 25.1379 167.594 23.6465 167.594 21.9733C167.594 20.3002 167.255 18.8113 166.581 17.5015C165.905 16.1916 164.969 15.1785 163.768 14.4673C162.567 13.7587 161.212 13.4005 159.699 13.4005C158.186 13.4005 156.831 13.7561 155.63 14.4673C154.429 15.1785 153.483 16.1891 152.797 17.5015C152.108 18.8113 151.764 20.3028 151.764 21.9733C151.764 23.6465 152.108 25.1405 152.797 26.4478C153.483 27.7576 154.429 28.7707 155.63 29.4794C156.831 30.1906 158.186 30.5462 159.699 30.5462C161.212 30.5462 162.567 30.1906 163.768 29.4794Z" fill="#136284"/>
<path d="M184.65 12.0133C185.987 11.2612 187.639 10.8851 189.608 10.8851V13.7709L188.922 13.7274C186.681 13.7274 184.927 14.4386 183.659 15.861C182.391 17.2834 181.757 19.2763 181.757 21.8397V33.0476H178.882V11.0514H181.633V15.3596C182.307 13.8809 183.315 12.768 184.65 12.0133Z" fill="#136284"/>
<path d="M233.994 44H194.312V12.4C194.312 5.55149 199.686 0 206.316 0H233.996C240.626 0 246 5.55149 246 12.4V31.6025C245.998 38.4485 240.624 44 233.994 44Z" fill="#136284"/>
<path d="M216.382 12.986C217.872 14.4314 218.623 16.5727 218.623 19.4047V33.1223H215.852V29.6711C215.203 30.8224 214.244 31.7178 212.981 32.365C211.718 33.0097 210.217 33.3321 208.479 33.3321C206.089 33.3321 204.189 32.7436 202.778 31.5643C201.366 30.3849 200.66 28.8269 200.66 26.8928C200.66 25.0125 201.316 23.498 202.636 22.3493C203.952 21.1981 206.052 20.6225 208.929 20.6225H215.733V19.2743C215.733 17.3683 215.22 15.9152 214.185 14.9201C213.155 13.9249 211.646 13.426 209.663 13.426C208.308 13.426 207.003 13.6588 205.754 14.1219C204.504 14.5849 203.431 15.2219 202.535 16.0355L201.232 13.8072C202.317 12.853 203.622 12.1162 205.145 11.5968C206.663 11.0775 208.266 10.8191 209.952 10.8191C212.741 10.8191 214.886 11.5406 216.382 12.986ZM213.122 29.817C214.289 29.0444 215.158 27.929 215.728 26.4707V22.8533H209.009C205.343 22.8533 203.508 24.1734 203.508 26.811C203.508 28.1004 203.981 29.1186 204.935 29.8605C205.886 30.6049 207.216 30.9759 208.927 30.9759C210.557 30.9759 211.956 30.5896 213.122 29.817Z" fill="white"/>
<path d="M234.189 11.955C235.532 11.1977 237.196 10.8191 239.18 10.8191V13.7202L238.486 13.6793C236.233 13.6793 234.464 14.3956 233.189 15.8257C231.913 17.2583 231.277 19.2615 231.277 21.8453V33.1223H228.387V10.988H231.156V15.3217C231.834 13.8353 232.845 12.7123 234.189 11.955Z" fill="white"/>
</svg>
